<?xml version="1.0" encoding="utf-8"?>
<!-- Generator: Adobe Illustrator 26.0.1, SVG Export Plug-In . SVG Version: 6.00 Build 0)  -->
<svg version="1.1" id="Layer_1" xmlns="http://www.w3.org/2000/svg" xmlns:xlink="http://www.w3.org/1999/xlink" x="0px" y="0px"
	 viewBox="0 0 428.03 138.31" style="enable-background:new 0 0 428.03 138.31;" xml:space="preserve">
<style type="text/css">
	.st0{fill:#84BD00;}
	.st1{enable-background:new    ;}
	.st2{fill:#FFFFFF;}
	.st3{fill:none;}
</style>
<g>
	<path class="st0" d="M11.37,0.5c-6,0-10.87,4.87-10.87,10.87v115.91c0,5.8,4.7,10.51,10.5,10.53h406c5.82,0,10.53-4.71,10.53-10.53
		v0V11C427.51,5.2,422.8,0.51,417,0.5H11.37"/>
</g>
<g>
	<path d="M11.37,0.5V0C5.09,0,0,5.09,0,11.37v115.91c0,6.08,4.92,11,11,11h406c6.08,0,11-4.92,11-11V11c0-6.08-4.92-11-11-11l0,0
		H11.37v1H417c5.52,0,10,4.48,10,10v116.28c0,5.52-4.48,10-10,10H11c-5.52,0-10-4.48-10-10V11.37C1.01,5.65,5.65,1.01,11.37,1V0.5"
		/>
</g>
<g class="st1">
	<path d="M18.39,24.68c0.14,0.66,0.44,1.16,0.9,1.49c0.46,0.33,1.12,0.5,1.97,0.5c0.97,0,1.68-0.17,2.11-0.52
		c0.43-0.35,0.65-0.91,0.65-1.7c0-0.62-0.18-1.12-0.53-1.52c-0.36-0.39-0.93-0.71-1.71-0.96l-2.46-0.76
		c-1.14-0.35-2.02-0.9-2.63-1.64c-0.61-0.74-0.92-1.62-0.92-2.64v-0.21c0-1.54,0.49-2.74,1.47-3.59c0.98-0.85,2.37-1.27,4.18-1.27
		c1.95,0,3.39,0.52,4.33,1.55c0.65,0.74,0.97,1.64,0.97,2.69c0,0.25-0.05,0.41-0.15,0.5c-0.1,0.08-0.3,0.13-0.59,0.13h-1.32
		c-0.29,0-0.49-0.04-0.58-0.12s-0.15-0.23-0.19-0.46c-0.14-1.27-1.04-1.9-2.71-1.9c-1.7,0-2.55,0.76-2.55,2.29
		c0,0.31,0.04,0.58,0.12,0.81c0.08,0.23,0.21,0.44,0.39,0.61c0.19,0.18,0.43,0.34,0.73,0.49c0.3,0.15,0.68,0.29,1.12,0.43l2.45,0.76
		c1.17,0.36,2.05,0.92,2.63,1.68c0.58,0.76,0.87,1.69,0.87,2.79v0.3c0,1.5-0.49,2.65-1.46,3.46c-0.97,0.81-2.35,1.22-4.12,1.22
		c-2.1,0-3.64-0.49-4.61-1.46c-0.39-0.4-0.68-0.85-0.89-1.34c-0.21-0.49-0.31-1.01-0.31-1.55c0-0.25,0.05-0.41,0.15-0.5
		c0.1-0.08,0.3-0.13,0.59-0.13h1.3c0.28,0,0.47,0.04,0.57,0.12S18.35,24.45,18.39,24.68z"/>
	<path d="M29.11,18.89c0-1.59,0.18-2.81,0.53-3.66c0.45-1.11,1.17-1.95,2.17-2.52c1-0.57,2.19-0.86,3.58-0.86
		c0.79,0,1.53,0.1,2.23,0.29c0.7,0.19,1.32,0.49,1.84,0.89c0.52,0.4,0.94,0.92,1.25,1.54c0.31,0.63,0.46,1.37,0.46,2.24
		c0,0.22-0.05,0.36-0.16,0.44s-0.3,0.12-0.58,0.12H39c-0.28,0-0.47-0.04-0.57-0.12c-0.1-0.08-0.16-0.23-0.17-0.46
		c-0.06-0.88-0.34-1.51-0.83-1.9s-1.24-0.58-2.22-0.58c-0.57,0-1.06,0.07-1.46,0.2c-0.4,0.13-0.73,0.36-0.98,0.68
		s-0.44,0.76-0.57,1.3c-0.12,0.54-0.19,1.22-0.19,2.04v3.89c0,1.56,0.26,2.66,0.78,3.29c0.52,0.63,1.32,0.95,2.42,0.95
		c1.02,0,1.79-0.26,2.32-0.79c0.52-0.52,0.79-1.42,0.79-2.69v-0.44h-1.78c-0.28,0-0.46-0.05-0.54-0.15c-0.08-0.1-0.13-0.3-0.13-0.59
		v-1.02c0-0.29,0.04-0.49,0.13-0.59c0.08-0.1,0.27-0.15,0.54-0.15h3.91c0.29,0,0.49,0.04,0.59,0.13c0.1,0.09,0.15,0.27,0.15,0.54
		v2.62c0,0.76-0.12,1.47-0.36,2.14c-0.24,0.67-0.61,1.26-1.1,1.77c-0.49,0.51-1.12,0.91-1.88,1.2c-0.76,0.29-1.64,0.44-2.66,0.44
		c-1.5,0-2.68-0.27-3.55-0.82c-0.87-0.55-1.53-1.32-1.98-2.33c-0.2-0.45-0.34-0.95-0.42-1.49c-0.08-0.55-0.12-1.27-0.12-2.17V18.89z
		"/>
	<path d="M49.75,11.85c1.37,0,2.53,0.27,3.46,0.8c0.93,0.53,1.62,1.32,2.07,2.35c0.2,0.45,0.34,0.95,0.42,1.51s0.12,1.27,0.12,2.15
		v3.38c0,0.8-0.04,1.49-0.13,2.07c-0.09,0.58-0.22,1.11-0.41,1.59c-0.45,1.11-1.14,1.95-2.07,2.52s-2.09,0.86-3.46,0.86
		s-2.53-0.27-3.46-0.8c-0.93-0.53-1.62-1.32-2.07-2.35c-0.2-0.45-0.34-0.95-0.42-1.5c-0.08-0.56-0.12-1.27-0.12-2.15v-3.38
		c0-0.8,0.04-1.49,0.13-2.07s0.22-1.11,0.41-1.59c0.45-1.11,1.14-1.95,2.07-2.52C47.22,12.14,48.38,11.85,49.75,11.85z M49.75,9.7
		l-0.67,0.7c-0.14,0.15-0.25,0.27-0.35,0.36c-0.09,0.08-0.18,0.15-0.25,0.2c-0.08,0.05-0.15,0.07-0.23,0.08s-0.18,0.01-0.3,0.01
		h-1.62c-0.26,0-0.39-0.08-0.39-0.25c0-0.05,0.02-0.1,0.07-0.16c0.05-0.06,0.14-0.16,0.28-0.3l1.76-1.69
		c0.14-0.14,0.25-0.25,0.35-0.34c0.09-0.08,0.18-0.15,0.25-0.18c0.08-0.04,0.15-0.07,0.23-0.08c0.08-0.02,0.17-0.02,0.28-0.02h1.2
		c0.2,0,0.37,0.04,0.5,0.1s0.34,0.24,0.61,0.52l1.76,1.69c0.14,0.14,0.23,0.24,0.28,0.3s0.07,0.12,0.07,0.16
		c0,0.17-0.13,0.25-0.39,0.25h-1.62c-0.22,0-0.39-0.03-0.51-0.09c-0.12-0.06-0.33-0.25-0.63-0.56L49.75,9.7z M49.75,14.33
		c-1.14,0-1.96,0.32-2.44,0.97c-0.49,0.65-0.73,1.72-0.73,3.22v3.89c0,1.5,0.24,2.57,0.73,3.22s1.3,0.97,2.44,0.97
		s1.96-0.32,2.44-0.97c0.49-0.65,0.73-1.72,0.73-3.22v-3.89c0-1.5-0.24-2.57-0.73-3.22C51.71,14.65,50.89,14.33,49.75,14.33z"/>
	<path d="M61.52,22.27v5.77c0,0.26-0.05,0.44-0.14,0.53c-0.09,0.09-0.29,0.14-0.6,0.14h-1.3c-0.31,0-0.51-0.05-0.6-0.14
		c-0.09-0.09-0.14-0.27-0.14-0.53V12.89c0-0.26,0.05-0.44,0.14-0.53c0.09-0.09,0.29-0.14,0.6-0.14h4.96c1.84,0,3.18,0.38,4.03,1.15
		c0.85,0.76,1.27,1.99,1.27,3.67v0.44c0,2.35-0.93,3.83-2.8,4.45l3.45,6.11c0.06,0.12,0.09,0.22,0.09,0.3c0,0.25-0.2,0.37-0.6,0.37
		h-1.74c-0.26,0-0.45-0.04-0.57-0.13s-0.25-0.27-0.41-0.54l-3.13-5.77H61.52z M61.52,19.86h2.9c0.9,0,1.53-0.18,1.9-0.54
		c0.37-0.36,0.56-0.98,0.56-1.86v-0.32c0-0.93-0.18-1.58-0.54-1.95c-0.36-0.37-1-0.56-1.91-0.56h-2.9V19.86z"/>
	<path d="M89.47,28.04c0,0.28-0.05,0.46-0.15,0.54c-0.1,0.08-0.3,0.13-0.59,0.13h-1.34c-0.29,0-0.49-0.04-0.59-0.13
		c-0.1-0.08-0.15-0.27-0.15-0.54v-6.72h-6.25v6.72c0,0.28-0.05,0.46-0.15,0.54s-0.3,0.13-0.59,0.13h-1.34
		c-0.29,0-0.49-0.04-0.59-0.13s-0.15-0.27-0.15-0.54V12.89c0-0.28,0.05-0.46,0.15-0.54s0.3-0.13,0.59-0.13h1.34
		c0.29,0,0.49,0.04,0.59,0.13s0.15,0.27,0.15,0.54v5.93h6.25v-5.93c0-0.28,0.05-0.46,0.15-0.54c0.1-0.08,0.3-0.13,0.59-0.13h1.34
		c0.29,0,0.49,0.04,0.59,0.13c0.1,0.08,0.15,0.27,0.15,0.54V28.04z"/>
	<path d="M93.68,12.22c0.26,0,0.44,0.04,0.54,0.1c0.1,0.07,0.2,0.21,0.31,0.43l3.36,6.83l3.31-6.83c0.11-0.22,0.21-0.36,0.31-0.43
		c0.1-0.07,0.28-0.1,0.54-0.1h1.6c0.39,0,0.58,0.12,0.58,0.37c0,0.11-0.02,0.21-0.07,0.3l-4.96,9.57v5.58
		c0,0.28-0.05,0.46-0.15,0.54s-0.3,0.13-0.59,0.13h-1.34c-0.29,0-0.49-0.04-0.59-0.13s-0.15-0.27-0.15-0.54v-5.58l-4.96-9.57
		c-0.05-0.09-0.07-0.19-0.07-0.3c0-0.25,0.19-0.37,0.58-0.37H93.68z"/>
	<path d="M115.8,27.97c0,0.29-0.04,0.49-0.13,0.59s-0.27,0.15-0.54,0.15h-8.25c-0.29,0-0.49-0.04-0.59-0.13s-0.15-0.27-0.15-0.54
		V12.89c0-0.28,0.05-0.46,0.15-0.54s0.3-0.13,0.59-0.13h1.34c0.29,0,0.49,0.04,0.59,0.13s0.15,0.27,0.15,0.54v13.32h6.16
		c0.28,0,0.46,0.05,0.54,0.15s0.13,0.3,0.13,0.59V27.97z"/>
	<path d="M128.19,27.97c0,0.29-0.04,0.49-0.13,0.59s-0.27,0.15-0.54,0.15h-8.73c-0.29,0-0.49-0.04-0.59-0.13s-0.15-0.27-0.15-0.54
		V12.89c0-0.28,0.05-0.46,0.15-0.54s0.3-0.13,0.59-0.13h8.64c0.28,0,0.46,0.05,0.54,0.15c0.08,0.1,0.13,0.3,0.13,0.59v1.02
		c0,0.29-0.04,0.49-0.13,0.59c-0.09,0.1-0.27,0.15-0.54,0.15h-6.55v4.26h5.95c0.28,0,0.46,0.05,0.54,0.15s0.13,0.3,0.13,0.59v1.02
		c0,0.29-0.04,0.49-0.13,0.59s-0.27,0.15-0.54,0.15h-5.95v4.72h6.65c0.28,0,0.46,0.05,0.54,0.15s0.13,0.3,0.13,0.59V27.97z"/>
	<path d="M133.87,17.57v10.47c0,0.28-0.05,0.46-0.15,0.54c-0.1,0.08-0.3,0.13-0.59,0.13h-1.27c-0.29,0-0.49-0.04-0.59-0.13
		s-0.15-0.27-0.15-0.54V12.89c0-0.28,0.05-0.46,0.15-0.54s0.3-0.13,0.59-0.13h1.34c0.29,0,0.51,0.04,0.64,0.1s0.27,0.25,0.43,0.54
		l5.54,10.49V12.89c0-0.28,0.05-0.46,0.15-0.54s0.3-0.13,0.59-0.13h1.27c0.29,0,0.49,0.04,0.59,0.13c0.1,0.08,0.15,0.27,0.15,0.54
		v15.15c0,0.28-0.05,0.46-0.15,0.54c-0.1,0.08-0.3,0.13-0.59,0.13h-1.34c-0.29,0-0.51-0.04-0.64-0.1c-0.13-0.07-0.27-0.25-0.43-0.54
		L133.87,17.57z"/>
	<path d="M151.35,12.22c0.76,0,1.43,0.08,2.03,0.25s1.12,0.4,1.58,0.68c0.46,0.29,0.84,0.62,1.15,1c0.31,0.38,0.56,0.78,0.74,1.22
		c0.17,0.42,0.3,0.88,0.41,1.4c0.1,0.52,0.15,1.22,0.15,2.1v3.31c0,0.87-0.05,1.55-0.15,2.06s-0.24,0.96-0.41,1.37
		c-0.17,0.42-0.4,0.81-0.69,1.19c-0.29,0.38-0.65,0.71-1.07,1c-0.42,0.29-0.91,0.51-1.47,0.67c-0.56,0.16-1.2,0.24-1.91,0.24h-5.07
		c-0.29,0-0.49-0.04-0.59-0.13s-0.15-0.27-0.15-0.54V12.89c0-0.28,0.05-0.46,0.15-0.54s0.3-0.13,0.59-0.13H151.35z M148.71,26.21
		h2.59c0.52,0,0.98-0.07,1.38-0.2c0.39-0.13,0.73-0.35,1-0.66c0.27-0.31,0.47-0.72,0.61-1.24c0.14-0.52,0.21-1.16,0.21-1.93v-3.43
		c0-0.76-0.07-1.39-0.22-1.91c-0.15-0.52-0.36-0.93-0.63-1.24s-0.6-0.53-1-0.67s-0.85-0.21-1.35-0.21h-2.59V26.21z"/>
	<path d="M163.14,28.04c0,0.28-0.05,0.46-0.15,0.54s-0.3,0.13-0.59,0.13h-1.34c-0.29,0-0.49-0.04-0.59-0.13s-0.15-0.27-0.15-0.54
		V12.89c0-0.28,0.05-0.46,0.15-0.54s0.3-0.13,0.59-0.13h1.34c0.29,0,0.49,0.04,0.59,0.13s0.15,0.27,0.15,0.54V28.04z"/>
	<path d="M171.94,12.22c0.76,0,1.43,0.08,2.03,0.25s1.12,0.4,1.58,0.68c0.46,0.29,0.84,0.62,1.15,1c0.31,0.38,0.56,0.78,0.74,1.22
		c0.17,0.42,0.3,0.88,0.41,1.4c0.1,0.52,0.15,1.22,0.15,2.1v3.31c0,0.87-0.05,1.55-0.15,2.06s-0.24,0.96-0.41,1.37
		c-0.17,0.42-0.4,0.81-0.69,1.19c-0.29,0.38-0.65,0.71-1.07,1c-0.42,0.29-0.91,0.51-1.47,0.67c-0.56,0.16-1.2,0.24-1.91,0.24h-5.07
		c-0.29,0-0.49-0.04-0.59-0.13s-0.15-0.27-0.15-0.54V12.89c0-0.28,0.05-0.46,0.15-0.54s0.3-0.13,0.59-0.13H171.94z M169.3,26.21
		h2.59c0.52,0,0.98-0.07,1.38-0.2c0.39-0.13,0.73-0.35,1-0.66c0.27-0.31,0.47-0.72,0.61-1.24c0.14-0.52,0.21-1.16,0.21-1.93v-3.43
		c0-0.76-0.07-1.39-0.22-1.91c-0.15-0.52-0.36-0.93-0.63-1.24s-0.6-0.53-1-0.67s-0.85-0.21-1.35-0.21h-2.59V26.21z"/>
	<path d="M186.28,28.71c-0.29,0-0.49-0.04-0.59-0.13s-0.15-0.27-0.15-0.54V12.89c0-0.28,0.05-0.46,0.15-0.54s0.3-0.13,0.59-0.13
		h5.33c1.65,0,2.9,0.35,3.75,1.05c0.85,0.7,1.27,1.74,1.27,3.12v0.3c0,0.85-0.21,1.58-0.64,2.18c-0.42,0.6-0.96,0.99-1.61,1.16
		c0.73,0.18,1.32,0.61,1.78,1.26c0.46,0.66,0.69,1.44,0.69,2.35v0.37c0,1.71-0.49,2.93-1.47,3.64s-2.4,1.07-4.25,1.07H186.28z
		 M188.31,18.91h3.1c0.79,0,1.37-0.15,1.75-0.46c0.38-0.31,0.57-0.81,0.57-1.51v-0.3c0-0.69-0.2-1.2-0.6-1.53
		c-0.4-0.32-1.03-0.49-1.9-0.49h-2.92V18.91z M188.31,26.3h2.92c0.85,0,1.51-0.18,1.98-0.53c0.47-0.35,0.71-0.95,0.71-1.78v-0.46
		c0-0.71-0.2-1.27-0.6-1.68c-0.4-0.41-0.98-0.61-1.74-0.61h-3.27V26.3z"/>
	<path d="M200.33,12.22c0.28,0,0.47,0.04,0.58,0.12c0.11,0.08,0.19,0.26,0.25,0.56l2.2,11.37l2.41-11.05
		c0.03-0.17,0.1-0.28,0.22-0.34c0.12-0.05,0.29-0.08,0.52-0.08h1.39c0.23,0,0.41,0.03,0.52,0.08c0.12,0.05,0.19,0.17,0.22,0.34
		l2.18,11.16l2.45-11.49c0.06-0.29,0.15-0.48,0.25-0.56c0.11-0.08,0.3-0.12,0.58-0.12h1.5c0.32,0,0.49,0.14,0.49,0.42
		c0,0.12-0.02,0.28-0.07,0.46l-3.43,15.19c-0.03,0.17-0.11,0.28-0.23,0.34c-0.12,0.05-0.29,0.08-0.51,0.08h-1.78
		c-0.23,0-0.41-0.03-0.52-0.08c-0.12-0.05-0.19-0.17-0.22-0.34l-2.27-10.88l-2.25,10.88c-0.03,0.17-0.1,0.28-0.22,0.34
		c-0.12,0.05-0.29,0.08-0.52,0.08h-1.74c-0.22,0-0.39-0.03-0.51-0.08c-0.12-0.05-0.2-0.17-0.23-0.34l-3.24-15.19
		c-0.05-0.19-0.07-0.34-0.07-0.46c0-0.28,0.16-0.42,0.49-0.42H200.33z"/>
	<path d="M218.98,12.22c0.26,0,0.44,0.04,0.54,0.1s0.21,0.21,0.31,0.43l3.36,6.83l3.31-6.83c0.11-0.22,0.21-0.36,0.31-0.43
		c0.1-0.07,0.28-0.1,0.54-0.1h1.6c0.39,0,0.58,0.12,0.58,0.37c0,0.11-0.02,0.21-0.07,0.3l-4.96,9.57v5.58
		c0,0.28-0.05,0.46-0.15,0.54s-0.3,0.13-0.59,0.13h-1.34c-0.29,0-0.49-0.04-0.59-0.13s-0.15-0.27-0.15-0.54v-5.58l-4.96-9.57
		c-0.05-0.09-0.07-0.19-0.07-0.3c0-0.25,0.19-0.37,0.58-0.37H218.98z"/>
	<path d="M236.9,12.22c0.76,0,1.43,0.08,2.03,0.25c0.59,0.17,1.12,0.4,1.58,0.68c0.46,0.29,0.84,0.62,1.15,1
		c0.31,0.38,0.56,0.78,0.74,1.22c0.17,0.42,0.3,0.88,0.41,1.4c0.1,0.52,0.15,1.22,0.15,2.1v3.31c0,0.87-0.05,1.55-0.15,2.06
		s-0.24,0.96-0.41,1.37c-0.17,0.42-0.4,0.81-0.69,1.19c-0.29,0.38-0.65,0.71-1.07,1c-0.42,0.29-0.91,0.51-1.47,0.67
		s-1.2,0.24-1.91,0.24h-5.07c-0.29,0-0.49-0.04-0.59-0.13s-0.15-0.27-0.15-0.54V12.89c0-0.28,0.05-0.46,0.15-0.54
		s0.3-0.13,0.59-0.13H236.9z M234.26,26.21h2.59c0.53,0,0.98-0.07,1.38-0.2c0.39-0.13,0.73-0.35,1-0.66
		c0.27-0.31,0.47-0.72,0.61-1.24c0.14-0.52,0.21-1.16,0.21-1.93v-3.43c0-0.76-0.07-1.39-0.22-1.91c-0.15-0.52-0.36-0.93-0.63-1.24
		c-0.27-0.31-0.6-0.53-1-0.67s-0.85-0.21-1.36-0.21h-2.59V26.21z"/>
</g>
<g class="st1">
	<path d="M18.62,49.09v6.74c0,0.28-0.05,0.46-0.15,0.54s-0.3,0.13-0.59,0.13h-1.34c-0.29,0-0.49-0.04-0.59-0.13
		s-0.15-0.27-0.15-0.54V40.68c0-0.28,0.05-0.46,0.15-0.54s0.3-0.13,0.59-0.13h8.59c0.28,0,0.46,0.05,0.54,0.15
		c0.08,0.1,0.13,0.3,0.13,0.59v1.02c0,0.29-0.04,0.49-0.13,0.59c-0.08,0.1-0.27,0.15-0.54,0.15h-6.51v4.08h5.91
		c0.28,0,0.46,0.05,0.54,0.15s0.13,0.3,0.13,0.59v1.02c0,0.29-0.04,0.49-0.13,0.59s-0.27,0.15-0.54,0.15H18.62z"/>
	<path d="M34.05,39.64c1.37,0,2.53,0.27,3.46,0.8c0.93,0.53,1.62,1.32,2.07,2.35c0.2,0.45,0.34,0.95,0.42,1.51s0.12,1.27,0.12,2.15
		v3.38c0,0.8-0.04,1.49-0.13,2.07c-0.09,0.58-0.22,1.11-0.41,1.59c-0.45,1.11-1.14,1.95-2.07,2.52s-2.09,0.86-3.46,0.86
		s-2.53-0.27-3.46-0.8c-0.93-0.53-1.62-1.32-2.07-2.35c-0.2-0.45-0.34-0.95-0.42-1.5c-0.08-0.56-0.12-1.27-0.12-2.15v-3.38
		c0-0.8,0.04-1.49,0.13-2.07s0.22-1.11,0.41-1.59c0.45-1.11,1.14-1.95,2.07-2.52C31.52,39.93,32.67,39.64,34.05,39.64z M34.05,42.12
		c-1.14,0-1.96,0.32-2.44,0.97c-0.49,0.65-0.73,1.72-0.73,3.22v3.89c0,1.5,0.24,2.57,0.73,3.22s1.3,0.97,2.44,0.97
		s1.96-0.32,2.44-0.97c0.49-0.65,0.73-1.72,0.73-3.22v-3.89c0-1.5-0.24-2.57-0.73-3.22C36,42.44,35.19,42.12,34.05,42.12z"/>
	<path d="M48.68,39.64c1.37,0,2.53,0.27,3.46,0.8c0.93,0.53,1.62,1.32,2.07,2.35c0.2,0.45,0.34,0.95,0.42,1.51s0.12,1.27,0.12,2.15
		v3.38c0,0.8-0.04,1.49-0.13,2.07c-0.09,0.58-0.22,1.11-0.41,1.59c-0.45,1.11-1.14,1.95-2.07,2.52s-2.09,0.86-3.46,0.86
		s-2.53-0.27-3.46-0.8c-0.93-0.53-1.62-1.32-2.07-2.35c-0.2-0.45-0.34-0.95-0.42-1.5c-0.08-0.56-0.12-1.27-0.12-2.15v-3.38
		c0-0.8,0.04-1.49,0.13-2.07s0.22-1.11,0.41-1.59c0.45-1.11,1.14-1.95,2.07-2.52C46.16,39.93,47.31,39.64,48.68,39.64z M48.68,42.12
		c-1.14,0-1.96,0.32-2.44,0.97c-0.49,0.65-0.73,1.72-0.73,3.22v3.89c0,1.5,0.24,2.57,0.73,3.22s1.3,0.97,2.44,0.97
		s1.96-0.32,2.44-0.97c0.49-0.65,0.73-1.72,0.73-3.22v-3.89c0-1.5-0.24-2.57-0.73-3.22C50.64,42.44,49.83,42.12,48.68,42.12z"/>
	<path d="M63.14,40.01c0.76,0,1.43,0.08,2.03,0.25s1.12,0.4,1.58,0.68c0.46,0.29,0.84,0.62,1.15,1c0.31,0.38,0.56,0.78,0.74,1.22
		c0.17,0.42,0.3,0.88,0.41,1.4c0.1,0.52,0.15,1.22,0.15,2.1v3.31c0,0.87-0.05,1.55-0.15,2.06S68.79,53,68.62,53.4
		c-0.17,0.42-0.4,0.81-0.69,1.19c-0.29,0.38-0.65,0.71-1.07,1c-0.42,0.29-0.91,0.51-1.47,0.67c-0.56,0.16-1.2,0.24-1.91,0.24h-5.07
		c-0.29,0-0.49-0.04-0.59-0.13s-0.15-0.27-0.15-0.54V40.68c0-0.28,0.05-0.46,0.15-0.54s0.3-0.13,0.59-0.13H63.14z M60.5,54h2.59
		c0.52,0,0.98-0.07,1.38-0.2c0.39-0.13,0.73-0.35,1-0.66c0.27-0.31,0.47-0.72,0.61-1.24c0.14-0.52,0.21-1.16,0.21-1.93v-3.43
		c0-0.76-0.07-1.39-0.22-1.91c-0.15-0.52-0.36-0.93-0.63-1.24s-0.6-0.53-1-0.67s-0.85-0.21-1.35-0.21H60.5V54z"/>
	<path d="M88.63,55.83c0,0.28-0.05,0.46-0.15,0.54c-0.1,0.08-0.3,0.13-0.59,0.13h-1.34c-0.29,0-0.49-0.04-0.59-0.13
		c-0.1-0.08-0.15-0.27-0.15-0.54v-6.72h-6.25v6.72c0,0.28-0.05,0.46-0.15,0.54s-0.3,0.13-0.59,0.13h-1.34
		c-0.29,0-0.49-0.04-0.59-0.13s-0.15-0.27-0.15-0.54V40.68c0-0.28,0.05-0.46,0.15-0.54s0.3-0.13,0.59-0.13h1.34
		c0.29,0,0.49,0.04,0.59,0.13s0.15,0.27,0.15,0.54v5.93h6.25v-5.93c0-0.28,0.05-0.46,0.15-0.54c0.1-0.08,0.3-0.13,0.59-0.13h1.34
		c0.29,0,0.49,0.04,0.59,0.13c0.1,0.08,0.15,0.27,0.15,0.54V55.83z"/>
	<path d="M92.85,40.01c0.26,0,0.44,0.04,0.54,0.1c0.1,0.07,0.2,0.21,0.31,0.43l3.36,6.83l3.31-6.83c0.11-0.22,0.21-0.36,0.31-0.43
		c0.1-0.07,0.28-0.1,0.54-0.1h1.6c0.39,0,0.58,0.12,0.58,0.37c0,0.11-0.02,0.21-0.07,0.3l-4.96,9.57v5.58
		c0,0.28-0.05,0.46-0.15,0.54s-0.3,0.13-0.59,0.13H96.3c-0.29,0-0.49-0.04-0.59-0.13s-0.15-0.27-0.15-0.54v-5.58l-4.96-9.57
		c-0.05-0.09-0.07-0.19-0.07-0.3c0-0.25,0.19-0.37,0.58-0.37H92.85z"/>
</g>
<g class="st1">
	<path d="M104.13,46.68c0-1.59,0.18-2.81,0.53-3.66c0.45-1.11,1.17-1.95,2.17-2.52c1-0.57,2.19-0.86,3.58-0.86
		c0.79,0,1.53,0.1,2.23,0.29c0.7,0.19,1.32,0.49,1.84,0.89c0.52,0.4,0.94,0.92,1.25,1.54c0.31,0.63,0.46,1.37,0.46,2.24
		c0,0.22-0.05,0.36-0.16,0.44s-0.3,0.12-0.58,0.12h-1.44c-0.28,0-0.47-0.04-0.57-0.12c-0.1-0.08-0.16-0.23-0.17-0.46
		c-0.06-0.88-0.34-1.51-0.83-1.9s-1.24-0.58-2.22-0.58c-0.57,0-1.06,0.07-1.46,0.2c-0.4,0.13-0.73,0.36-0.98,0.68
		s-0.44,0.76-0.57,1.3c-0.12,0.54-0.19,1.22-0.19,2.04v3.89c0,1.56,0.26,2.66,0.78,3.29c0.52,0.63,1.32,0.95,2.42,0.95
		c1.02,0,1.79-0.26,2.32-0.79c0.52-0.52,0.79-1.42,0.79-2.69v-0.44h-1.78c-0.28,0-0.46-0.05-0.54-0.15c-0.08-0.1-0.13-0.3-0.13-0.59
		v-1.02c0-0.29,0.04-0.49,0.13-0.59c0.08-0.1,0.27-0.15,0.54-0.15h3.91c0.29,0,0.49,0.04,0.59,0.13c0.1,0.09,0.15,0.27,0.15,0.54
		v2.62c0,0.76-0.12,1.47-0.36,2.14c-0.24,0.67-0.61,1.26-1.1,1.77c-0.49,0.51-1.12,0.91-1.88,1.2c-0.76,0.29-1.64,0.44-2.66,0.44
		c-1.5,0-2.68-0.27-3.55-0.82c-0.87-0.55-1.53-1.32-1.98-2.33c-0.2-0.45-0.34-0.95-0.42-1.49c-0.08-0.55-0.12-1.27-0.12-2.17V46.68z
		"/>
	<path d="M121.94,55.83c0,0.28-0.05,0.46-0.15,0.54s-0.3,0.13-0.59,0.13h-1.34c-0.29,0-0.49-0.04-0.59-0.13s-0.15-0.27-0.15-0.54
		V40.68c0-0.28,0.05-0.46,0.15-0.54s0.3-0.13,0.59-0.13h1.34c0.29,0,0.49,0.04,0.59,0.13s0.15,0.27,0.15,0.54V55.83z"/>
	<path d="M135.42,55.76c0,0.29-0.04,0.49-0.13,0.59s-0.27,0.15-0.54,0.15h-8.73c-0.29,0-0.49-0.04-0.59-0.13s-0.15-0.27-0.15-0.54
		V40.68c0-0.28,0.05-0.46,0.15-0.54s0.3-0.13,0.59-0.13h8.64c0.28,0,0.46,0.05,0.54,0.15c0.08,0.1,0.13,0.3,0.13,0.59v1.02
		c0,0.29-0.04,0.49-0.13,0.59c-0.09,0.1-0.27,0.15-0.54,0.15h-6.55v4.26h5.95c0.28,0,0.46,0.05,0.54,0.15s0.13,0.3,0.13,0.59v1.02
		c0,0.29-0.04,0.49-0.13,0.59s-0.27,0.15-0.54,0.15h-5.95V54h6.65c0.28,0,0.46,0.05,0.54,0.15s0.13,0.3,0.13,0.59V55.76z"/>
	<path d="M141.09,45.36v10.47c0,0.28-0.05,0.46-0.15,0.54c-0.1,0.08-0.3,0.13-0.59,0.13h-1.27c-0.29,0-0.49-0.04-0.59-0.13
		s-0.15-0.27-0.15-0.54V40.68c0-0.28,0.05-0.46,0.15-0.54s0.3-0.13,0.59-0.13h1.34c0.29,0,0.51,0.04,0.64,0.1s0.27,0.25,0.43,0.54
		l5.54,10.49V40.68c0-0.28,0.05-0.46,0.15-0.54s0.3-0.13,0.59-0.13h1.27c0.29,0,0.49,0.04,0.59,0.13c0.1,0.08,0.15,0.27,0.15,0.54
		v15.15c0,0.28-0.05,0.46-0.15,0.54c-0.1,0.08-0.3,0.13-0.59,0.13h-1.34c-0.29,0-0.51-0.04-0.64-0.1c-0.13-0.07-0.27-0.25-0.43-0.54
		L141.09,45.36z"/>
	<path d="M163.26,55.76c0,0.29-0.04,0.49-0.13,0.59s-0.27,0.15-0.54,0.15h-8.73c-0.29,0-0.49-0.04-0.59-0.13s-0.15-0.27-0.15-0.54
		V40.68c0-0.28,0.05-0.46,0.15-0.54s0.3-0.13,0.59-0.13h8.64c0.28,0,0.46,0.05,0.54,0.15c0.08,0.1,0.13,0.3,0.13,0.59v1.02
		c0,0.29-0.04,0.49-0.13,0.59c-0.09,0.1-0.27,0.15-0.54,0.15h-6.55v4.26h5.95c0.28,0,0.46,0.05,0.54,0.15s0.13,0.3,0.13,0.59v1.02
		c0,0.29-0.04,0.49-0.13,0.59s-0.27,0.15-0.54,0.15h-5.95V54h6.65c0.28,0,0.46,0.05,0.54,0.15s0.13,0.3,0.13,0.59V55.76z"/>
	<path d="M173.59,50.06v5.77c0,0.26-0.05,0.44-0.14,0.53c-0.09,0.09-0.29,0.14-0.6,0.14h-1.3c-0.31,0-0.51-0.05-0.6-0.14
		c-0.09-0.09-0.14-0.27-0.14-0.53V40.68c0-0.26,0.05-0.44,0.14-0.53c0.09-0.09,0.29-0.14,0.6-0.14h4.96c1.84,0,3.18,0.38,4.03,1.15
		c0.85,0.76,1.27,1.99,1.27,3.67v0.44c0,2.35-0.93,3.83-2.8,4.45l3.45,6.11c0.06,0.12,0.09,0.22,0.09,0.3c0,0.25-0.2,0.37-0.6,0.37
		h-1.74c-0.26,0-0.45-0.04-0.57-0.13s-0.25-0.27-0.41-0.54l-3.13-5.77H173.59z M173.59,47.65h2.9c0.9,0,1.53-0.18,1.9-0.54
		c0.37-0.36,0.56-0.98,0.56-1.86v-0.32c0-0.93-0.18-1.58-0.54-1.95c-0.36-0.37-1-0.56-1.91-0.56h-2.9V47.65z"/>
	<path d="M197.53,55.83c0.03,0.12,0.05,0.21,0.05,0.25c0,0.28-0.17,0.42-0.51,0.42h-1.62c-0.29,0-0.48-0.04-0.57-0.13
		c-0.08-0.08-0.17-0.27-0.27-0.54l-1.07-3.27h-6.07l-1.04,3.29c-0.09,0.28-0.18,0.46-0.27,0.53c-0.08,0.08-0.27,0.12-0.57,0.12
		h-1.53c-0.34,0-0.51-0.14-0.51-0.42c0-0.05,0.02-0.13,0.05-0.25l5.21-15.4c0.06-0.19,0.15-0.3,0.25-0.35
		c0.11-0.05,0.27-0.07,0.49-0.07h2.08c0.22,0,0.38,0.02,0.49,0.07c0.11,0.05,0.19,0.16,0.25,0.35L197.53,55.83z M188.25,50.15h4.52
		l-2.27-7.04L188.25,50.15z"/>
</g>
<g class="st1">
	<path d="M201.17,42.51h-4.05c-0.28,0-0.46-0.05-0.54-0.15c-0.09-0.1-0.13-0.3-0.13-0.59v-1.02c0-0.29,0.04-0.49,0.13-0.59
		c0.08-0.1,0.27-0.15,0.54-0.15h10.93c0.28,0,0.46,0.05,0.54,0.15c0.08,0.1,0.13,0.3,0.13,0.59v1.02c0,0.29-0.04,0.49-0.13,0.59
		c-0.09,0.1-0.27,0.15-0.54,0.15h-4.05v13.32c0,0.28-0.05,0.46-0.15,0.54c-0.1,0.08-0.3,0.13-0.59,0.13h-1.34
		c-0.29,0-0.49-0.04-0.59-0.13c-0.1-0.08-0.15-0.27-0.15-0.54V42.51z"/>
	<path d="M213.67,55.83c0,0.28-0.05,0.46-0.15,0.54s-0.3,0.13-0.59,0.13h-1.34c-0.29,0-0.49-0.04-0.59-0.13s-0.15-0.27-0.15-0.54
		V40.68c0-0.28,0.05-0.46,0.15-0.54s0.3-0.13,0.59-0.13h1.34c0.29,0,0.49,0.04,0.59,0.13s0.15,0.27,0.15,0.54V55.83z"/>
	<path d="M219.76,45.36v10.47c0,0.28-0.05,0.46-0.15,0.54s-0.3,0.13-0.59,0.13h-1.27c-0.29,0-0.49-0.04-0.59-0.13
		s-0.15-0.27-0.15-0.54V40.68c0-0.28,0.05-0.46,0.15-0.54s0.3-0.13,0.59-0.13h1.34c0.29,0,0.5,0.04,0.64,0.1
		c0.13,0.07,0.27,0.25,0.43,0.54l5.54,10.49V40.68c0-0.28,0.05-0.46,0.15-0.54c0.1-0.08,0.3-0.13,0.59-0.13h1.27
		c0.29,0,0.49,0.04,0.59,0.13c0.1,0.08,0.15,0.27,0.15,0.54v15.15c0,0.28-0.05,0.46-0.15,0.54c-0.1,0.08-0.3,0.13-0.59,0.13h-1.34
		c-0.29,0-0.51-0.04-0.64-0.1s-0.27-0.25-0.43-0.54L219.76,45.36z"/>
	<path d="M231.37,46.68c0-1.59,0.18-2.81,0.53-3.66c0.45-1.11,1.17-1.95,2.17-2.52c1-0.57,2.19-0.86,3.58-0.86
		c0.79,0,1.53,0.1,2.23,0.29c0.7,0.19,1.32,0.49,1.84,0.89c0.52,0.4,0.94,0.92,1.25,1.54c0.31,0.63,0.46,1.37,0.46,2.24
		c0,0.22-0.05,0.36-0.16,0.44c-0.11,0.08-0.3,0.12-0.58,0.12h-1.44c-0.28,0-0.47-0.04-0.57-0.12c-0.1-0.08-0.16-0.23-0.17-0.46
		c-0.06-0.88-0.34-1.51-0.83-1.9s-1.23-0.58-2.22-0.58c-0.57,0-1.06,0.07-1.46,0.2c-0.4,0.13-0.73,0.36-0.98,0.68
		s-0.44,0.76-0.57,1.3c-0.12,0.54-0.19,1.22-0.19,2.04v3.89c0,1.56,0.26,2.66,0.78,3.29c0.52,0.63,1.32,0.95,2.42,0.95
		c1.02,0,1.79-0.26,2.32-0.79c0.52-0.52,0.79-1.42,0.79-2.69v-0.44h-1.78c-0.28,0-0.46-0.05-0.54-0.15c-0.08-0.1-0.13-0.3-0.13-0.59
		v-1.02c0-0.29,0.04-0.49,0.13-0.59c0.08-0.1,0.27-0.15,0.54-0.15h3.91c0.29,0,0.49,0.04,0.59,0.13c0.1,0.09,0.15,0.27,0.15,0.54
		v2.62c0,0.76-0.12,1.47-0.36,2.14c-0.24,0.67-0.61,1.26-1.1,1.77c-0.49,0.51-1.12,0.91-1.88,1.2c-0.76,0.29-1.64,0.44-2.66,0.44
		c-1.5,0-2.68-0.27-3.55-0.82c-0.87-0.55-1.53-1.32-1.98-2.33c-0.2-0.45-0.34-0.95-0.42-1.49c-0.08-0.55-0.12-1.27-0.12-2.17V46.68z
		"/>
</g>
<g>
	<polyline points="260.38,69.45 1,69.45 1,67.97 260.38,67.97 260.38,69.45 	"/>
</g>
<g>
	<polyline points="0.5,69.45 0.35,69.45 0.35,67.97 0.5,67.97 0.5,69.45 	"/>
</g>
<g>
	<polyline points="1,69.45 0.5,69.45 0.5,67.97 1,67.97 1,69.45 	"/>
</g>
<g>
	<path d="M428,123.35V14.48c0-8-4.69-14.47-10.48-14.47H259.31v137.81h158.24c5.79,0,10.48-6.48,10.48-14.47H428z"/>
</g>
<g class="st1">
	<path class="st2" d="M313.49,47.08c0.65,0,1.24,0.07,1.75,0.22c0.51,0.15,0.97,0.34,1.36,0.59c0.39,0.25,0.72,0.53,0.99,0.86
		c0.27,0.33,0.48,0.68,0.64,1.05c0.15,0.36,0.26,0.76,0.35,1.21c0.09,0.45,0.13,1.05,0.13,1.81v2.86c0,0.75-0.04,1.34-0.13,1.78
		c-0.09,0.44-0.2,0.83-0.35,1.18c-0.15,0.36-0.35,0.7-0.6,1.03c-0.25,0.33-0.56,0.61-0.92,0.86c-0.36,0.25-0.78,0.44-1.27,0.58
		c-0.49,0.14-1.04,0.21-1.65,0.21h-4.38c-0.25,0-0.42-0.04-0.51-0.11c-0.09-0.07-0.13-0.23-0.13-0.47V47.66
		c0-0.24,0.04-0.4,0.13-0.47s0.26-0.11,0.51-0.11H313.49z M311.21,59.16h2.24c0.45,0,0.85-0.06,1.19-0.17s0.63-0.3,0.86-0.57
		c0.23-0.27,0.41-0.62,0.53-1.07c0.12-0.45,0.18-1,0.18-1.67v-2.96c0-0.65-0.06-1.2-0.19-1.65c-0.13-0.45-0.31-0.8-0.54-1.07
		c-0.23-0.27-0.52-0.46-0.86-0.58c-0.34-0.12-0.73-0.18-1.17-0.18h-2.24V59.16z"/>
	<path class="st2" d="M331.57,60.74c0.03,0.11,0.04,0.18,0.04,0.22c0,0.24-0.15,0.36-0.44,0.36h-1.4c-0.25,0-0.42-0.04-0.49-0.11
		c-0.07-0.07-0.15-0.23-0.23-0.47l-0.92-2.82h-5.24l-0.9,2.84c-0.08,0.24-0.16,0.39-0.23,0.46c-0.07,0.07-0.24,0.1-0.49,0.1h-1.32
		c-0.29,0-0.44-0.12-0.44-0.36c0-0.04,0.01-0.11,0.04-0.22l4.5-13.3c0.05-0.16,0.13-0.26,0.22-0.3c0.09-0.04,0.23-0.06,0.42-0.06
		h1.8c0.19,0,0.33,0.02,0.42,0.06s0.17,0.14,0.22,0.3L331.57,60.74z M323.55,55.84h3.9l-1.96-6.08L323.55,55.84z"/>
</g>
<g class="st1">
	<path class="st2" d="M339.86,60.74c0,0.24-0.04,0.4-0.13,0.47c-0.09,0.07-0.26,0.11-0.51,0.11h-1.16c-0.25,0-0.42-0.04-0.51-0.11
		c-0.09-0.07-0.13-0.23-0.13-0.47V47.66c0-0.24,0.04-0.4,0.13-0.47s0.26-0.11,0.51-0.11h1.16c0.25,0,0.42,0.04,0.51,0.11
		c0.09,0.07,0.13,0.23,0.13,0.47V60.74z"/>
	<path class="st2" d="M353.56,60.74c0.03,0.11,0.04,0.18,0.04,0.22c0,0.24-0.15,0.36-0.44,0.36h-1.4c-0.25,0-0.42-0.04-0.49-0.11
		c-0.07-0.07-0.15-0.23-0.23-0.47l-0.92-2.82h-5.24l-0.9,2.84c-0.08,0.24-0.16,0.39-0.23,0.46c-0.07,0.07-0.24,0.1-0.49,0.1h-1.32
		c-0.29,0-0.44-0.12-0.44-0.36c0-0.04,0.01-0.11,0.04-0.22l4.5-13.3c0.05-0.16,0.13-0.26,0.22-0.3c0.09-0.04,0.23-0.06,0.42-0.06
		h1.8c0.19,0,0.33,0.02,0.42,0.06c0.09,0.04,0.17,0.14,0.22,0.3L353.56,60.74z M345.54,55.84h3.9l-1.96-6.08L345.54,55.84z"/>
</g>
<g class="st1">
	<path class="st2" d="M354.84,47.08c0.24,0,0.41,0.03,0.5,0.1c0.09,0.07,0.17,0.23,0.22,0.48l1.9,9.82l2.08-9.54
		c0.03-0.15,0.09-0.24,0.19-0.29c0.1-0.05,0.25-0.07,0.45-0.07h1.2c0.2,0,0.35,0.02,0.45,0.07s0.16,0.14,0.19,0.29l1.88,9.64
		l2.12-9.92c0.05-0.25,0.13-0.41,0.22-0.48c0.09-0.07,0.26-0.1,0.5-0.1h1.3c0.28,0,0.42,0.12,0.42,0.36c0,0.11-0.02,0.24-0.06,0.4
		l-2.96,13.12c-0.03,0.15-0.09,0.24-0.2,0.29c-0.11,0.05-0.25,0.07-0.44,0.07h-1.54c-0.2,0-0.35-0.02-0.45-0.07
		c-0.1-0.05-0.16-0.14-0.19-0.29l-1.96-9.4l-1.94,9.4c-0.03,0.15-0.09,0.24-0.19,0.29c-0.1,0.05-0.25,0.07-0.45,0.07h-1.5
		c-0.19,0-0.33-0.02-0.44-0.07c-0.11-0.05-0.17-0.14-0.2-0.29l-2.8-13.12c-0.04-0.16-0.06-0.29-0.06-0.4c0-0.24,0.14-0.36,0.42-0.36
		H354.84z"/>
	<path class="st2" d="M372.56,51.7v9.04c0,0.24-0.04,0.4-0.13,0.47c-0.09,0.07-0.26,0.11-0.51,0.11h-1.1
		c-0.25,0-0.42-0.04-0.51-0.11c-0.09-0.07-0.13-0.23-0.13-0.47V47.66c0-0.24,0.04-0.4,0.13-0.47s0.26-0.11,0.51-0.11h1.16
		c0.25,0,0.44,0.03,0.55,0.09c0.11,0.06,0.24,0.22,0.37,0.47l4.78,9.06v-9.04c0-0.24,0.04-0.4,0.13-0.47s0.26-0.11,0.51-0.11h1.1
		c0.25,0,0.42,0.04,0.51,0.11s0.13,0.23,0.13,0.47v13.08c0,0.24-0.04,0.4-0.13,0.47c-0.09,0.07-0.26,0.11-0.51,0.11h-1.16
		c-0.25,0-0.44-0.03-0.55-0.09c-0.11-0.06-0.24-0.22-0.37-0.47L372.56,51.7z"/>
</g>
<g class="st1">
	<path class="st2" d="M294.44,76.67c-0.03-0.11-0.04-0.18-0.04-0.22c0-0.24,0.15-0.36,0.44-0.36h1.44c0.25,0,0.42,0.04,0.5,0.11
		s0.15,0.23,0.22,0.47l3.06,10.64l3.06-10.64c0.07-0.24,0.14-0.4,0.22-0.47s0.25-0.11,0.5-0.11h1.38c0.29,0,0.44,0.12,0.44,0.36
		c0,0.04-0.01,0.11-0.04,0.22l-4.06,13.3c-0.05,0.16-0.13,0.26-0.22,0.3c-0.09,0.04-0.23,0.06-0.42,0.06h-1.78
		c-0.19,0-0.33-0.02-0.42-0.06s-0.17-0.14-0.22-0.3L294.44,76.67z"/>
	<path class="st2" d="M316.14,89.69c0,0.25-0.04,0.42-0.11,0.51s-0.23,0.13-0.47,0.13h-7.54c-0.25,0-0.42-0.04-0.51-0.11
		c-0.09-0.07-0.13-0.23-0.13-0.47V76.67c0-0.24,0.04-0.4,0.13-0.47s0.26-0.11,0.51-0.11h7.46c0.24,0,0.4,0.04,0.47,0.13
		c0.07,0.09,0.11,0.26,0.11,0.51v0.88c0,0.25-0.04,0.42-0.11,0.51s-0.23,0.13-0.47,0.13h-5.66v3.68h5.14c0.24,0,0.4,0.04,0.47,0.13
		c0.07,0.09,0.11,0.26,0.11,0.51v0.88c0,0.25-0.04,0.42-0.11,0.51s-0.23,0.13-0.47,0.13h-5.14v4.08h5.74c0.24,0,0.4,0.04,0.47,0.13
		c0.07,0.09,0.11,0.26,0.11,0.51V89.69z"/>
	<path class="st2" d="M321.06,84.77v4.98c0,0.23-0.04,0.38-0.12,0.46s-0.25,0.12-0.52,0.12h-1.12c-0.27,0-0.44-0.04-0.52-0.12
		s-0.12-0.23-0.12-0.46V76.67c0-0.23,0.04-0.38,0.12-0.46s0.25-0.12,0.52-0.12h4.28c1.59,0,2.75,0.33,3.48,0.99s1.1,1.72,1.1,3.17
		v0.38c0,2.03-0.81,3.31-2.42,3.84l2.98,5.28c0.05,0.11,0.08,0.19,0.08,0.26c0,0.21-0.17,0.32-0.52,0.32h-1.5
		c-0.23,0-0.39-0.04-0.49-0.11c-0.1-0.07-0.22-0.23-0.35-0.47l-2.7-4.98H321.06z M321.06,82.69h2.5c0.77,0,1.32-0.16,1.64-0.47
		c0.32-0.31,0.48-0.85,0.48-1.61v-0.28c0-0.8-0.16-1.36-0.47-1.68c-0.31-0.32-0.86-0.48-1.65-0.48h-2.5V82.69z"/>
</g>
<g class="st1">
	<path class="st2" d="M331.08,76.09c0.23,0,0.38,0.03,0.47,0.09c0.09,0.06,0.18,0.18,0.27,0.37l2.9,5.9l2.86-5.9
		c0.09-0.19,0.18-0.31,0.27-0.37c0.09-0.06,0.24-0.09,0.47-0.09h1.38c0.33,0,0.5,0.11,0.5,0.32c0,0.09-0.02,0.18-0.06,0.26
		l-4.28,8.26v4.82c0,0.24-0.04,0.4-0.13,0.47c-0.09,0.07-0.26,0.11-0.51,0.11h-1.16c-0.25,0-0.42-0.04-0.51-0.11
		c-0.09-0.07-0.13-0.23-0.13-0.47v-4.82l-4.28-8.26c-0.04-0.08-0.06-0.17-0.06-0.26c0-0.21,0.17-0.32,0.5-0.32H331.08z"/>
	<path class="st2" d="M345.48,81.85c0-1.37,0.15-2.43,0.46-3.16c0.39-0.96,1.01-1.69,1.87-2.18c0.86-0.49,1.89-0.74,3.09-0.74
		c0.68,0,1.32,0.08,1.93,0.25c0.61,0.17,1.14,0.42,1.59,0.77c0.45,0.35,0.81,0.79,1.08,1.33c0.27,0.54,0.4,1.18,0.4,1.93
		c0,0.19-0.05,0.31-0.14,0.38c-0.09,0.07-0.26,0.1-0.5,0.1h-1.24c-0.24,0-0.4-0.03-0.49-0.1c-0.09-0.07-0.14-0.2-0.15-0.4
		c-0.05-0.76-0.29-1.31-0.72-1.64c-0.43-0.33-1.07-0.5-1.92-0.5c-0.49,0-0.91,0.06-1.26,0.17s-0.63,0.31-0.85,0.59
		c-0.22,0.28-0.38,0.65-0.49,1.12s-0.16,1.05-0.16,1.76v3.36c0,1.35,0.22,2.29,0.67,2.84c0.45,0.55,1.14,0.82,2.09,0.82
		c0.88,0,1.55-0.23,2-0.68s0.68-1.23,0.68-2.32v-0.38h-1.54c-0.24,0-0.4-0.04-0.47-0.13s-0.11-0.26-0.11-0.51v-0.88
		c0-0.25,0.04-0.42,0.11-0.51c0.07-0.09,0.23-0.13,0.47-0.13h3.38c0.25,0,0.42,0.04,0.51,0.11s0.13,0.23,0.13,0.47v2.26
		c0,0.65-0.1,1.27-0.31,1.85c-0.21,0.58-0.52,1.09-0.95,1.53c-0.43,0.44-0.97,0.79-1.62,1.04c-0.65,0.25-1.42,0.38-2.3,0.38
		c-1.29,0-2.32-0.24-3.07-0.71c-0.75-0.47-1.32-1.14-1.71-2.01c-0.17-0.39-0.29-0.82-0.36-1.29c-0.07-0.47-0.1-1.1-0.1-1.87V81.85z"
		/>
	<path class="st2" d="M363.3,75.77c1.19,0,2.18,0.23,2.99,0.69c0.81,0.46,1.4,1.14,1.79,2.03c0.17,0.39,0.29,0.82,0.36,1.3
		c0.07,0.48,0.1,1.1,0.1,1.86v2.92c0,0.69-0.04,1.29-0.11,1.79s-0.19,0.96-0.35,1.37c-0.39,0.96-0.98,1.69-1.79,2.18
		c-0.81,0.49-1.8,0.74-2.99,0.74s-2.18-0.23-2.99-0.69s-1.4-1.14-1.79-2.03c-0.17-0.39-0.29-0.82-0.36-1.3
		c-0.07-0.48-0.1-1.1-0.1-1.86v-2.92c0-0.69,0.04-1.29,0.11-1.79s0.19-0.96,0.35-1.37c0.39-0.96,0.98-1.69,1.79-2.18
		C361.12,76.02,362.11,75.77,363.3,75.77z M363.3,77.91c-0.99,0-1.69,0.28-2.11,0.84c-0.42,0.56-0.63,1.49-0.63,2.78v3.36
		c0,1.29,0.21,2.22,0.63,2.78c0.42,0.56,1.12,0.84,2.11,0.84c0.99,0,1.69-0.28,2.11-0.84c0.42-0.56,0.63-1.49,0.63-2.78v-3.36
		c0-1.29-0.21-2.22-0.63-2.78C364.99,78.19,364.29,77.91,363.3,77.91z"/>
	<path class="st2" d="M375.94,75.77c1.19,0,2.18,0.23,2.99,0.69c0.81,0.46,1.4,1.14,1.79,2.03c0.17,0.39,0.29,0.82,0.36,1.3
		c0.07,0.48,0.1,1.1,0.1,1.86v2.92c0,0.69-0.04,1.29-0.11,1.79s-0.19,0.96-0.35,1.37c-0.39,0.96-0.98,1.69-1.79,2.18
		c-0.81,0.49-1.8,0.74-2.99,0.74s-2.18-0.23-2.99-0.69s-1.4-1.14-1.79-2.03c-0.17-0.39-0.29-0.82-0.36-1.3
		c-0.07-0.48-0.1-1.1-0.1-1.86v-2.92c0-0.69,0.04-1.29,0.11-1.79s0.19-0.96,0.35-1.37c0.39-0.96,0.98-1.69,1.79-2.18
		C373.76,76.02,374.75,75.77,375.94,75.77z M375.94,77.91c-0.99,0-1.69,0.28-2.11,0.84c-0.42,0.56-0.63,1.49-0.63,2.78v3.36
		c0,1.29,0.21,2.22,0.63,2.78c0.42,0.56,1.12,0.84,2.11,0.84c0.99,0,1.69-0.28,2.11-0.84c0.42-0.56,0.63-1.49,0.63-2.78v-3.36
		c0-1.29-0.21-2.22-0.63-2.78C377.63,78.19,376.93,77.91,375.94,77.91z"/>
	<path class="st2" d="M388.42,76.09c0.65,0,1.24,0.07,1.75,0.22c0.51,0.15,0.97,0.34,1.36,0.59c0.39,0.25,0.72,0.53,0.99,0.86
		c0.27,0.33,0.48,0.68,0.64,1.05c0.15,0.36,0.26,0.76,0.35,1.21c0.09,0.45,0.13,1.05,0.13,1.81v2.86c0,0.75-0.04,1.34-0.13,1.78
		c-0.09,0.44-0.2,0.83-0.35,1.18c-0.15,0.36-0.35,0.7-0.6,1.03c-0.25,0.33-0.56,0.61-0.92,0.86c-0.36,0.25-0.78,0.44-1.27,0.58
		c-0.49,0.14-1.04,0.21-1.65,0.21h-4.38c-0.25,0-0.42-0.04-0.51-0.11c-0.09-0.07-0.13-0.23-0.13-0.47V76.67
		c0-0.24,0.04-0.4,0.13-0.47s0.26-0.11,0.51-0.11H388.42z M386.14,88.17h2.24c0.45,0,0.85-0.06,1.19-0.17s0.63-0.3,0.86-0.57
		c0.23-0.27,0.41-0.62,0.53-1.07c0.12-0.45,0.18-1,0.18-1.67v-2.96c0-0.65-0.06-1.2-0.19-1.65c-0.13-0.45-0.31-0.8-0.54-1.07
		c-0.23-0.27-0.52-0.46-0.86-0.58c-0.34-0.12-0.73-0.18-1.17-0.18h-2.24V88.17z"/>
</g>
<g class="st1">
	<path d="M31.09,109.59c-1.87,0-3.13-0.76-3.76-2.27c-0.14-0.32-0.23-0.66-0.29-1.03c-0.06-0.37-0.08-0.85-0.08-1.44v-2.2
		c0-0.61,0.03-1.11,0.08-1.49s0.15-0.74,0.29-1.07c0.63-1.57,1.88-2.35,3.76-2.35s3.13,0.76,3.76,2.27
		c0.14,0.32,0.23,0.66,0.29,1.03c0.06,0.37,0.08,0.85,0.08,1.44v2.2c0,0.61-0.03,1.11-0.08,1.49c-0.06,0.38-0.15,0.74-0.29,1.07
		C34.22,108.8,32.96,109.59,31.09,109.59z M31.09,99.62c-0.37,0-0.69,0.05-0.94,0.15s-0.46,0.26-0.62,0.48
		c-0.16,0.22-0.27,0.51-0.34,0.86c-0.07,0.36-0.1,0.79-0.1,1.29v2.51c0,0.52,0.03,0.96,0.1,1.31c0.07,0.36,0.18,0.64,0.34,0.86
		c0.16,0.22,0.36,0.38,0.62,0.47s0.57,0.14,0.94,0.14s0.69-0.05,0.94-0.14s0.46-0.25,0.62-0.47c0.16-0.22,0.27-0.51,0.34-0.86
		c0.07-0.36,0.1-0.79,0.1-1.31v-2.51c0-0.51-0.03-0.94-0.1-1.29c-0.07-0.36-0.18-0.64-0.34-0.86c-0.16-0.22-0.36-0.38-0.62-0.48
		S31.46,99.62,31.09,99.62z"/>
</g>
<g>
	<polyline class="st3" points="35.22,109.59 26.96,109.59 26.96,97.74 35.22,97.74 35.22,109.59 	"/>
</g>
<g>
	<path d="M31.47,120.1L31.47,120.1 M31.47,120.1c-9.27,0.01-16.78-7.5-16.79-16.77s7.5-16.78,16.77-16.79s16.78,7.5,16.79,16.77
		c0,0,0,0.01,0,0.01C48.24,112.58,40.73,120.09,31.47,120.1v-1.4c8.49,0,15.38-6.89,15.38-15.38c0-8.49-6.89-15.38-15.38-15.38
		s-15.38,6.89-15.38,15.38c0,4.08,1.62,7.99,4.5,10.87c2.88,2.89,6.8,4.52,10.88,4.51V120.1L31.47,120.1"/>
</g>
<g class="st1">
	<path d="M68.81,108.86c0,0.2-0.04,0.34-0.11,0.4c-0.07,0.06-0.22,0.09-0.43,0.09h-0.93c-0.21,0-0.36-0.03-0.43-0.09
		c-0.07-0.06-0.11-0.2-0.11-0.4V99.8h-1.73c-0.2,0-0.34-0.04-0.4-0.11s-0.09-0.22-0.09-0.43v-0.75c0-0.21,0.03-0.36,0.09-0.43
		s0.19-0.11,0.4-0.11h3.2c0.21,0,0.36,0.03,0.43,0.09c0.07,0.06,0.11,0.2,0.11,0.4V108.86z"/>
</g>
<g>
	<polyline class="st3" points="68.81,109.35 64.58,109.35 64.58,97.97 68.81,97.97 68.81,109.35 	"/>
</g>
<g>
	<path d="M67.65,120.1L67.65,120.1 M67.65,120.1c-9.27,0.01-16.78-7.5-16.79-16.77s7.5-16.78,16.77-16.79s16.78,7.5,16.79,16.77
		c0,0,0,0.01,0,0.01c0.01,9.26-7.5,16.77-16.76,16.78C67.66,120.1,67.65,120.1,67.65,120.1v-1.4c8.51,0.01,15.41-6.88,15.42-15.38
		S76.19,87.91,67.69,87.9c-8.51-0.01-15.41,6.88-15.42,15.38c-0.01,4.09,1.62,8.02,4.51,10.91c2.88,2.89,6.79,4.52,10.87,4.51V120.1
		L67.65,120.1"/>
</g>
<g class="st1">
	<path d="M103.54,97.74c1.17,0,2.07,0.27,2.7,0.8c0.63,0.54,0.94,1.3,0.94,2.29v0.51c0,0.41-0.08,0.78-0.23,1.13
		c-0.15,0.34-0.36,0.66-0.61,0.95c-0.25,0.29-0.54,0.55-0.87,0.79c-0.33,0.24-0.66,0.46-1,0.66l-1.35,0.81
		c-0.3,0.18-0.54,0.35-0.72,0.5c-0.18,0.15-0.31,0.3-0.4,0.43c-0.09,0.13-0.15,0.27-0.17,0.41c-0.02,0.13-0.03,0.27-0.03,0.41v0.07
		h4.89c0.2,0,0.34,0.04,0.4,0.11s0.09,0.22,0.09,0.43v0.78c0,0.21-0.03,0.36-0.09,0.43c-0.06,0.07-0.19,0.11-0.4,0.11h-6.55
		c-0.21,0-0.36-0.03-0.43-0.09c-0.07-0.06-0.11-0.2-0.11-0.4v-0.83c0-0.51,0.06-0.96,0.19-1.36c0.12-0.4,0.29-0.76,0.5-1.07
		c0.21-0.31,0.45-0.58,0.74-0.81s0.58-0.44,0.9-0.62l1.44-0.83c0.23-0.14,0.44-0.27,0.65-0.42c0.21-0.14,0.39-0.3,0.55-0.48
		c0.16-0.18,0.28-0.38,0.38-0.6c0.1-0.22,0.14-0.46,0.14-0.74v-0.17c0-0.99-0.54-1.49-1.62-1.49c-0.54,0-0.94,0.11-1.19,0.32
		c-0.25,0.21-0.42,0.59-0.5,1.13c-0.02,0.14-0.07,0.23-0.14,0.28c-0.07,0.05-0.2,0.08-0.38,0.08h-0.97c-0.21,0-0.36-0.03-0.43-0.1
		c-0.07-0.07-0.11-0.21-0.11-0.42c0-0.35,0.07-0.7,0.2-1.06s0.32-0.65,0.54-0.87C101.18,98.09,102.21,97.74,103.54,97.74z"/>
</g>
<g>
	<polyline class="st3" points="107.18,109.35 99.6,109.35 99.6,97.74 107.18,97.74 107.18,109.35 	"/>
</g>
<g>
	<path d="M103.83,120.1L103.83,120.1 M103.83,120.1c-9.27,0.01-16.78-7.5-16.79-16.77s7.5-16.78,16.77-16.79s16.78,7.5,16.79,16.77
		c0,0,0,0.01,0,0.01C120.6,112.58,113.09,120.09,103.83,120.1v-1.4c8.49,0.03,15.4-6.84,15.43-15.33
		c0.03-8.49-6.84-15.4-15.33-15.43c-8.49-0.03-15.4,6.84-15.43,15.33c-0.01,4.09,1.61,8.02,4.5,10.92
		c2.88,2.89,6.79,4.52,10.87,4.51v1.4l0,0"/>
</g>
<g class="st1">
	<path d="M139.85,97.74c1.16,0,2.05,0.25,2.67,0.75c0.62,0.5,0.92,1.22,0.92,2.18V101c0,0.54-0.15,1.01-0.46,1.41
		c-0.3,0.4-0.73,0.71-1.27,0.94c0.61,0.16,1.08,0.45,1.4,0.86c0.32,0.42,0.48,0.95,0.48,1.59v0.63c0,0.99-0.35,1.77-1.04,2.32
		c-0.69,0.55-1.64,0.83-2.84,0.83c-0.72,0-1.36-0.09-1.9-0.26s-0.98-0.43-1.31-0.75c-0.23-0.23-0.41-0.51-0.54-0.86
		c-0.14-0.34-0.2-0.69-0.2-1.02c0-0.21,0.04-0.36,0.11-0.42c0.07-0.07,0.22-0.1,0.43-0.1h0.96c0.19,0,0.32,0.03,0.4,0.08
		c0.07,0.05,0.12,0.14,0.13,0.28c0.08,0.89,0.69,1.34,1.85,1.34c0.59,0,1.04-0.13,1.35-0.39s0.47-0.64,0.47-1.15v-0.41
		c0-1.06-0.58-1.59-1.74-1.59h-0.51c-0.2,0-0.34-0.04-0.4-0.11c-0.06-0.07-0.09-0.22-0.09-0.43v-0.74c0-0.21,0.03-0.36,0.09-0.43
		c0.06-0.07,0.19-0.11,0.4-0.11h0.31c1.22,0,1.83-0.51,1.83-1.52v-0.2c0-0.92-0.55-1.39-1.66-1.39c-0.55,0-0.97,0.11-1.26,0.33
		c-0.29,0.22-0.47,0.58-0.55,1.09c-0.02,0.14-0.07,0.23-0.14,0.28c-0.07,0.05-0.2,0.08-0.38,0.08h-0.9c-0.21,0-0.36-0.03-0.43-0.1
		c-0.07-0.07-0.11-0.21-0.11-0.42c0-0.34,0.06-0.67,0.19-0.99c0.13-0.32,0.31-0.6,0.55-0.84c0.36-0.37,0.79-0.64,1.29-0.81
		C138.45,97.82,139.08,97.74,139.85,97.74z"/>
</g>
<g>
	<polyline class="st3" points="143.59,109.59 135.75,109.59 135.75,97.74 143.59,97.74 143.59,109.59 	"/>
</g>
<g>
	<path d="M140,120.1L140,120.1 M140,120.1c-9.27,0-16.78-7.51-16.78-16.78s7.51-16.78,16.78-16.78c9.27,0,16.78,7.51,16.78,16.78
		S149.27,120.1,140,120.1L140,120.1v-1.4c8.49,0.01,15.38-6.88,15.39-15.37s-6.88-15.38-15.37-15.39
		c-8.49-0.01-15.38,6.88-15.39,15.37c0,4.08,1.62,7.99,4.5,10.88c2.88,2.89,6.79,4.52,10.87,4.51V120.1L140,120.1"/>
</g>
<g class="st1">
	<path d="M178.24,97.97c0.21,0,0.36,0.03,0.43,0.09c0.07,0.06,0.11,0.2,0.11,0.4v6.87h0.68c0.2,0,0.34,0.04,0.4,0.11
		c0.06,0.07,0.09,0.22,0.09,0.43v0.69c0,0.21-0.03,0.36-0.09,0.43c-0.06,0.07-0.19,0.11-0.4,0.11h-0.68v1.74
		c0,0.2-0.04,0.34-0.11,0.4c-0.07,0.06-0.22,0.09-0.43,0.09h-0.86c-0.21,0-0.36-0.03-0.43-0.09c-0.07-0.06-0.11-0.2-0.11-0.4v-1.74
		h-4.52c-0.2,0-0.34-0.04-0.4-0.11s-0.09-0.22-0.09-0.43v-1.19c0-0.13,0.01-0.26,0.03-0.38c0.02-0.12,0.08-0.24,0.17-0.36l4.27-6.2
		c0.14-0.19,0.24-0.32,0.31-0.38c0.07-0.06,0.19-0.09,0.35-0.09H178.24z M176.84,105.34v-4.76l-3.3,4.76H176.84z"/>
</g>
<g>
	<polyline class="st3" points="179.95,109.35 171.83,109.35 171.83,97.97 179.95,97.97 179.95,109.35 	"/>
</g>
<g>
	<path d="M176.2,120.1L176.2,120.1 M176.2,120.1c-9.27-0.01-16.77-7.53-16.76-16.8s7.53-16.77,16.8-16.76
		c9.26,0.01,16.76,7.52,16.76,16.78c0,9.27-7.51,16.78-16.78,16.78C176.21,120.1,176.21,120.1,176.2,120.1v-1.4
		c8.51,0.01,15.41-6.88,15.42-15.38s-6.88-15.41-15.38-15.42c-8.51-0.01-15.41,6.88-15.42,15.38c-0.01,4.09,1.62,8.02,4.51,10.91
		c2.88,2.89,6.79,4.51,10.87,4.51V120.1L176.2,120.1"/>
</g>
<g>
	<path d="M220.52,128.24c13.76,0.01,24.92-11.15,24.93-24.91c0.01-13.76-11.15-24.92-24.91-24.93
		c-13.76-0.01-24.92,11.15-24.93,24.91c0,0,0,0.01,0,0.01C195.61,117.08,206.76,128.23,220.52,128.24z"/>
</g>
<g class="st1">
	<path class="st2" d="M228.12,109.66c0,2.31-0.72,4.1-2.16,5.38c-1.44,1.28-3.42,1.92-5.95,1.92c-3.07,0-5.31-0.71-6.71-2.14
		c-0.49-0.49-0.88-1.08-1.16-1.77c-0.28-0.69-0.42-1.39-0.42-2.1c0-0.47,0.08-0.77,0.24-0.92c0.16-0.15,0.47-0.22,0.94-0.22h2.1
		c0.39,0,0.67,0.05,0.83,0.17c0.16,0.11,0.26,0.31,0.31,0.61c0.15,0.93,0.51,1.6,1.09,2.01c0.58,0.41,1.46,0.61,2.63,0.61
		c2.53,0,3.79-1.25,3.79-3.76v-1.4c0-2.65-1.19-3.98-3.57-3.98c-0.42,0-0.87,0.05-1.36,0.15c-0.49,0.1-0.91,0.23-1.25,0.41
		c-0.47,0.22-0.8,0.36-1.01,0.42c-0.21,0.06-0.47,0.09-0.79,0.09h-1.99c-0.49,0-0.81-0.07-0.96-0.22s-0.22-0.43-0.22-0.85V92.75
		c0-0.42,0.07-0.7,0.22-0.85s0.47-0.22,0.96-0.22h12.64c0.42,0,0.7,0.07,0.85,0.22s0.22,0.47,0.22,0.96v1.62
		c0,0.49-0.07,0.81-0.22,0.96s-0.43,0.22-0.85,0.22h-9.8v5.75c0.79-0.37,1.54-0.64,2.27-0.81c0.72-0.17,1.49-0.26,2.3-0.26
		c4.69,0,7.04,2.56,7.04,7.67V109.66z"/>
</g>
</svg>
