<?xml version="1.0" encoding="UTF-8" standalone="no"?>
<!-- Created with Inkscape (http://www.inkscape.org/) -->

<svg
   width="78mm"
   height="78.000008mm"
   viewBox="0 0 78 78.000007"
   version="1.1"
   id="svg1"
   xmlns="http://www.w3.org/2000/svg"
   xmlns:svg="http://www.w3.org/2000/svg">
  <defs
     id="defs1" />
  <circle
     id="circle1"
     cy="39"
     cx="39"
     style="fill:#0a9869"
     r="39" />
  <path
     style="fill:#a80c0b;stroke-width:0.03175"
     d="m 36.546504,61.975662 c -3.62766,-0.21768 -7.330349,-1.03896 -10.110443,-2.242572 -1.548257,-0.670272 -3.112134,-1.60842 -3.792696,-2.275176 -0.200088,-0.19602 -0.253777,-0.279492 -0.297593,-0.462564 -0.09686,-0.405 0.06366,-0.80778 0.40929,-1.026948 0.428021,-0.271464 0.726662,-0.214284 1.345818,0.257748 0.572136,0.43614 1.152018,0.813972 1.745298,1.137084 4.398582,2.395548 11.55817,3.367188 18.083398,2.45418 3.747516,-0.52434 6.882804,-1.566888 9.093528,-3.023832 0.820956,-0.54102 0.817044,-0.53928 1.15986,-0.519912 0.374808,0.02124 0.60042,0.16746 0.767964,0.497844 0.15186,0.299436 0.153672,0.54636 0.006,0.842292 -0.09216,0.18492 -0.177228,0.26874 -0.518604,0.510804 -1.96758,1.395444 -4.767516,2.506152 -8.066568,3.199956 -1.433952,0.301524 -3.413412,0.558888 -5.041776,0.6555 -0.841632,0.04992 -3.925572,0.04704 -4.78368,-0.0048 z m 0.296352,-3.638328 c -0.609288,-0.10608 -1.057152,-0.319152 -1.17888,-0.560808 -0.06996,-0.139032 -0.07452,-0.184968 -0.0324,-0.325812 0.1008,-0.336432 0.413352,-0.428028 0.79458,-0.232884 0.569532,0.291528 2.345652,0.356352 3.316512,0.121056 0.151344,-0.03672 0.304956,-0.09276 0.3414,-0.124644 0.151512,-0.132528 0.31998,-0.154692 0.516192,-0.06792 0.483204,0.213744 0.31836,0.795084 -0.289968,1.0227 -0.133032,0.0498 -0.45996,0.127764 -0.726468,0.173316 -0.671328,0.11472 -2.067504,0.1122 -2.74098,-0.0048 z M 58.97616,57.304218 c -0.875508,-0.158844 -1.657224,-0.571752 -2.322444,-1.22676 -0.748956,-0.737364 -1.193736,-1.686396 -1.288548,-2.749164 -0.05952,-0.667668 0.04464,-1.419288 0.274764,-1.981776 0.07188,-0.175644 0.10092,-0.309492 0.08556,-0.393732 -0.07872,-0.431292 -0.10464,-1.049172 -0.06192,-1.476624 0.04248,-0.424788 0.03996,-0.468792 -0.0318,-0.556236 -0.51234,-0.625728 -0.68916,-0.858864 -0.894648,-1.179636 -0.13278,-0.207228 -0.378804,-0.521556 -0.546732,-0.698496 -0.42294,-0.44568 -0.623376,-0.724788 -0.839028,-1.168404 -0.4512,-0.928212 -0.578232,-1.895604 -0.377568,-2.875788 0.033,-0.161412 0.05328,-0.300264 0.045,-0.30852 -0.0084,-0.0084 -0.184176,-0.06048 -0.3909,-0.11592 -0.79464,-0.213324 -1.361664,-0.551496 -1.984572,-1.183584 -0.570384,-0.578832 -0.913188,-1.16106 -1.123632,-1.908492 -0.08196,-0.290952 -0.03192,-0.276792 -0.675504,-0.191352 -0.781368,0.10368 -1.68666,-0.02916 -2.379408,-0.349188 -0.653256,-0.301812 -1.378116,-0.89303 -1.72482,-1.406777 -0.0786,-0.116424 -0.146628,-0.21698 -0.15126,-0.223425 -0.0048,-0.0064 -0.177768,0.04458 -0.38472,0.113412 -0.511452,0.170085 -0.993924,0.233902 -1.516284,0.200565 -0.900528,-0.05753 -1.598832,-0.329438 -2.320188,-0.90351 l -0.28518,-0.226949 -0.32868,0.229203 c -0.880644,0.614077 -1.764156,0.892747 -2.826324,0.891477 -0.855312,0 -1.609368,-0.17345 -2.315112,-0.5294 -0.236124,-0.119088 -0.241332,-0.11976 -0.268344,-0.03467 -0.05364,0.16891 -0.524988,0.825532 -0.77928,1.085501 -0.804792,0.822799 -1.8549,1.294759 -3.008405,1.352107 -0.662274,0.03288 -1.27943,-0.07824 -1.915604,-0.344844 -0.04934,-0.02064 -0.07427,-0.012 -0.07458,0.0264 0,0.03144 -0.06401,0.202788 -0.141574,0.38046 -0.588041,1.346832 -1.998122,2.426496 -3.392741,2.597784 -0.418814,0.05136 -0.380492,-0.0108 -0.385191,0.622812 -0.0048,0.624048 -0.08496,1.04346 -0.313435,1.635924 -0.179706,0.46596 -0.643128,1.151628 -1.01635,1.503672 -0.263239,0.248352 -1.012856,0.78858 -1.094264,0.78864 -0.01493,0 -0.0289,0.300036 -0.03079,0.666756 -0.0041,0.743448 -0.06455,1.0494 -0.325565,1.651752 -0.455485,1.051056 -1.564259,2.11284 -2.796604,2.678148 -0.383857,0.176052 -0.404367,0.192024 -0.377539,0.293496 0.05315,0.201048 0.02317,1.199004 -0.04549,1.508256 -0.372871,1.682244 -1.589658,2.965416 -3.235261,3.411756 -0.491617,0.133356 -1.46158,0.154524 -2.000123,0.04368 -0.695801,-0.143256 -1.317276,-0.437832 -1.872583,-0.887604 -0.57004,-0.461736 -0.917004,-0.906684 -1.239583,-1.589724 -0.283337,-0.59994 -0.365284,-0.958464 -0.3900808,-1.70652 -0.022224,-0.673392 0.024132,-1.04382 0.1931668,-1.541148 l 0.07861,-0.2313 -0.3425824,-0.231492 C 9.3826272,50.457234 8.492262,49.565214 8.2091472,49.133106 7.9183488,48.689202 7.6837164,48.195654 7.542588,47.730954 7.442544,47.401518 7.426356,47.26623 7.4114916,46.635426 c -0.015552,-0.659544 -0.00828,-0.753684 0.087756,-1.126872 0.2547624,-0.99102 0.8647428,-1.88544 1.7464092,-2.56074 0.17145,-0.131316 0.303942,-0.250692 0.294354,-0.265236 -0.00948,-0.01464 -0.1245552,-0.1884 -0.2555556,-0.386304 C 8.8018548,41.567238 8.3382408,40.473666 8.1268812,39.565782 7.9068228,38.620614 7.8404964,37.200946 7.9738152,36.290356 8.3461788,33.74734 9.720858,31.561098 11.84144,30.13946 c 1.083851,-0.726598 2.441512,-1.246093 3.672682,-1.405287 0.2413,-0.03112 0.444151,-0.0643 0.450755,-0.07356 0.0067,-0.0092 0.05506,-0.216852 0.1077,-0.461327 0.124015,-0.576328 0.498919,-1.694118 0.770477,-2.297336 1.582674,-3.515836 4.720462,-6.584493 8.527383,-8.339518 1.751869,-0.807628 3.186208,-1.225744 5.1435,-1.499358 0.754151,-0.10542 2.726567,-0.105228 3.471359,3.17e-4 2.132604,0.302305 3.788244,0.965156 5.224812,2.091841 0.450528,0.353356 1.23342,1.167197 1.588452,1.651277 l 0.315108,0.42965 0.319884,-0.305241 c 2.232888,-2.130627 5.617344,-3.284559 9.037032,-3.081184 4.972536,0.29572 9.367392,3.015188 11.457024,7.0894 0.748884,1.46015 1.111344,2.833782 1.168812,4.429443 0.03336,0.925767 -0.03372,1.522825 -0.312228,2.777363 -0.01812,0.08207 0.012,0.09487 0.375564,0.160846 0.795624,0.14424 1.945776,0.589406 2.660184,1.029684 2.117148,1.304638 3.694992,3.511041 4.382796,6.128612 1.229424,4.67874 -0.503496,9.633456 -4.1976,12.001848 l -0.423612,0.271584 -0.06624,0.319128 c -0.1557,0.750252 -0.510384,1.47012 -1.057344,2.145888 -0.191856,0.237012 -0.331344,0.44904 -0.331344,0.503652 0,0.1629 -0.20634,0.814668 -0.358488,1.132416 -0.620808,1.296384 -1.790316,2.194344 -3.208116,2.4633 -0.404772,0.0768 -1.164528,0.0774 -1.583904,0 z m 1.573344,-1.951068 c 0.775008,-0.249528 1.411056,-0.905832 1.642932,-1.695264 0.03504,-0.11904 0.0774,-0.347688 0.0942,-0.507996 0.0366,-0.349032 0.165576,-0.624108 0.386844,-0.825024 0.629472,-0.571692 0.934788,-1.170408 1.051944,-2.063052 0.07236,-0.551124 0.1911,-0.770604 0.519072,-0.959424 0.12132,-0.06984 0.377832,-0.217896 0.569976,-0.328992 1.702788,-0.984564 3.009204,-2.815692 3.56772,-5.000664 0.246756,-0.965412 0.295368,-1.372392 0.293628,-2.459664 -0.0036,-1.107756 -0.06372,-1.641924 -0.294864,-2.543808 -0.383568,-1.49654 -1.09722,-2.80807 -2.088648,-3.838326 -0.649404,-0.674846 -1.216152,-1.092295 -1.969224,-1.45053 -0.876588,-0.416972 -1.471584,-0.563753 -2.418912,-0.59671 -0.695388,-0.02413 -0.89058,-0.06566 -1.092348,-0.231997 -0.345924,-0.285115 -0.417108,-0.736472 -0.199368,-1.264476 0.190404,-0.461739 0.36624,-1.036922 0.474216,-1.551145 0.08412,-0.400876 0.09672,-0.582486 0.09588,-1.392334 0,-0.706533 -0.01872,-1.02616 -0.075,-1.324071 -0.29892,-1.583023 -0.93342,-2.952305 -1.9677,-4.246339 -0.365664,-0.457487 -1.157964,-1.251141 -1.617132,-1.619918 -1.420644,-1.14097 -3.241764,-2.012806 -5.042844,-2.414181 -0.972636,-0.216757 -1.610016,-0.283397 -2.704152,-0.282721 -1.258476,9.52e-4 -2.2032,0.13876 -3.37296,0.492649 -1.859028,0.5624 -3.465036,1.632468 -4.576728,3.049375 -0.328332,0.418465 -0.558456,0.566706 -0.879768,0.566706 -0.455736,0 -0.70758,-0.195104 -0.972624,-0.75346 -1.1316,-2.383866 -3.273684,-3.793969 -6.350256,-4.180302 -0.598044,-0.0751 -1.92288,-0.08555 -2.582258,-0.02035 -2.620773,0.259079 -5.269262,1.29467 -7.617238,2.978406 -3.122263,2.238978 -5.28193,5.516182 -5.654516,8.580407 -0.05455,0.448564 -0.139923,0.652907 -0.345059,0.825881 -0.224885,0.189611 -0.382588,0.231744 -1.019112,0.27213 -1.076134,0.06833 -1.866106,0.277399 -2.803302,0.741934 -2.477548,1.228026 -4.0101518,3.937126 -3.789617,6.698773 0.1320804,1.654177 0.6791,2.940457 1.794288,4.219165 0.377443,0.432744 0.452881,0.739356 0.277272,1.12674 -0.125476,0.276708 -0.227362,0.36744 -0.652621,0.581148 -1.7588858,0.88386 -2.3822978,2.26404 -1.6757642,3.709992 0.4095432,0.838164 1.0142222,1.398108 2.3304182,2.158116 0.333534,0.192588 0.488378,0.455868 0.488251,0.830196 0,0.254064 -0.01651,0.306804 -0.180816,0.578676 -0.514858,0.852132 -0.553657,1.756224 -0.111504,2.598192 0.57623,1.09722 1.92351,1.616808 3.075178,1.185936 0.301276,-0.1128 0.69161,-0.349512 0.895064,-0.542988 0.249174,-0.236928 0.550704,-0.722856 0.664909,-1.07154 0.15094,-0.460788 0.141351,-1.103472 -0.02381,-1.603404 -0.131222,-0.396936 -0.145256,-0.663888 -0.04684,-0.888996 0.143193,-0.327408 0.312738,-0.44412 0.95358,-0.656304 0.914559,-0.302868 1.485201,-0.648048 2.022665,-1.223556 0.636968,-0.682056 0.837058,-1.495164 0.583406,-2.370552 -0.136048,-0.469392 -0.134937,-0.669888 0.005,-0.951096 0.134685,-0.270264 0.300101,-0.387348 0.756826,-0.535752 0.587089,-0.190752 1.02816,-0.51156 1.349089,-0.98124 0.513905,-0.752124 0.583025,-1.670868 0.192627,-2.560344 -0.265335,-0.604488 -0.110712,-1.134012 0.400653,-1.37214 0.251365,-0.117 0.429673,-0.126012 0.724631,-0.0366 0.577436,0.175236 1.313624,0.10644 1.871408,-0.174972 0.595725,-0.300516 1.028604,-0.80118 1.251299,-1.447224 0.104208,-0.302328 0.123762,-0.429896 0.133319,-0.869696 0.0092,-0.423609 0.02666,-0.545561 0.09881,-0.684722 0.17564,-0.33963 0.480187,-0.529939 0.845375,-0.528256 0.275145,0 0.498222,0.111888 0.827659,0.410432 1.505998,1.364802 3.844446,0.591566 4.207134,-1.391126 0.0882,-0.482283 0.161796,-0.674624 0.319872,-0.836295 0.17748,-0.181547 0.332304,-0.257525 0.585912,-0.287559 0.318588,-0.03772 0.531156,0.06553 0.972828,0.472567 0.60102,0.55391 1.189512,0.812641 1.948908,0.856901 0.485904,0.02826 0.86538,-0.03079 1.317336,-0.205042 0.515532,-0.198787 0.878208,-0.467138 1.314012,-0.972217 0.377568,-0.43761 0.6771,-0.559499 1.080612,-0.439674 0.279588,0.08303 0.444432,0.223869 0.665856,0.568865 0.444348,0.692308 1.0842,1.060894 1.8396,1.05972 0.522312,0 0.956592,-0.149511 1.350132,-0.462312 0.2835,-0.225298 0.45936,-0.299181 0.712344,-0.299181 0.418272,0 0.768732,0.289815 0.941196,0.778415 0.356964,1.01111 1.303248,1.676908 2.383344,1.676908 0.536832,0 0.918756,-0.121221 1.537368,-0.487997 0.237168,-0.140653 0.274164,-0.149734 0.558228,-0.137542 0.393168,0.01682 0.613956,0.156783 0.787308,0.498761 0.11544,0.227648 0.11736,0.243269 0.09072,0.7406 -0.02124,0.397762 -0.01212,0.572074 0.04248,0.803182 0.318768,1.352136 1.552896,2.168148 2.941068,1.944684 0.30312,-0.04884 0.426048,-0.05196 0.565692,-0.01428 0.438468,0.11808 0.714408,0.46662 0.714372,0.902388 -3.6e-5,0.260064 -0.05064,0.403896 -0.23196,0.658944 -0.34716,0.488352 -0.487272,0.864264 -0.521472,1.398936 -0.0498,0.778164 0.19752,1.399224 0.796872,2.001432 0.20694,0.207888 0.406932,0.437952 0.444432,0.5112 0.170724,0.333504 0.686052,1.02654 1.130556,1.520448 0.433416,0.481584 0.49206,0.565428 0.537492,0.768444 0.045,0.200784 0.0402,0.270504 -0.04032,0.586104 -0.131568,0.515868 -0.152868,0.951768 -0.06768,1.3857 0.141852,0.72294 0.136452,0.834384 -0.06108,1.263264 -0.307848,0.668304 -0.368136,1.2681 -0.188364,1.873956 0.40662,1.370484 1.8594,2.142552 3.212112,1.707036 z M 37.47786,55.30731 c -1.041696,-0.162792 -2.02026,-0.629928 -2.691228,-1.284708 -0.415548,-0.405576 -0.632052,-0.716628 -0.6318,-0.90786 3.24e-4,-0.191892 0.138216,-0.387696 0.314076,-0.44574 0.233388,-0.07704 0.416556,0.0036 0.612804,0.267276 0.483168,0.651 1.23612,1.121124 2.162244,1.350072 0.552324,0.13656 1.51764,0.126876 2.104128,-0.02124 0.45936,-0.11592 1.019976,-0.357696 1.354428,-0.5841 0.11244,-0.07608 0.378936,-0.316104 0.592356,-0.533436 0.367092,-0.373788 0.397572,-0.395088 0.565152,-0.395088 0.144972,0 0.203232,0.02604 0.32106,0.143916 0.11556,0.11556 0.143916,0.177204 0.143916,0.312864 0,0.464916 -1.034508,1.360872 -2.013132,1.743492 -0.748128,0.292512 -1.037592,0.346872 -1.923864,0.361404 -0.430716,0.0072 -0.8403,0.0036 -0.91014,-0.0072 z m -8.022182,-1.559568 c -0.81877,-0.140616 -1.486377,-0.37842 -2.137823,-0.76146 -0.519495,-0.30546 -0.826168,-0.543084 -1.23879,-0.959868 -0.857187,-0.865788 -1.410621,-1.893348 -1.668114,-3.09702 -0.07553,-0.352992 -0.09252,-0.573468 -0.09356,-1.214472 0,-0.699252 0.01044,-0.83346 0.10938,-1.252944 0.426085,-1.808484 1.547622,-3.257208 3.174619,-4.1007 0.521938,-0.270612 1.206436,-0.49638 1.807051,-0.596016 0.629571,-0.1044 1.710531,-0.06744 2.339207,0.08004 0.913956,0.214476 1.91694,0.723996 2.5488,1.2948 l 0.162936,0.147192 0.196884,-0.11724 c 0.603564,-0.359148 1.44774,-0.678996 2.207736,-0.836508 0.430692,-0.08928 0.596712,-0.10068 1.439352,-0.09948 0.82506,0 1.011972,0.01428 1.397004,0.09684 0.662616,0.142272 1.23492,0.339024 1.767336,0.607728 l 0.476184,0.240312 0.222312,-0.179508 c 0.681516,-0.550236 1.442052,-0.918504 2.39328,-1.158912 0.419544,-0.10596 0.519048,-0.11472 1.321536,-0.1152 0.679956,0 0.945732,0.0162 1.227672,0.07632 1.443456,0.308352 2.702916,1.087248 3.572136,2.20914 0.336768,0.434652 0.442464,0.6015 0.673128,1.06248 0.414588,0.82854 0.577056,1.49418 0.608676,2.493516 0.03504,1.108872 -0.11748,1.850868 -0.57426,2.793996 -0.907608,1.87386 -2.65554,3.13404 -4.731828,3.411444 -0.551568,0.07368 -1.492824,0.02604 -2.050224,-0.10368 -1.199292,-0.27918 -2.376456,-0.9597 -3.140052,-1.815336 -1.017612,-1.140336 -1.526688,-2.38332 -1.583712,-3.867024 -0.03204,-0.832356 0.06624,-1.509708 0.326352,-2.25114 l 0.07824,-0.223044 -0.19812,-0.10008 c -1.023432,-0.517152 -2.485428,-0.522516 -3.568704,-0.01308 -0.494004,0.232284 -0.47784,0.205236 -0.354048,0.593064 0.322452,1.01028 0.345288,2.15982 0.0648,3.264504 -0.594456,2.341488 -2.578932,4.125624 -4.997424,4.492932 -0.485735,0.0738 -1.343525,0.07296 -1.777991,-0.0036 z m 2.092574,-1.034412 c 1.778736,-0.422436 3.209196,-1.791972 3.722376,-3.563808 0.330576,-1.141416 0.237936,-2.437668 -0.250092,-3.4992 l -0.14148,-0.307788 0.209292,-0.165444 c 0.54366,-0.429768 1.213932,-0.764544 1.923828,-0.960948 0.299748,-0.08292 0.521808,-0.11052 1.041372,-0.129444 0.988404,-0.036 1.575912,0.07584 2.400552,0.456816 0.368496,0.170244 1.02426,0.580704 1.02426,0.6411 0,0.01932 -0.05484,0.144072 -0.12174,0.277272 -0.63534,1.26438 -0.70056,2.851812 -0.171444,4.1748 0.277812,0.694692 0.61788,1.20612 1.157352,1.74054 0.573588,0.568224 1.18938,0.948216 1.960368,1.209576 1.009488,0.3423 2.225616,0.343284 3.2313,0.0036 1.919376,-0.650088 3.246936,-2.293524 3.472584,-4.29876 0.09816,-0.872112 -0.08028,-1.909224 -0.4686,-2.723832 -0.273588,-0.573984 -0.560856,-0.981168 -1.008156,-1.429032 -1.384044,-1.385856 -3.373692,-1.849476 -5.260776,-1.225836 -0.675168,0.223104 -1.416756,0.684588 -1.94622,1.2111 l -0.283176,0.281616 -0.312096,-0.212244 c -2.11722,-1.4397 -5.077788,-1.370208 -7.115688,0.167004 l -0.24108,0.18186 -0.393924,-0.393444 c -0.67662,-0.675864 -1.453356,-1.120776 -2.355852,-1.349472 -2.729256,-0.691572 -5.473313,0.930564 -6.219089,3.676428 -0.103788,0.382248 -0.11262,0.479076 -0.112932,1.240128 -3.17e-4,0.705228 0.01302,0.878328 0.09078,1.188216 0.178974,0.712308 0.476441,1.346388 0.892397,1.902108 0.93056,1.24326 2.301336,1.960908 3.902996,2.04336 0.338487,0.01752 1.00749,-0.04848 1.3729,-0.135276 z m -1.944397,-0.748476 c -0.456502,-0.08148 -0.688055,-0.160968 -1.168559,-0.400848 -2.22085,-1.108704 -3.025616,-3.87816 -1.747901,-6.015096 0.255492,-0.42726 0.859536,-1.0707 1.246918,-1.328232 0.375348,-0.249516 0.908399,-0.497652 1.331627,-0.619824 0.29702,-0.0858 0.430084,-0.09756 1.099915,-0.09744 0.820991,0 0.977545,0.02736 1.604077,0.279684 1.316928,0.53016 2.339172,1.772916 2.583648,3.140868 0.1392,0.77886 0.123072,1.277964 -0.06372,1.97184 -0.223332,0.829656 -0.754608,1.629372 -1.454256,2.18916 -0.963072,0.770568 -2.227925,1.094868 -3.431725,0.879852 z m 1.796353,-1.061304 c 0.521844,-0.179928 0.915228,-0.422532 1.291812,-0.7968 1.345056,-1.336584 1.320132,-3.474564 -0.05568,-4.772376 -0.912396,-0.860712 -2.174903,-1.129248 -3.370925,-0.716976 -0.521018,0.17958 -0.794735,0.357156 -1.250823,0.811428 -0.330232,0.328968 -0.440087,0.472764 -0.60271,0.788988 -0.944309,1.836264 -0.02413,4.066512 1.937924,4.696692 0.630142,0.202404 1.444085,0.198048 2.050354,-0.0108 z m 13.866972,1.085784 c -1.487496,-0.22968 -2.812104,-1.315524 -3.349248,-2.745516 -0.444336,-1.183008 -0.33792,-2.532504 0.284544,-3.608292 0.574008,-0.992004 1.450632,-1.676532 2.577876,-2.012988 0.492576,-0.147 1.425672,-0.185676 1.944336,-0.08052 1.684632,0.341352 2.948088,1.55556 3.373128,3.241644 0.120048,0.476184 0.1098,1.584132 -0.01908,2.053176 -0.409032,1.489776 -1.621632,2.680788 -3.12924,3.0735 -0.37878,0.09864 -1.280796,0.14106 -1.682412,0.07908 z m 1.601436,-1.057908 c 1.276416,-0.385608 2.175036,-1.438632 2.360772,-2.766384 0.08604,-0.615156 -0.05688,-1.378836 -0.370584,-1.979508 -0.41082,-0.786744 -1.204656,-1.418244 -2.076672,-1.651956 -0.43914,-0.11772 -1.217484,-0.126528 -1.64196,-0.01872 -0.389028,0.09888 -0.915636,0.35274 -1.244208,0.599724 -0.55392,0.416364 -1.038924,1.159068 -1.21428,1.859412 -0.08688,0.3468 -0.09588,1.061424 -0.01812,1.443504 0.192756,0.9486 0.844212,1.816932 1.693548,2.257428 0.794796,0.412248 1.692468,0.50388 2.511624,0.25638 z"
     id="path2" />
</svg>
