<?xml version="1.0" encoding="UTF-8" standalone="no"?>
<!-- Created with Inkscape (http://www.inkscape.org/) -->

<svg
   version="1.1"
   id="svg1"
   width="500"
   height="250"
   viewBox="0 0 499.99997 249.99999"
   xmlns="http://www.w3.org/2000/svg"
   xmlns:svg="http://www.w3.org/2000/svg">
  <defs
     id="defs1" />
  <path
     style="fill:#ededed;stroke-width:0.101247"
     d="m 28.457141,201.61988 v -32.8042 h 3.6449 3.6449 v 29.6992 29.6993 h 7.5599 7.5598 v 3.1049 3.1049 h -11.2047 -11.2048 z m 31.7242,0 v -32.8042 h 3.645 3.6449 v 32.8042 32.8041 h -3.6449 -3.645 z m 27.1344,3.1724 v -29.6318 h -5.2649 -5.2649 v -3.1724 -3.1724 h 14.1747 14.174599 v 3.1724 3.1724 h -5.264899 -5.2648 v 29.6318 29.6317 h -3.6449 -3.6449 z m 31.454199,0 v -29.6318 h -5.2649 -5.2649 v -3.1724 -3.1724 h 14.1747 14.1746 v 3.1724 3.1724 h -5.2648 -5.2649 v 29.6318 29.6317 h -3.6449 -3.6449 z m 26.1893,-3.1724 v -32.8042 h 3.6449 3.6449 v 29.6992 29.6993 h 7.4924 7.4923 v 3.1049 3.1049 h -11.1373 -11.1372 z m 30.6443,-0.001 v -32.8049 l 12.3184,0.034 12.3185,0.034 v 3.1049 3.1049 l -8.6736,0.035 -8.6735,0.035 v 11.0012 11.0013 h 7.0873 7.0874 v 3.1724 3.1724 h -7.0874 -7.0873 v 12.3522 12.3522 h 9.0448 9.0447 v 3.1049 3.105 h -12.6896 -12.6897 z m 51.0287,0.001 v -32.8042 h 4.2886 4.2886 l 6.4651,24.2656 c 3.5558,13.3461 6.483,24.2882 6.5049,24.3157 0.022,0.027 0.039,-10.8769 0.038,-24.2319 v -24.2819 l 3.3831,-0.036 3.383,-0.036 v 32.8065 32.8065 h -4.0499 c -2.2274,0 -4.0501,-0.015 -4.0503,-0.034 0,-0.019 -1.7004,-6.382 -3.7781,-14.1409 -2.0778,-7.7589 -5.0998,-19.0545 -6.7157,-25.1012 l -2.9379,-10.994 -0.034,25.1349 -0.034,25.1349 h -3.3745 -3.3746 z m 47.2488,32.5942 c -0.4826,-0.1036 -1.3732,-0.4332 -1.9792,-0.7324 -1.6825,-0.8305 -2.7314,-2.1564 -3.3731,-4.2635 -0.2318,-0.7611 -0.246,-2.3051 -0.2829,-30.602 l -0.039,-29.8005 h 3.6469 3.647 v 28.653 c 0,20.319 0.044,28.8101 0.1484,29.193 0.3666,1.3406 0.709,1.4411 5.1832,1.5197 3.7575,0.066 6.1498,-0.075 6.6775,-0.3948 0.1635,-0.099 0.4289,-0.4229 0.5898,-0.7199 l 0.2925,-0.54 0.036,-28.8555 0.036,-28.8555 h 3.6451 3.6452 l -0.037,29.598 -0.037,29.59801 -0.3,1.0549 c -0.8133,2.8604 -2.5268,4.4923 -5.3955,5.1386 -0.833,0.1876 -1.989,0.21729 -8.0998,0.2081 -5.5584,-0.01 -7.3215,-0.052 -8.0057,-0.1992 z m 35.0991,-32.5961 v -32.8061 l 4.2708,0.036 4.2708,0.036 6.4526,24.1644 6.4526,24.1644 0.01,-24.1982 0.01,-24.1981 h 3.3749 3.3749 v 32.8062 32.8062 l -4.0089,-0.036 -4.0089,-0.036 -6.6896,-24.9976 -6.6895,-24.9976 -0.034,25.0314 -0.034,25.0313 h -3.3745 -3.3746 z m 41.849,0 v -32.8042 h 4.238 c 3.2671,0 4.2522,0.039 4.3003,0.1687 0.034,0.093 2.9415,10.9714 6.4605,24.1746 l 6.3982,24.0059 0.034,-24.1746 0.034,-24.1746 h 3.3746 3.3745 v 32.8042 32.8042 h -4.0161 -4.0162 l -6.6823,-25.0026 -6.6824,-25.0026 -0.034,25.0043 -0.034,25.0043 h -3.3745 -3.3746 z m 37.68,32.1629 c 0.063,-0.3527 2.3345,-14.8867 5.0482,-32.2979 2.7137,-17.4112 4.9703,-31.8846 5.0146,-32.163 l 0.081,-0.5062 h 5.7851 5.785 l 0.068,0.3037 c 0.037,0.1671 2.3207,13.4254 5.0744,29.463 2.7536,16.0376 5.2634,30.6476 5.5774,32.4667 l 0.5708,3.3074 -3.638,0.036 c -2.0009,0.02 -3.667,0.01 -3.7025,-0.029 -0.062,-0.062 -2.7227,-16.0348 -2.7274,-16.3757 0,-0.1327 -1.4166,-0.1687 -6.6172,-0.1687 -3.6382,0 -6.6149,0.025 -6.6149,0.056 0,0.031 -0.4227,2.962 -0.9395,6.5136 -0.5167,3.5517 -1.0348,7.1259 -1.1514,7.9426 -0.1166,0.8167 -0.2417,1.6216 -0.278,1.7887 l -0.066,0.3037 h -3.6914 -3.6914 z m 21.8535,-22.512 c 0,-0.2561 -5.7792,-35.9209 -5.8952,-36.3803 -0.073,-0.2887 -5.291,35.399 -5.3048,36.2803 v 0.3038 h 5.6024 c 4.9057,0 5.6024,-0.025 5.6024,-0.2038 z m 41.579,22.9374 c -2.0912,-0.4497 -3.8895,-1.7695 -4.7109,-3.4575 -0.8609,-1.7694 -0.8713,-1.8661 -0.9262,-8.6451 l -0.05,-6.1761 h 3.7139 3.7139 l 0.041,5.43361 c 0.044,5.834 0.055,5.9335 0.7508,6.389 0.5081,0.333 2.8734,0.5013 5.9092,0.4205 3.1586,-0.084 3.6691,-0.2115 4.0689,-1.0151 0.2326,-0.4675 0.2467,-1.1032 0.2467,-11.1605 0,-11.9775 0.051,-11.3599 -0.9833,-11.8874 -0.4599,-0.2346 -0.9679,-0.2627 -6.104,-0.33841 -4.4865,-0.066 -5.7412,-0.1241 -6.2992,-0.29159 -2.7204,-0.81631 -4.3439,-2.5497 -4.9975,-5.3355 -0.2266,-0.9657 -0.2455,-1.8762 -0.2455,-11.7789 0,-9.9588 0.018,-10.81 0.2494,-11.8122 0.6931,-2.9999 2.4001,-4.7393 5.3248,-5.4257 0.9271,-0.2175 1.7399,-0.2442 7.4529,-0.2442 5.7131,0 6.5258,0.027 7.4529,0.2442 2.1887,0.5137 3.735,1.6848 4.6127,3.4934 0.83,1.7105 0.8941,2.3469 0.8941,8.8789 v 5.8106 h -3.6449 -3.6449 v -4.3536 c 0,-4.5196 -0.1226,-6.4875 -0.4254,-6.9724 -0.097,-0.1561 -0.3904,-0.3901 -0.6509,-0.52 -0.4201,-0.2094 -0.9406,-0.2362 -4.5912,-0.2362 -4.7074,0 -4.95,0.044 -5.3709,0.97389 -0.2116,0.4672 -0.2314,1.3329 -0.2314,10.0958 0,9.0119 0.015,9.6144 0.2466,10.0806 0.4807,0.96611 0.5608,0.97901 6.6382,1.0701 4.9352,0.074 5.4906,0.10571 6.4547,0.3679 2.6845,0.7303 4.2741,2.3152 5.0441,5.0293 0.2297,0.80951 0.2459,1.6731 0.2459,13.0839 0,13.558 0.039,12.91301 -0.9048,14.84961 -0.8379,1.71889 -2.5826,2.9777 -4.7689,3.4409 -1.3265,0.281 -13.1917,0.27129 -14.5083,-0.012 z m -23.2194,-54.1878 v -11.2047 h 3.7124 3.7124 v 11.2047 11.2047 h -3.7124 -3.7124 z"
     id="path1-6" />
  <path
     style="fill:#a80c0b;stroke-width:0.1"
     d="m 119.65714,160.42678 c -11.4257,-0.68559 -23.087699,-3.2723 -31.843899,-7.06319 -4.8764,-2.1111 -9.802,-5.0659 -11.9455,-7.1659 -0.6302,-0.6174 -0.7993,-0.8803 -0.9373,-1.4569 -0.3051,-1.2756 0.2005,-2.54421 1.2891,-3.2345 1.3481,-0.855 2.2887,-0.6749 4.2388,0.8118 1.802,1.3737 3.6284,2.5637 5.497,3.5814 13.8538,7.545 36.403699,10.6053 56.955599,7.7297 11.8032,-1.6515 21.6781,-4.9351 28.641,-9.5239 2.5857,-1.704 2.5734,-1.6985 3.6531,-1.6375 1.1805,0.067 1.8911,0.5274 2.4188,1.568 0.4783,0.9431 0.484,1.7208 0.019,2.6529 -0.2902,0.5824 -0.5582,0.8464 -1.6334,1.6088 -6.1971,4.3951 -15.0158,7.8934 -25.4065,10.0786 -4.5164,0.9497 -10.7509,1.7603 -15.8796,2.0646 -2.6508,0.1572 -12.364,0.1483 -15.0667,-0.014 z m 0.9334,-11.4593 c -1.919,-0.3341 -3.3296,-1.0052 -3.713,-1.7663 -0.2205,-0.4379 -0.2349,-0.5826 -0.102,-1.0262 0.3175,-1.05959 1.3019,-1.34809 2.5026,-0.73349 1.7938,0.9182 7.3879,1.12239 10.4457,0.3813 0.4767,-0.1155 0.9605,-0.2922 1.0753,-0.3926 0.4772,-0.4174 1.0078,-0.4872 1.6258,-0.2138 1.5219,0.6732 1.0027,2.5042 -0.9133,3.2211 -0.419,0.1567 -1.4487,0.4024 -2.2881,0.5459 -2.1144,0.3615 -6.5118,0.3534 -8.633,-0.016 z m 69.7112,-3.2539 c -2.7575,-0.5003 -5.2196,-1.8008 -7.3148,-3.8638 -2.3589,-2.3224 -3.7598,-5.31149 -4.0584,-8.6588 -0.1875,-2.1029 0.1407,-4.4702 0.8654,-6.24179 0.2264,-0.55321 0.318,-0.97481 0.2696,-1.2401 -0.2479,-1.35841 -0.3295,-3.30451 -0.1951,-4.65081 0.1336,-1.3379 0.1257,-1.4765 -0.1,-1.7519 -1.6137,-1.9708 -2.1706,-2.7051 -2.8178,-3.7154 -0.4182,-0.6527 -1.1931,-1.6427 -1.722,-2.2 -1.3321,-1.4037 -1.9634,-2.2828 -2.6426,-3.68 -1.4211,-2.9235 -1.8212,-5.9704 -1.1892,-9.05759 0.1041,-0.5084 0.1679,-0.945705 0.1419,-0.971705 -0.026,-0.026 -0.5801,-0.1904 -1.2312,-0.3652 -2.5028,-0.6719 -4.2887,-1.737 -6.2506,-3.7278 -1.7965,-1.8231 -2.8762,-3.6569 -3.539,-6.011 -0.258,-0.9164 -0.1007,-0.8718 -2.1276,-0.6027 -2.461,0.3267 -5.3123,-0.092 -7.4942,-1.0998 -2.0575,-0.9506 -4.3405,-2.8127 -5.4325,-4.4308 -0.2474,-0.3667 -0.4618,-0.6834 -0.4764,-0.7037 -0.015,-0.02 -0.5599,0.1404 -1.2117,0.3572 -1.6109,0.5357 -3.1305,0.7367 -4.7757,0.6317 -2.8363,-0.1812 -5.0357,-1.0376 -7.3077,-2.8457 l -0.8982,-0.7148 -1.0352,0.7219 c -2.7737,1.9341 -5.5564,2.8118 -8.9018,2.8078 -2.6939,0 -5.0689,-0.5463 -7.2917,-1.6674 -0.7437,-0.3751 -0.7601,-0.3772 -0.8452,-0.1092 -0.1688,0.532 -1.6535,2.6001 -2.4544,3.4189 -2.5348,2.5915 -5.8422,4.078 -9.4753,4.2586 -2.085899,0.1037 -4.029699,-0.2462 -6.033399,-1.0861 -0.1554,-0.065 -0.2339,-0.037 -0.2349,0.083 0,0.099 -0.2016,0.6387 -0.4459,1.1983 -1.8521,4.242 -6.2933,7.6425 -10.6858,8.182 -1.3191,0.1619 -1.1984,-0.033 -1.2132,1.9616 -0.015,1.965495 -0.2676,3.286495 -0.9872,5.152495 -0.566,1.4676 -2.0256,3.6272 -3.2011,4.736 -0.8291,0.7822 -3.1901,2.4837 -3.4465,2.4839 -0.047,0 -0.091,0.945 -0.097,2.1 -0.013,2.34161 -0.2033,3.30521 -1.0254,5.20241 -1.4346,3.3104 -4.9268,6.6546 -8.8082,8.4351 -1.209,0.5545 -1.2736,0.6048 -1.1891,0.9244 0.1674,0.6332 0.073,3.7764 -0.1433,4.7504 -1.1744,5.2984 -5.0068,9.3399 -10.1898,10.7457 -1.5484,0.42 -4.6034,0.4867 -6.2996,0.1375 -2.1915,-0.4512 -4.1489,-1.37901 -5.8979,-2.7956 -1.7954,-1.4543 -2.8882,-2.8557 -3.9042,-5.007 -0.8924,-1.8896 -1.1505,-3.0188 -1.2286,-5.3749 -0.07,-2.1209 0.076,-3.2876 0.6084,-4.854 l 0.2476,-0.7285 -1.079,-0.7291 c -1.4343,-0.9693 -4.2386,-3.7788 -5.1303,-5.1398 -0.9159,-1.3981 -1.6549,-2.9526 -2.0994,-4.41621 -0.3151,-1.0376 -0.3661,-1.4637 -0.4129,-3.4505 -0.049,-2.0773 -0.026,-2.3738 0.2764,-3.5492 0.8024,-3.1213 2.7236,-5.9384 5.5005,-8.06529 0.54,-0.4136 0.9573,-0.789605 0.9271,-0.835405 -0.03,-0.046 -0.3923,-0.5934 -0.8049,-1.2167 -1.52,-2.2962 -2.9802,-5.7405 -3.6459,-8.6 -0.6931,-2.9769 -0.902,-7.4483 -0.4821,-10.3163 1.1728,-8.0095 5.5025,-14.8953 12.1815,-19.3729 3.4137,-2.2885 7.6898,-3.9247 11.5675,-4.4261 0.76,-0.098 1.3989,-0.2025 1.4197,-0.2317 0.021,-0.029 0.1734,-0.683 0.3392,-1.453 0.3906,-1.8152 1.5714,-5.3358 2.4267,-7.2357 4.9848,-11.0735 14.8676,-20.73856 26.8579,-26.2662 5.5177,-2.54371 10.0353,-3.86061 16.199999,-4.72239 2.3753,-0.33204 8.5876,-0.33143 10.9334,10e-4 6.7169,0.95214 11.9315,3.03986 16.4561,6.58848 1.419,1.11293 3.8848,3.67621 5.003,5.20087 l 0.9925,1.35323 1.0075,-0.96139 c 7.0327,-6.71064 17.6924,-10.34507 28.4631,-9.70452 15.6615,0.9314 29.5036,9.49666 36.0851,22.32882 2.3587,4.5989 3.5003,8.9253 3.6813,13.951 0.105,2.9158 -0.1064,4.7963 -0.9834,8.7476 -0.057,0.2585 0.037,0.2988 1.1829,0.5066 2.5059,0.4543 6.1284,1.8564 8.3785,3.2431 6.6682,4.1091 11.6378,11.0584 13.8041,19.3027 3.8722,14.736205 -1.5858,30.341605 -13.2208,37.801105 l -1.3342,0.8554 -0.2086,1.0051 c -0.4904,2.363 -1.6075,4.6303 -3.3302,6.7587 -0.6043,0.7465 -1.0436,1.4143 -1.0436,1.5863 0,0.5131 -0.6499,2.5659 -1.1291,3.5667 -1.9553,4.0831 -5.6388,6.9113 -10.1043,7.7584 -1.2749,0.2419 -3.6678,0.2439 -4.9887,0 z m 4.9554,-6.1451 c 2.441,-0.7859 4.4443,-2.85299 5.1746,-5.3394 0.1102,-0.3751 0.2437,-1.0951 0.2967,-1.59999 0.1153,-1.0993 0.5215,-1.9657 1.2184,-2.5985 1.9826,-1.80061 2.9442,-3.68631 3.3132,-6.4978 0.2278,-1.7358 0.6019,-2.4271 1.6349,-3.0218 0.3821,-0.22 1.19,-0.6863 1.7952,-1.0362 5.3631,-3.101 9.4778,-8.86831 11.2369,-15.75011 0.7772,-3.04069 0.9303,-4.322495 0.9248,-7.746995 -0.01,-3.489 -0.2007,-5.1714 -0.9287,-8.012 -1.2081,-4.7135 -3.4558,-8.8443 -6.5784,-12.0892 -2.0454,-2.1255 -3.8304,-3.4403 -6.2023,-4.5686 -2.7609,-1.3133 -4.6349,-1.7756 -7.6186,-1.8794 -2.1902,-0.076 -2.805,-0.2068 -3.4405,-0.7307 -1.0895,-0.898 -1.3137,-2.3196 -0.6279,-3.9826 0.5997,-1.4543 1.1535,-3.2659 1.4936,-4.8855 0.2651,-1.2626 0.3045,-1.8346 0.302,-4.3853 0,-2.2253 -0.059,-3.232 -0.2364,-4.1703 -0.9415,-4.9859 -2.9399,-9.2986 -6.1975,-13.3743 -1.1517,-1.4409 -3.6471,-3.9406 -5.0933,-5.1021 -4.4745,-3.59361 -10.2103,-6.33955 -15.883,-7.60372 -3.0634,-0.6827 -5.0709,-0.89259 -8.517,-0.89046 -3.9637,0.003 -6.9392,0.43704 -10.6235,1.55165 -5.8552,1.77134 -10.9135,5.14163 -14.4149,9.60433 -1.0341,1.318 -1.7589,1.7849 -2.7709,1.7849 -1.4354,0 -2.2286,-0.6145 -3.0634,-2.3731 -3.5641,-7.50824 -10.3108,-11.94951 -20.0008,-13.16631 -1.8836,-0.23653 -6.0563,-0.26944 -8.1331,-0.0641 -8.254399,0.816 -16.596099,4.0777 -23.991299,9.38081 -9.8339,7.0519 -16.636,17.3738 -17.8095,27.0249 -0.1718,1.4128 -0.4407,2.0564 -1.0868,2.6012 -0.7083,0.5972 -1.205,0.7299 -3.2098,0.8571 -3.3894,0.2152 -5.8775,0.8737 -8.8293,2.3368 -7.8033,3.8678 -12.6304,12.4004 -11.9358,21.0985 0.416,5.21 2.1389,9.2613 5.6513,13.2887 1.1888,1.363 1.4264,2.328705 0.8733,3.548795 -0.3952,0.8715 -0.7161,1.1573 -2.0555,1.8304 -5.5398,2.7838 -7.5033,7.1308 -5.278,11.685 1.2899,2.63991 3.1944,4.4035 7.3399,6.7972 1.0505,0.6066 1.5382,1.4358 1.5378,2.6148 0,0.80021 -0.052,0.96631 -0.5695,1.8226 -1.6216,2.6839 -1.7438,5.5314 -0.3512,8.1833 1.8149,3.4558 6.0583,5.0923 9.6856,3.7352 0.9489,-0.3551 2.1783,-1.1008 2.8191,-1.71019 0.7848,-0.74621 1.7345,-2.27671 2.0942,-3.3749 0.4754,-1.45131 0.4452,-3.47551 -0.075,-5.0501 -0.4133,-1.25021 -0.4575,-2.091 -0.1475,-2.8 0.451,-1.0312 0.985,-1.3988 3.0034,-2.0671 2.8805,-0.9539 4.6778,-2.0411 6.3706,-3.8537 2.0062,-2.1482 2.6364,-4.70921 1.8375,-7.46631 -0.4285,-1.4784 -0.425,-2.1099 0.016,-2.9956 0.4242,-0.8512 0.9452,-1.22 2.3837,-1.6874 1.8491,-0.6008 3.2383,-1.6112 4.2491,-3.0905 1.6186,-2.3689 1.8363,-5.262595 0.6067,-8.064095 -0.8357,-1.9039 -0.3487,-3.5717 1.2619,-4.3217 0.7917,-0.3686 1.3533,-0.3969 2.2823,-0.1151 1.8187,0.5519 4.1374,0.3351 5.8942,-0.5511 1.8763,-0.9465 3.2397,-2.5234 3.9411,-4.5582 0.3282,-0.9522 0.3898,-1.354 0.4199,-2.7392 0.029,-1.3342 0.084,-1.7183 0.3112,-2.1566 0.5532,-1.0697 1.5124,-1.6691 2.6626,-1.6638 0.8666,0 1.5692,0.3524 2.6068,1.2927 4.7433,4.2986 12.108499,1.8632 13.250799,-4.3815 0.2779,-1.519 0.5096,-2.1248 1.0075,-2.634 0.559,-0.5718 1.0466,-0.8111 1.8454,-0.9057 1.0034,-0.1188 1.6729,0.2064 3.064,1.4884 1.893,1.7446 3.7465,2.5595 6.1383,2.6989 1.5304,0.089 2.7256,-0.097 4.1491,-0.6458 1.6237,-0.6261 2.766,-1.4713 4.1386,-3.0621 1.1892,-1.3783 2.1326,-1.7622 3.4035,-1.3848 0.8806,0.2615 1.3998,0.7051 2.0972,1.7917 1.3995,2.1805 3.4148,3.3414 5.794,3.3377 1.6451,0 3.0129,-0.4709 4.2524,-1.4561 0.8929,-0.7096 1.4468,-0.9423 2.2436,-0.9423 1.3174,0 2.4212,0.9128 2.9644,2.4517 1.1243,3.1846 4.1047,5.2816 7.5066,5.2816 1.6908,0 2.8937,-0.3818 4.8421,-1.537 0.747,-0.443 0.8635,-0.4716 1.7582,-0.4332 1.2383,0.053 1.9337,0.4938 2.4797,1.5709 0.3635,0.717 0.3695,0.7662 0.2858,2.3326 -0.067,1.2528 -0.038,1.8018 0.1337,2.5297 1.004,4.2587 4.891,6.8288 9.2632,6.125 0.9547,-0.1537 1.3419,-0.1635 1.7817,-0.045 1.381,0.3718 2.2501,1.4697 2.25,2.8422 -1e-4,0.8191 -0.1596,1.2721 -0.7306,2.0754 -1.0934,1.538105 -1.5347,2.722105 -1.6424,4.406095 -0.1567,2.4509 0.6221,4.407 2.5098,6.3037 0.6518,0.6548 1.2817,1.3794 1.3998,1.6101 0.5377,1.0504 2.1608,3.2332 3.5608,4.78881 1.3651,1.5168 1.5498,1.7809 1.6929,2.4203 0.1416,0.6324 0.1265,0.852 -0.1271,1.846 -0.4144,1.6248 -0.4815,2.9977 -0.2133,4.3644 0.4468,2.277 0.4298,2.628 -0.1925,3.9788 -0.9696,2.1049 -1.1595,3.994 -0.5933,5.9022 1.2807,4.3165 5.8564,6.7482 10.1169,5.3765 z m -72.6666,-0.1445 c -3.2809,-0.5127 -6.363,-1.98399 -8.4763,-4.0463 -1.3088,-1.2774 -1.9907,-2.25709 -1.9899,-2.8594 10e-4,-0.6044 0.4353,-1.2211 0.9892,-1.4039 0.7351,-0.24259 1.312,0.01 1.9301,0.84181 1.5218,2.0504 3.8933,3.5311 6.8102,4.2522 1.7396,0.4301 4.78,0.3996 6.6272,-0.067 1.4468,-0.3651 3.2125,-1.1266 4.2659,-1.8397 0.354,-0.2396 1.1935,-0.9956 1.8657,-1.6801 1.1562,-1.1773 1.2522,-1.2444 1.78,-1.2444 0.4566,0 0.6401,0.082 1.0112,0.4533 0.3641,0.3641 0.4533,0.5581 0.4533,0.9854 0,1.4643 -3.2583,4.2862 -6.3406,5.4913 -2.3563,0.9213 -3.268,1.0925 -6.0594,1.1383 -1.3566,0.022 -2.6466,0.012 -2.8666,-0.022 z m -25.266699,-4.912 c -2.5788,-0.44289 -4.6815,-1.1919 -6.7333,-2.3983 -1.6362,-0.9621 -2.6021,-1.7105 -3.9017,-3.0232 -2.6998,-2.7269 -4.4429,-5.9633 -5.2539,-9.7544 -0.2379,-1.1118 -0.2914,-1.8062 -0.2947,-3.8251 0,-2.2024 0.033,-2.6251 0.3445,-3.9463 1.342,-5.696 4.8744,-10.25889 9.9988,-12.915595 1.6439,-0.8523 3.7998,-1.5634 5.6915,-1.8772 1.9829,-0.3289 5.387499,-0.2123 7.367599,0.2523 2.8786,0.6755 6.0376,2.2803 8.0277,4.078105 l 0.5132,0.4636 0.6201,-0.3691 c 1.901,-1.1312 4.5598,-2.138605 6.9535,-2.634705 1.3565,-0.2811 1.8794,-0.3172 4.5334,-0.3133 2.5986,0 3.1873,0.045 4.4,0.305 2.087,0.4481 3.8895,1.0678 5.5664,1.914105 l 1.4998,0.7569 0.7002,-0.5654 c 2.1465,-1.733005 4.5419,-2.892905 7.5379,-3.650105 1.3214,-0.3339 1.6348,-0.3613 4.1623,-0.363 2.1416,0 2.9787,0.051 3.8667,0.2402 4.5463,0.9712 8.5131,3.424405 11.2508,6.957895 1.0607,1.369 1.3936,1.8945 2.1201,3.3464 1.3058,2.6096 1.8175,4.7061 1.9171,7.8536 0.1104,3.49251 -0.3699,5.82951 -1.8087,8.80001 -2.8586,5.9019 -8.3639,9.871 -14.9034,10.7447 -1.7372,0.2321 -4.7018,0.082 -6.4574,-0.3264 -3.7773,-0.8793 -7.4849,-3.0227 -9.8899,-5.7176 -3.2051,-3.5916 -4.8085,-7.5065 -4.9881,-12.1796 -0.1008,-2.62161 0.2085,-4.75501 1.0279,-7.09021 l 0.2464,-0.7025 -0.624,-0.3153 c -3.2234,-1.6288 -7.8281,-1.6457 -11.24,-0.041 -1.5559,0.7316 -1.505,0.6464 -1.1151,1.8679 1.0156,3.182 1.0875,6.80261 0.2042,10.28191 -1.8723,7.3748 -8.1226,12.9941 -15.7399,14.151 -1.5299,0.23229 -4.231599,0.2299 -5.599999,-0.01 z m 6.590799,-3.25799 c 5.6023,-1.3305 10.1077,-5.64401 11.724,-11.2246 1.0412,-3.595 0.7494,-7.67771 -0.7877,-11.02111 l -0.4456,-0.9694 0.6592,-0.5211 c 1.7123,-1.3536 3.8234,-2.408 6.0593,-3.0266 0.9441,-0.2612 1.6435,-0.3482 3.2799,-0.4077 3.1131,-0.1133 4.9635,0.2389 7.5608,1.4388 1.1606,0.5362 3.226,1.829 3.226,2.0192 0,0.061 -0.1726,0.4538 -0.3834,0.8733 -2.0011,3.9823 -2.2065,8.9821 -0.54,13.149 0.875,2.188 1.9461,3.7988 3.6452,5.482 1.8066,1.7897 3.7461,2.98651 6.1744,3.8097 3.1795,1.0781 7.0098,1.0812 10.1773,0.01 6.0453,-2.0475 10.2266,-7.2237 10.9373,-13.5394 0.3091,-2.74681 -0.2529,-6.01331 -1.4759,-8.57901 -0.8617,-1.8078 -1.7665,-3.0903 -3.1753,-4.5009 -4.3592,-4.364895 -10.6258,-5.825095 -16.5694,-3.86089 -2.1265,0.7027 -4.4622,2.15619 -6.1298,3.81449 l -0.8919,0.887 -0.983,-0.6685 c -6.6684,-4.534495 -15.993,-4.31559 -22.4116,0.526 l -0.7593,0.5728 -1.2407,-1.2392 c -2.1311,-2.1287 -4.5775,-3.52999 -7.42,-4.25029 -8.596099,-2.178205 -17.238799,2.93089 -19.587699,11.57929 -0.3269,1.2039 -0.3547,1.5089 -0.3557,3.9059 -0.001,2.22121 0.041,2.76641 0.2859,3.74241 0.5637,2.2435 1.5006,4.2406 2.8107,5.9909 2.9309,3.9158 7.2483,6.1761 12.2929,6.43579 1.066099,0.055 3.173199,-0.15279 4.324099,-0.42609 z m -6.124099,-2.3574 c -1.4378,-0.2568 -2.1671,-0.50701 -3.6805,-1.26251 -6.9948,-3.492 -9.5295,-12.2147 -5.5052,-18.9452 0.8047,-1.3457 2.7072,-3.3723 3.9273,-4.1834 1.1822,-0.7859 2.8611,-1.5674 4.1941,-1.9522 0.9355,-0.2701 1.3546,-0.3072 3.464299,-0.3068 2.5858,0 3.0789,0.086 5.0522,0.8809 4.1478,1.6698 7.3675,5.584 8.1375,9.8925 0.4384,2.4531 0.3876,4.0251 -0.2008,6.2105 -0.7034,2.61311 -2.3767,5.13191 -4.5803,6.895 -3.0333,2.42701 -7.0171,3.44841 -10.808599,2.77121 z m 5.657799,-3.3427 c 1.6436,-0.5667 2.8826,-1.3308 4.0687,-2.5096 4.2364,-4.2097 4.1579,-10.94351 -0.1752,-15.03111 -2.8737,-2.7109 -6.8501,-3.5567 -10.617099,-2.2582 -1.641,0.5656 -2.5031,1.1249 -3.9396,2.5557 -1.0401,1.0361 -1.3861,1.489 -1.8983,2.485 -2.9742,5.7835 -0.076,12.8079 6.1037,14.79271 1.9847,0.6375 4.548299,0.6238 6.457799,-0.034 z m 43.6755,3.4198 c -4.685,-0.7234 -8.857,-4.1434 -10.5488,-8.6473 -1.3995,-3.726 -1.0643,-7.97641 0.8962,-11.36471 1.8079,-3.1244 4.5689,-5.2804 8.1193,-6.3401 1.5514,-0.463 4.4903,-0.5848 6.1239,-0.2538 5.3059,1.0751 9.2853,4.8994 10.624,10.2099 0.3781,1.4998 0.3458,4.9894 -0.06,6.4667 -1.2883,4.6922 -5.1075,8.4434 -9.8559,9.6803 -1.193,0.3108 -4.034,0.4443 -5.2989,0.249 z m 5.0439,-3.332 c 4.0202,-1.2145 6.8505,-4.5311 7.4355,-8.713 0.271,-1.93751 -0.1792,-4.34281 -1.1672,-6.23471 -1.2939,-2.4779 -3.7942,-4.4669 -6.5407,-5.203 -1.3831,-0.3707 -3.8346,-0.3985 -5.1715,-0.059 -1.2253,0.3115 -2.8839,1.111 -3.9188,1.8889 -1.7446,1.3114 -3.2722,3.6506 -3.8245,5.8564 -0.2736,1.0923 -0.302,3.34311 -0.057,4.54651 0.6071,2.9877 2.6589,5.7226 5.334,7.11 2.5033,1.2984 5.3306,1.587 7.9106,0.8075 z"
     id="path2" />
  <path
     style="fill:#ededed;stroke-width:0.1"
     d="m 236.52384,99.239685 v -54.538 l 17.5,0.045 c 17.297,0.044 17.5131,0.048 18.6333,0.3272 5.6761,1.413 8.6547,4.8941 9.3297,10.9038 0.1834,1.6324 0.1834,41.0343 0,42.6667 -0.6816,6.069095 -3.7588,9.652895 -9.3395,10.877295 -1.9534,0.4285 -4.3927,0.5151 -14.6235,0.519 h -9.5 v 21.86671 21.8667 h -6 -6 z m 31.5541,-0.034 c 0.8659,-0.2912 1.4285,-0.914 1.7423,-1.9289 0.2223,-0.719 0.2369,-1.947 0.2369,-19.9661 0,-18.019 -0.015,-19.2471 -0.2369,-19.966 -0.3138,-1.0149 -0.8764,-1.6378 -1.7423,-1.9289 -0.6213,-0.2089 -1.595,-0.2353 -10.1208,-0.274 l -9.4333,-0.043 v 22.2117 22.2117 l 9.4333,-0.043 c 8.5258,-0.039 9.4995,-0.065 10.1208,-0.2739 z m 30.5792,12.038395 V 68.710685 h 6.1333 6.1334 v 42.533395 42.5333 h -6.1334 -6.1333 z m 26.1333,37.42861 v -5.10461 l 14.6495,-32.1954 14.6495,-32.195295 -13.7161,-0.034 -13.7162,-0.034 v -5.1994 -5.1994 h 19.8 19.8 v 5.237 5.2369 l -14.5894,32.063095 -14.5895,32.06301 14.5895,0.034 14.5894,0.034 v 5.1994 5.1994 h -20.7333 -20.7334 z m 50.2678,-0.12861 v -5.2334 l 14.592,-32.0666 14.5921,-32.066695 -13.7265,-0.034 -13.7265,-0.034 v -5.1994 -5.1994 h 19.8667 19.8667 v 5.1132 5.1131 l -14.6448,32.186895 -14.6448,32.18681 14.6115,0.067 14.6114,0.067 0.035,5.1666 0.035,5.1667 h -20.7349 -20.7349 z m 65.5322,5.0878 c -1.5197,-0.1978 -3.5248,-0.7637 -4.677,-1.3199 -3.1182,-1.5055 -4.9645,-3.9803 -5.9629,-7.99279 l -0.284,-1.14181 -0.045,-31.0667 c -0.03,-20.780395 0,-31.463995 0.093,-32.266595 0.3947,-3.4421 1.7771,-6.4034 3.7933,-8.1258 1.4214,-1.2144 3.2678,-2.093 5.5405,-2.6364 1.0325,-0.2468 1.6882,-0.2788 6.8448,-0.3342 6.266,-0.067 7.3306,0 9.1127,0.615 1.2764,0.4372 2.7938,1.4056 3.4887,2.2264 0.2726,0.322 0.7197,0.9911 0.9936,1.4869 l 0.4979,0.9014 v -2.6333 -2.6334 h 6.0667 6.0666 v 42.533395 42.5333 h -6.0666 -6.0667 v -2.7 -2.69999 l -0.3133,0.66669 c -0.999,2.12601 -2.9215,3.6438 -5.5316,4.3673 -0.9571,0.2653 -1.3721,0.2843 -6.8192,0.3122 -3.19,0.016 -6.22,-0.025 -6.7333,-0.092 z m 15.2,-10.3919 c 1.1982,-0.1696 2.4504,-0.7787 3.0564,-1.4867 0.2571,-0.3004 0.6047,-0.9429 0.7723,-1.4277 l 0.3047,-0.8815 v -28.2667 -28.266695 l -0.305,-0.7543 c -0.4346,-1.0751 -0.8125,-1.5855 -1.532,-2.069 -1.2485,-0.8391 -1.5233,-0.8764 -6.9421,-0.9409 -5.25,-0.063 -6.5589,0.025 -7.6942,0.5131 -0.7884,0.3392 -1.0818,0.71 -1.4142,1.7874 -0.2357,0.7643 -0.2459,1.9927 -0.2459,29.863695 0,27.4722 0.013,29.1087 0.2369,29.8328 0.4153,1.343 1.1809,1.9222 2.8298,2.1409 0.8781,0.1165 10.0604,0.079 10.9333,-0.044 z M 298.47934,50.488485 c -0.049,-0.049 -0.089,-3.2589 -0.089,-7.1333 v -7.0445 h 6.4 6.4 v 7.1334 7.1333 h -6.3111 c -3.4711,0 -6.3511,-0.04 -6.4,-0.089 z"
     id="path1" />
</svg>
