<?xml version="1.0" encoding="UTF-8" standalone="no"?>
<!-- Created with Inkscape (http://www.inkscape.org/) -->

<svg
   width="52.658104mm"
   height="38.359798mm"
   viewBox="0 0 52.658104 38.359798"
   version="1.1"
   id="svg1"
   xmlns:inkscape="http://www.inkscape.org/namespaces/inkscape"
   xmlns:sodipodi="http://sodipodi.sourceforge.net/DTD/sodipodi-0.dtd"
   xmlns="http://www.w3.org/2000/svg"
   xmlns:svg="http://www.w3.org/2000/svg">
  <sodipodi:namedview
     id="namedview1"
     pagecolor="#ffffff"
     bordercolor="#000000"
     borderopacity="0.25"
     inkscape:showpageshadow="2"
     inkscape:pageopacity="0.0"
     inkscape:pagecheckerboard="0"
     inkscape:deskcolor="#d1d1d1"
     inkscape:document-units="mm" />
  <defs
     id="defs1" />
  <g
     inkscape:label="Layer 1"
     inkscape:groupmode="layer"
     id="layer1">
    <path
       style="fill:#000000;stroke-width:0.0264583"
       d="m 24.284472,38.326285 c -3.02305,-0.1814 -6.108624,-0.8658 -8.425369,-1.86881 -1.290214,-0.55856 -2.593445,-1.34035 -3.16058,-1.89598 -0.16674,-0.16335 -0.211481,-0.23291 -0.247994,-0.38547 -0.08072,-0.3375 0.05305,-0.67315 0.341075,-0.85579 0.356684,-0.22622 0.605551,-0.17857 1.121515,0.21479 0.47678,0.36345 0.960015,0.67831 1.454415,0.94757 3.665485,1.99629 9.631808,2.80599 15.069498,2.04515 3.12293,-0.43695 5.73567,-1.30574 7.57794,-2.51986 0.68413,-0.45085 0.68087,-0.4494 0.96655,-0.43326 0.31234,0.0177 0.50035,0.13955 0.63997,0.41487 0.12655,0.24953 0.12806,0.4553 0.005,0.70191 -0.0768,0.1541 -0.14769,0.22395 -0.43217,0.42567 -1.63965,1.16287 -3.97293,2.08846 -6.72214,2.66663 -1.19496,0.25127 -2.84451,0.46574 -4.20148,0.54625 -0.70136,0.0416 -3.27131,0.0392 -3.9864,-0.004 z m 0.24696,-3.03194 c -0.50774,-0.0884 -0.88096,-0.26596 -0.9824,-0.46734 -0.0583,-0.11586 -0.0621,-0.15414 -0.027,-0.27151 0.084,-0.28036 0.34446,-0.35669 0.66215,-0.19407 0.47461,0.24294 1.95471,0.29696 2.76376,0.10088 0.12612,-0.0306 0.25413,-0.0773 0.2845,-0.10387 0.12626,-0.11044 0.26665,-0.12891 0.43016,-0.0566 0.40267,0.17812 0.2653,0.66257 -0.24164,0.85225 -0.11086,0.0415 -0.3833,0.10647 -0.60539,0.14443 -0.55944,0.0956 -1.72292,0.0935 -2.28415,-0.004 z m 18.44442,-0.86093 c -0.72959,-0.13237 -1.38102,-0.47646 -1.93537,-1.0223 -0.62413,-0.61447 -0.99478,-1.40533 -1.07379,-2.29097 -0.0496,-0.55639 0.0372,-1.18274 0.22897,-1.65148 0.0599,-0.14637 0.0841,-0.25791 0.0713,-0.32811 -0.0656,-0.35941 -0.0872,-0.87431 -0.0516,-1.23052 0.0354,-0.35399 0.0333,-0.39066 -0.0265,-0.46353 -0.42695,-0.52144 -0.5743,-0.71572 -0.74554,-0.98303 -0.11065,-0.17269 -0.31567,-0.43463 -0.45561,-0.58208 -0.35245,-0.3714 -0.51948,-0.60399 -0.69919,-0.97367 -0.376,-0.77351 -0.48186,-1.57967 -0.31464,-2.39649 0.0275,-0.13451 0.0444,-0.25022 0.0375,-0.2571 -0.007,-0.007 -0.15348,-0.0504 -0.32575,-0.0966 -0.6622,-0.17777 -1.13472,-0.45958 -1.65381,-0.98632 -0.47532,-0.48236 -0.76099,-0.96755 -0.93636,-1.59041 -0.0683,-0.24246 -0.0266,-0.23066 -0.56292,-0.15946 -0.65114,0.0864 -1.40555,-0.0243 -1.98284,-0.29099 -0.54438,-0.25151 -1.14843,-0.744192 -1.43735,-1.172314 -0.0655,-0.09702 -0.12219,-0.180817 -0.12605,-0.186188 -0.004,-0.0053 -0.14814,0.03715 -0.3206,0.09451 -0.42621,0.141738 -0.82827,0.194919 -1.26357,0.167138 -0.75044,-0.04794 -1.33236,-0.274532 -1.93349,-0.752925 l -0.23765,-0.189124 -0.2739,0.191002 c -0.73387,0.511731 -1.47013,0.743956 -2.35527,0.742898 -0.71276,0 -1.34114,-0.144542 -1.92926,-0.441167 -0.19677,-0.09924 -0.20111,-0.0998 -0.22362,-0.02889 -0.0447,0.140758 -0.43749,0.687943 -0.6494,0.904584 -0.67066,0.685666 -1.54575,1.078966 -2.507004,1.126756 -0.551895,0.0274 -1.066192,-0.0652 -1.596337,-0.28737 -0.04112,-0.0172 -0.06189,-0.01 -0.06215,0.022 0,0.0262 -0.05334,0.16899 -0.117978,0.31705 -0.490034,1.12236 -1.665102,2.02208 -2.827284,2.16482 -0.349012,0.0428 -0.317077,-0.009 -0.320993,0.51901 -0.004,0.52004 -0.0708,0.86955 -0.261196,1.36327 -0.149755,0.3883 -0.53594,0.95969 -0.846958,1.25306 -0.219366,0.20696 -0.844047,0.65715 -0.911887,0.6572 -0.01244,0 -0.02408,0.25003 -0.02566,0.55563 -0.0034,0.61954 -0.05379,0.8745 -0.271304,1.37646 -0.379571,0.87588 -1.303549,1.7607 -2.3305028,2.23179 -0.319881,0.14671 -0.336973,0.16002 -0.314616,0.24458 0.04429,0.16754 0.01931,0.99917 -0.03791,1.25688 -0.310726,1.40187 -1.324715,2.47118 -2.696051,2.84313 -0.409681,0.11113 -1.217983,0.12877 -1.666769,0.0364 -0.579834,-0.11938 -1.09773,-0.36486 -1.560486,-0.73967 -0.475033,-0.38478 -0.76417,-0.75557 -1.032986,-1.32477 -0.236114,-0.49995 -0.304403,-0.79872 -0.325067,-1.4221 -0.01852,-0.56116 0.02011,-0.86985 0.160972,-1.28429 l 0.06551,-0.19275 -0.285485,-0.19291 c -0.379492,-0.25646 -1.12146304,-0.99981 -1.35739204,-1.3599 -0.242332,-0.36992 -0.437859,-0.78121 -0.555466,-1.16846 -0.08337,-0.27453 -0.09686,-0.38727 -0.109247,-0.91294 -0.01296,-0.54962 -0.0069,-0.62807 0.07313,-0.93906 0.212302,-0.82585 0.720619,-1.5712 1.45534104,-2.13395 0.142875,-0.10943 0.253285,-0.20891 0.245295,-0.22103 -0.0079,-0.0122 -0.103796,-0.157 -0.212963,-0.32192 -0.402167,-0.60753 -0.78851204,-1.51884 -0.96464504,-2.27541 -0.183382,-0.78764 -0.238654,-1.970697 -0.127555,-2.729522 0.310303,-2.11918 1.45586904,-3.941048 3.22302104,-5.125746 0.903209,-0.605499 2.034593,-1.038411 3.060568,-1.171073 0.201083,-0.02593 0.370126,-0.05358 0.375629,-0.0613 0.0056,-0.0077 0.04588,-0.18071 0.08975,-0.384439 0.103346,-0.4802724 0.415766,-1.4117644 0.642064,-1.9144464 1.318895,-2.929863 3.9337188,-5.487077 7.1061528,-6.949599 1.459891,-0.673023 2.655173,-1.021453 4.28625,-1.249465 0.628459,-0.08785 2.272139,-0.08769 2.892799,2.64e-4 1.77717,0.251921 3.15687,0.804297 4.35401,1.743202 0.37544,0.294463 1.02785,0.972664 1.32371,1.376064 l 0.26259,0.358042 0.26657,-0.254368 c 1.86074,-1.775523 4.68112,-2.737133 7.53086,-2.567654 4.14378,0.246433 7.80616,2.512658 9.54752,5.907834 0.62407,1.216792 0.92612,2.361485 0.97401,3.6912024 0.0278,0.771472 -0.0281,1.269021 -0.26019,2.314469 -0.0151,0.06839 0.01,0.07906 0.31297,0.134038 0.66302,0.1202 1.62148,0.491172 2.21682,0.85807 1.76429,1.087199 3.07916,2.925868 3.65233,5.107177 1.02452,3.89895 -0.41958,8.02788 -3.498,10.00154 l -0.35301,0.22632 -0.0552,0.26594 c -0.12975,0.62521 -0.42532,1.2251 -0.88112,1.78824 -0.15988,0.19751 -0.27612,0.3742 -0.27612,0.41971 0,0.13575 -0.17195,0.67889 -0.29874,0.94368 -0.51734,1.08032 -1.49193,1.82862 -2.67343,2.05275 -0.33731,0.064 -0.97044,0.0645 -1.31992,0 z m 1.31112,-1.62589 c 0.64584,-0.20794 1.17588,-0.75486 1.36911,-1.41272 0.0292,-0.0992 0.0645,-0.28974 0.0785,-0.42333 0.0305,-0.29086 0.13798,-0.52009 0.32237,-0.68752 0.52456,-0.47641 0.77899,-0.97534 0.87662,-1.71921 0.0603,-0.45927 0.15925,-0.64217 0.43256,-0.79952 0.1011,-0.0582 0.31486,-0.18158 0.47498,-0.27416 1.41899,-0.82047 2.50767,-2.34641 2.9731,-4.16722 0.20563,-0.80451 0.24614,-1.14366 0.24469,-2.04972 -0.003,-0.92313 -0.0531,-1.36827 -0.24572,-2.11984 -0.31964,-1.247117 -0.91435,-2.340058 -1.74054,-3.198605 -0.54117,-0.562372 -1.01346,-0.910246 -1.64102,-1.208775 -0.73049,-0.347477 -1.22632,-0.469794 -2.01576,-0.497258 -0.57949,-0.02011 -0.74215,-0.05472 -0.91029,-0.193331 -0.28827,-0.237596 -0.34759,-0.613727 -0.16614,-1.05373 0.15867,-0.384783 0.3052,-0.864102 0.39518,-1.292621 0.0701,-0.334063 0.0806,-0.485405 0.0799,-1.160278 0,-0.5887774 -0.0156,-0.8551334 -0.0625,-1.1033924 -0.2491,-1.319186 -0.77785,-2.460254 -1.63975,-3.538616 -0.30472,-0.381239 -0.96497,-1.042617 -1.34761,-1.349931 -1.18387,-0.950809 -2.70147,-1.677339 -4.20237,-2.011818 -0.81053,-0.180631 -1.34168,-0.236164 -2.25346,-0.235601 -1.04873,7.94e-4 -1.836,0.115634 -2.8108,0.410541 -1.54919,0.468667 -2.88753,1.36039 -3.81394,2.541146 -0.27361,0.348721 -0.46538,0.472255 -0.73314,0.472255 -0.37978,0 -0.58965,-0.162587 -0.81052,-0.627883 -0.943,-1.986555 -2.72807,-3.161641 -5.29188,-3.483586 -0.49837,-0.06258 -1.6024,-0.07129 -2.151882,-0.01696 -2.183977,0.2159 -4.391051,1.078892 -6.347698,2.482006 -2.601886,1.865815 -4.4016078,4.596818 -4.7120968,7.1503384 -0.04546,0.373803 -0.116602,0.544089 -0.287549,0.688234 -0.187404,0.158009 -0.318823,0.19312 -0.84926,0.226775 -0.896778,0.05694 -1.555088,0.231166 -2.336085,0.618278 -2.064623,1.023355 -3.341793,3.280939 -3.158014,5.582311 0.110067,1.378481 0.565917,2.450381 1.49524,3.515971 0.314536,0.36062 0.377401,0.61613 0.23106,0.93895 -0.104563,0.23059 -0.189468,0.3062 -0.543851,0.48429 -1.465738,0.73655 -1.985248,1.8867 -1.39647,3.09166 0.341286,0.69847 0.845185,1.16509 1.942015,1.79843 0.277945,0.16049 0.406982,0.37989 0.406876,0.69183 0,0.21172 -0.01376,0.25567 -0.15068,0.48223 -0.429048,0.71011 -0.461381,1.46352 -0.09292,2.16516 0.480192,0.91435 1.602925,1.34734 2.562648,0.98828 0.251064,-0.094 0.576342,-0.29126 0.745887,-0.45249 0.207645,-0.19744 0.45892,-0.60238 0.554091,-0.89295 0.125783,-0.38399 0.117792,-0.91956 -0.01984,-1.33617 -0.109352,-0.33078 -0.121047,-0.55324 -0.03903,-0.74083 0.119327,-0.27284 0.260615,-0.3701 0.79465,-0.54692 0.762132,-0.25239 1.237667,-0.54004 1.6855538,-1.01963 0.530807,-0.56838 0.697548,-1.24597 0.486172,-1.97546 -0.113374,-0.39116 -0.112448,-0.55824 0.0042,-0.79258 0.112237,-0.22522 0.250084,-0.32279 0.630688,-0.44646 0.489241,-0.15896 0.8568,-0.4263 1.124241,-0.8177 0.428254,-0.62677 0.485854,-1.39239 0.160522,-2.13362 -0.221112,-0.50374 -0.09226,-0.94501 0.333878,-1.14345 0.209471,-0.0975 0.358061,-0.10501 0.603859,-0.0305 0.481197,0.14603 1.094687,0.0887 1.559507,-0.14581 0.496437,-0.25043 0.85717,-0.66765 1.042749,-1.20602 0.08684,-0.25194 0.103135,-0.358247 0.111099,-0.724747 0.0077,-0.353007 0.02222,-0.454634 0.08234,-0.570601 0.146367,-0.283025 0.400156,-0.441616 0.704479,-0.440214 0.229288,0 0.415185,0.09324 0.689716,0.342027 1.254998,1.137335 3.203705,0.492972 3.505945,-1.159272 0.0735,-0.401902 0.13483,-0.562186 0.26656,-0.696912 0.1479,-0.151289 0.27692,-0.214604 0.48826,-0.239633 0.26549,-0.03143 0.44263,0.05461 0.81069,0.393806 0.50085,0.461592 0.99126,0.677201 1.62409,0.714084 0.40492,0.02355 0.72115,-0.02566 1.09778,-0.170868 0.42961,-0.165656 0.73184,-0.389282 1.09501,-0.810181 0.31464,-0.364675 0.56425,-0.466249 0.90051,-0.366395 0.23299,0.06919 0.37036,0.186558 0.55488,0.474054 0.37029,0.576924 0.9035,0.884079 1.533,0.8831 0.43526,0 0.79716,-0.124592 1.12511,-0.38526 0.23625,-0.187748 0.3828,-0.249317 0.59362,-0.249317 0.34856,0 0.64061,0.241512 0.78433,0.648679 0.29747,0.842592 1.08604,1.397423 1.98612,1.397423 0.44736,0 0.76563,-0.101017 1.28114,-0.406664 0.19764,-0.117211 0.22847,-0.124778 0.46519,-0.114618 0.32764,0.01402 0.51163,0.130652 0.65609,0.415634 0.0962,0.189707 0.0978,0.202724 0.0756,0.617167 -0.0177,0.331468 -0.0101,0.476728 0.0354,0.669318 0.26564,1.12678 1.29408,1.80679 2.45089,1.62057 0.2526,-0.0407 0.35504,-0.0433 0.47141,-0.0119 0.36539,0.0984 0.59534,0.38885 0.59531,0.75199 -3e-5,0.21672 -0.0422,0.33658 -0.1933,0.54912 -0.2893,0.40696 -0.40606,0.72022 -0.43456,1.16578 -0.0415,0.64847 0.1646,1.16602 0.66406,1.66786 0.17245,0.17324 0.33911,0.36496 0.37036,0.426 0.14227,0.27792 0.57171,0.85545 0.94213,1.26704 0.36118,0.40132 0.41005,0.47119 0.44791,0.64037 0.0375,0.16732 0.0335,0.22542 -0.0336,0.48842 -0.10964,0.42989 -0.12739,0.79314 -0.0564,1.15475 0.11821,0.60245 0.11371,0.69532 -0.0509,1.05272 -0.25654,0.55692 -0.30678,1.05675 -0.15697,1.56163 0.33885,1.14207 1.5495,1.78546 2.67676,1.42253 z m -19.22637,-0.0382 c -0.86808,-0.13566 -1.68355,-0.52494 -2.24269,-1.07059 -0.34629,-0.33798 -0.52671,-0.59719 -0.5265,-0.75655 2.7e-4,-0.15991 0.11518,-0.32308 0.26173,-0.37145 0.19449,-0.0642 0.34713,0.003 0.51067,0.22273 0.40264,0.5425 1.0301,0.93427 1.80187,1.12506 0.46027,0.1138 1.2647,0.10573 1.75344,-0.0177 0.3828,-0.0966 0.84998,-0.29808 1.12869,-0.48675 0.0937,-0.0634 0.31578,-0.26342 0.49363,-0.44453 0.30591,-0.31149 0.33131,-0.32924 0.47096,-0.32924 0.12081,0 0.16936,0.0217 0.26755,0.11993 0.0963,0.0963 0.11993,0.14767 0.11993,0.26072 0,0.38743 -0.86209,1.13406 -1.67761,1.45291 -0.62344,0.24376 -0.86466,0.28906 -1.60322,0.30117 -0.35893,0.006 -0.70025,0.003 -0.75845,-0.006 z m -6.685152,-1.29964 c -0.682308,-0.11718 -1.238647,-0.31535 -1.781519,-0.63455 -0.432912,-0.25455 -0.688473,-0.45257 -1.032325,-0.79989 -0.714322,-0.72149 -1.175517,-1.57779 -1.390095,-2.58085 -0.06294,-0.29416 -0.0771,-0.47789 -0.07797,-1.01206 0,-0.58271 0.0087,-0.69455 0.09115,-1.04412 0.355071,-1.50707 1.289685,-2.71434 2.645516,-3.41725 0.434948,-0.22551 1.005363,-0.41365 1.505876,-0.49668 0.524642,-0.087 1.425442,-0.0562 1.949339,0.0667 0.76163,0.17873 1.59745,0.60333 2.124,1.079 l 0.13578,0.12266 0.16407,-0.0977 c 0.50297,-0.29929 1.20645,-0.56583 1.83978,-0.69709 0.35891,-0.0744 0.49726,-0.0839 1.19946,-0.0829 0.68755,0 0.84331,0.0119 1.16417,0.0807 0.55218,0.11856 1.0291,0.28252 1.47278,0.50644 l 0.39682,0.20026 0.18526,-0.14959 c 0.56793,-0.45853 1.20171,-0.76542 1.9944,-0.96576 0.34962,-0.0883 0.43254,-0.0956 1.10128,-0.096 0.56663,0 0.78811,0.0135 1.02306,0.0636 1.20288,0.25696 2.25243,0.90604 2.97678,1.84095 0.28064,0.36221 0.36872,0.50125 0.56094,0.8854 0.34549,0.69045 0.48088,1.24515 0.50723,2.07793 0.0292,0.92406 -0.0979,1.54239 -0.47855,2.32833 -0.75634,1.56155 -2.21295,2.6117 -3.94319,2.84287 -0.45964,0.0614 -1.24402,0.0217 -1.70852,-0.0864 -0.99941,-0.23265 -1.98038,-0.79975 -2.61671,-1.51278 -0.84801,-0.95028 -1.27224,-1.9861 -1.31976,-3.22252 -0.0267,-0.69363 0.0552,-1.25809 0.27196,-1.87595 l 0.0652,-0.18587 -0.1651,-0.0834 c -0.85286,-0.43096 -2.07119,-0.43543 -2.97392,-0.0109 -0.41167,0.19357 -0.3982,0.17103 -0.29504,0.49422 0.26871,0.8419 0.28774,1.79985 0.054,2.72042 -0.49538,1.95124 -2.14911,3.43802 -4.16452,3.74411 -0.404779,0.0615 -1.119604,0.0608 -1.481659,-0.003 z m 1.743812,-0.86201 c 1.48228,-0.35203 2.67433,-1.49331 3.10198,-2.96984 0.27548,-0.95118 0.19828,-2.03139 -0.20841,-2.916 l -0.1179,-0.25649 0.17441,-0.13787 c 0.45305,-0.35814 1.01161,-0.63712 1.60319,-0.80079 0.24979,-0.0691 0.43484,-0.0921 0.86781,-0.10787 0.82367,-0.03 1.31326,0.0632 2.00046,0.38068 0.30708,0.14187 0.85355,0.48392 0.85355,0.53425 0,0.0161 -0.0457,0.12006 -0.10145,0.23106 -0.52945,1.05365 -0.5838,2.37651 -0.14287,3.479 0.23151,0.57891 0.5149,1.0051 0.96446,1.45045 0.47799,0.47352 0.99115,0.79018 1.63364,1.00798 0.84124,0.28525 1.85468,0.28607 2.69275,0.003 1.59948,-0.54174 2.70578,-1.91127 2.89382,-3.5823 0.0818,-0.72676 -0.0669,-1.59102 -0.3905,-2.26986 -0.22799,-0.47832 -0.46738,-0.81764 -0.84013,-1.19086 -1.15337,-1.15488 -2.81141,-1.54123 -4.38398,-1.02153 -0.56264,0.18592 -1.18063,0.57049 -1.62185,1.00925 l -0.23598,0.23468 -0.26008,-0.17687 c -1.76435,-1.19975 -4.23149,-1.14184 -5.92974,0.13917 l -0.2009,0.15155 -0.32827,-0.32787 c -0.56385,-0.56322 -1.21113,-0.93398 -1.96321,-1.12456 -2.27438,-0.57631 -4.561094,0.77547 -5.182574,3.06369 -0.08649,0.31854 -0.09385,0.39923 -0.09411,1.03344 -2.64e-4,0.58769 0.01085,0.73194 0.07565,0.99018 0.149145,0.59359 0.397034,1.12199 0.743664,1.58509 0.775467,1.03605 1.91778,1.63409 3.252497,1.7028 0.282072,0.0146 0.839575,-0.0404 1.144083,-0.11273 z m -1.620331,-0.62373 c -0.380418,-0.0679 -0.573379,-0.13414 -0.973799,-0.33404 -1.850708,-0.92392 -2.521347,-3.2318 -1.456584,-5.01258 0.21291,-0.35605 0.71628,-0.89225 1.039098,-1.10686 0.31279,-0.20793 0.756999,-0.41471 1.109689,-0.51652 0.247517,-0.0715 0.358404,-0.0813 0.916596,-0.0812 0.684159,0 0.814621,0.0228 1.336731,0.23307 1.09744,0.4418 1.94931,1.47743 2.15304,2.61739 0.116,0.64905 0.10256,1.06497 -0.0531,1.6432 -0.18611,0.69138 -0.62884,1.35781 -1.21188,1.8243 -0.80256,0.64214 -1.856604,0.91239 -2.859771,0.73321 z m 1.496961,-0.88442 c 0.43487,-0.14994 0.76269,-0.35211 1.07651,-0.664 1.12088,-1.11382 1.10011,-2.89547 -0.0464,-3.97698 -0.76033,-0.71726 -1.812419,-0.94104 -2.809104,-0.59748 -0.434182,0.14965 -0.662279,0.29763 -1.042353,0.67619 -0.275193,0.27414 -0.366739,0.39397 -0.502258,0.65749 -0.786924,1.53022 -0.02011,3.38876 1.614937,3.91391 0.525118,0.16867 1.203404,0.16504 1.708628,-0.009 z m 11.55581,0.90482 c -1.23958,-0.1914 -2.34342,-1.09627 -2.79104,-2.28793 -0.37028,-0.98584 -0.2816,-2.11042 0.23712,-3.00691 0.47834,-0.82667 1.20886,-1.39711 2.14823,-1.67749 0.41048,-0.1225 1.18806,-0.15473 1.62028,-0.0671 1.40386,0.28446 2.45674,1.2963 2.81094,2.70137 0.10004,0.39682 0.0915,1.32011 -0.0159,1.71098 -0.34086,1.24148 -1.35136,2.23399 -2.6077,2.56125 -0.31565,0.0822 -1.06733,0.11755 -1.40201,0.0659 z m 1.33453,-0.88159 c 1.06368,-0.32134 1.81253,-1.19886 1.96731,-2.30532 0.0717,-0.51263 -0.0474,-1.14903 -0.30882,-1.64959 -0.34235,-0.65562 -1.00388,-1.18187 -1.73056,-1.37663 -0.36595,-0.0981 -1.01457,-0.10544 -1.3683,-0.0156 -0.32419,0.0824 -0.76303,0.29395 -1.03684,0.49977 -0.4616,0.34697 -0.86577,0.96589 -1.0119,1.54951 -0.0724,0.289 -0.0799,0.88452 -0.0151,1.20292 0.16063,0.7905 0.70351,1.51411 1.41129,1.88119 0.66233,0.34354 1.41039,0.4199 2.09302,0.21365 z"
       id="path2" />
  </g>
</svg>
