<?xml version="1.0" encoding="UTF-8" standalone="no"?>
<!-- Created with Inkscape (http://www.inkscape.org/) -->

<svg
   width="500.00003"
   height="500.00003"
   viewBox="0 0 132.29167 132.29167"
   version="1.1"
   id="svg1"
   sodipodi:docname="pizza-1.svg"
   inkscape:version="1.3.2 (091e20e, 2023-11-25, custom)"
   xmlns:inkscape="http://www.inkscape.org/namespaces/inkscape"
   xmlns:sodipodi="http://sodipodi.sourceforge.net/DTD/sodipodi-0.dtd"
   xmlns="http://www.w3.org/2000/svg"
   xmlns:svg="http://www.w3.org/2000/svg">
  <sodipodi:namedview
     id="namedview1"
     pagecolor="#ffffff"
     bordercolor="#000000"
     borderopacity="0.25"
     inkscape:showpageshadow="2"
     inkscape:pageopacity="0.0"
     inkscape:pagecheckerboard="0"
     inkscape:deskcolor="#d1d1d1"
     inkscape:document-units="mm"
     inkscape:zoom="2.253883"
     inkscape:cx="352.72461"
     inkscape:cy="207.86349"
     inkscape:window-width="3840"
     inkscape:window-height="2066"
     inkscape:window-x="7669"
     inkscape:window-y="-11"
     inkscape:window-maximized="1"
     inkscape:current-layer="layer1" />
  <defs
     id="defs1">
    <inkscape:path-effect
       effect="powerstroke"
       id="path-effect7"
       is_visible="true"
       lpeversion="1.3"
       scale_width="1"
       interpolator_type="CentripetalCatmullRom"
       interpolator_beta="0.75"
       start_linecap_type="round"
       end_linecap_type="round"
       offset_points="3.3388811,1.7608501"
       linejoin_type="spiro"
       miter_limit="4"
       not_jump="true"
       sort_points="true"
       message="&lt;b&gt;Ctrl + click&lt;/b&gt; on existing node and move it" />
    <inkscape:path-effect
       effect="simplify"
       id="path-effect6"
       is_visible="true"
       lpeversion="1.3"
       threshold="0.012"
       steps="1"
       smooth_angles="0"
       helper_size="0"
       simplify_individual_paths="false"
       simplify_just_coalesce="false"
       step="1" />
    <inkscape:path-effect
       effect="powerstroke"
       id="path-effect5"
       is_visible="true"
       lpeversion="1.3"
       scale_width="1"
       interpolator_type="CentripetalCatmullRom"
       interpolator_beta="0.75"
       start_linecap_type="round"
       end_linecap_type="round"
       offset_points="10.925041,1.7608501"
       linejoin_type="spiro"
       miter_limit="4"
       not_jump="true"
       sort_points="true"
       message="&lt;b&gt;Ctrl + click&lt;/b&gt; on existing node and move it" />
    <inkscape:path-effect
       effect="simplify"
       id="path-effect4"
       is_visible="true"
       lpeversion="1.3"
       threshold="0.012"
       steps="1"
       smooth_angles="0"
       helper_size="0"
       simplify_individual_paths="false"
       simplify_just_coalesce="false"
       step="1" />
  </defs>
  <g
     inkscape:label="Layer 1"
     inkscape:groupmode="layer"
     id="layer1"
     transform="translate(-43.788664,-61.735723)">
    <g
       id="g9"
       transform="matrix(0.79496513,0,0,0.80746573,22.540405,24.621582)">
      <path
         style="display:inline;fill:#e9ddaf;fill-opacity:1;stroke:none;stroke-width:0.444;stroke-linejoin:bevel;stroke-dasharray:none;stroke-opacity:1"
         d="m 263.38414,612.26296 c -5.47802,-1.61272 -22.7758,-5.53941 -52.79777,-11.9854 -24.55778,-5.27272 -45.97126,-9.88099 -47.5855,-10.24051 -2.65261,-0.59084 -6.21335,-2.71855 -37.01047,-22.1157 L 91.914921,546.45942 62.212222,508.37944 C 45.875733,487.43546 32.044366,469.60068 31.475848,468.7466 30.90733,467.89252 24.757887,453.07578 17.810418,435.82047 l -12.6317617,-31.37326 2.6297048,-24.08659 2.6297049,-24.08658 4.027279,-15.72688 4.02728,-15.72687 -2.012614,-19.59675 -2.012613,-19.59674 1.7625,-19.69255 c 1.704403,-19.04343 1.908172,-20.54077 6.181869,-45.42591 l 4.419369,-25.73337 11.407158,-25.06785 11.407157,-25.06785 12.54692,-19.07818 12.54692,-19.07819 22.086635,-19.360379 C 108.97357,76.474315 126.29832,61.43676 135.32535,53.705733 l 16.41278,-14.056408 15.30692,-7.678474 15.30692,-7.678475 21.96209,-6.489318 21.9621,-6.489318 23.6064,-3.3037132 23.60639,-3.3037134 21.427,1.9571161 c 75.59369,6.9046365 82.90848,7.6641765 102.73086,10.6671855 l 19.18884,2.907029 10.3158,4.569918 c 7.55066,3.344957 13.82416,5.712153 23.40432,8.831212 l 13.08852,4.261293 18.15711,9.294916 18.15707,9.294914 8.81265,7.471191 c 8.1577,6.915949 9.45373,8.229575 17.4392,17.675802 7.37536,8.724499 9.95087,11.395139 17.75686,18.41267 8.35407,7.5102 9.90447,9.1511 18.23538,19.30002 l 9.10504,11.09197 13.49999,26.95879 c 9.45967,18.89058 16.47885,33.66224 23.45357,49.35745 l 9.95358,22.39867 1.9926,42.63823 1.99261,42.63823 -3.76005,20.11362 -3.76004,20.11361 -15.37165,32.0863 -15.37165,32.08629 -16.09232,24.62716 -16.09231,24.62717 -19.2691,17.91477 -19.26911,17.91482 -28.99968,20.23028 -28.99964,20.23034 -42.31295,23.6234 -42.31295,23.62341 -28.45381,8.6615 -28.45381,8.6615 -19.74371,2.65794 c -10.85904,1.46184 -20.34267,2.74762 -21.07474,2.8572 -0.82015,0.12282 -4.45816,-0.72133 -9.47829,-2.19927 z m 32.10591,-42.44612 8.42989,0.13337 3.2234,-1.56122 3.22341,-1.56117 6.09385,0.47456 6.09385,0.47456 5.54598,-1.40323 5.54599,-1.40326 17.52531,-10.27569 c 9.63892,-5.65163 35.99344,-21.61386 58.56559,-35.47154 l 41.04029,-25.19585 14.75706,-17.18812 c 14.26876,-16.61936 15.24503,-17.64683 29.50464,-31.05257 l 14.74757,-13.86451 11.83549,-8.04678 11.83548,-8.04679 4.92568,-8.11257 4.92568,-8.11258 4.65082,-13.23481 4.65086,-13.23481 2.882,-16.44696 2.88205,-16.44697 5.74529,-10.60587 c 3.96103,-7.31204 7.00444,-13.68287 9.79948,-20.51352 l 4.05416,-9.90765 -1.14429,-13.56239 -1.14429,-13.56239 -6.87458,-18.46917 -6.87458,-18.46917 -3.30687,-19.88283 -3.30687,-19.88283 L 545.30115,178.4481 535.27986,161.51212 517.87475,141.83951 500.46963,122.1669 474.07074,103.27613 C 459.55136,92.886209 447.07289,84.140152 446.34082,83.840447 c -0.73207,-0.299705 -11.69486,-4.187192 -24.36177,-8.63886 l -23.03073,-8.093943 -7.13942,2.247402 -7.13942,2.247401 -8.4299,-0.650313 C 366.9393,70.23467 353.47483,67.91553 324.64756,62.065847 l -16.5414,-3.356607 -26.49544,2.480173 -26.49544,2.480178 -23.46572,4.202148 -23.46572,4.202152 -16.02168,9.024701 c -10.57204,5.955016 -21.16465,11.479811 -31.14168,16.242573 l -15.11998,7.217875 -7.16901,10.05752 -7.16901,10.05753 -7.55564,5.76764 c -7.35,5.61067 -7.85617,6.10576 -18.59725,18.19065 -6.072886,6.83265 -14.642808,16.40922 -19.044274,21.28126 l -8.002669,8.85825 -6.531741,16.41305 -6.531736,16.41306 -0.186567,37.95291 -0.186567,37.95292 -2.187643,18.85635 -2.187637,18.85634 -4.249209,15.24405 -4.249209,15.24404 0.701571,24.68704 0.701571,24.68705 4.213586,18.5827 c 2.317472,10.22048 4.384665,18.80567 4.593766,19.07818 7.633133,9.94815 23.037407,30.38045 32.137138,42.62682 l 11.87573,15.98229 8.75533,6.913 c 4.81544,3.80215 12.54879,9.37919 17.18524,12.39341 7.13116,4.63609 10.13875,6.25809 19.52186,10.52823 6.10058,2.77628 17.98008,7.65058 26.39889,10.83176 15.98529,6.04033 25.37706,9.95264 38.87967,16.19613 6.99904,3.23628 8.52641,3.77828 11.75749,4.17209 2.04242,0.24895 5.29171,0.97184 7.22065,1.60643 3.00701,0.98923 3.97589,1.11412 6.79401,0.87591 2.2995,-0.19438 4.91111,-0.0194 8.694,0.58237 2.97393,0.4731 9.05284,1.28401 13.50867,1.80205 5.40494,0.62834 9.09688,1.29652 11.09197,2.00738 2.6753,0.95329 3.41128,1.03186 6.98356,0.74582 2.19621,-0.17587 7.78656,-0.25977 12.42301,-0.18643 z"
         id="path4"
         transform="matrix(0.26458333,0,0,0.26458333,26.728542,45.963735)" />
      <path
         d="m 95.12253,209.72552 c -0.43656,-0.0706 -2.40109,-0.65926 -4.36562,-1.3082 -1.96453,-0.64894 -4.92931,-1.41786 -6.5884,-1.70872 -1.65909,-0.29085 -3.22107,-0.63829 -3.47107,-0.77209 -0.43395,-0.23224 -4.1478,-1.14299 -7.53532,-1.8479 -2.72072,-0.56615 -4.61469,-1.16916 -6.61459,-2.10599 -0.58208,-0.27267 -2.20048,-0.92616 -3.59643,-1.4522 -1.39596,-0.52604 -3.18189,-1.35641 -3.968751,-1.84528 -0.786858,-0.48886 -2.538809,-1.5272 -3.893227,-2.30742 -1.901746,-1.09551 -3.086531,-2.05128 -5.202304,-4.19671 -7.217693,-7.31885 -8.402156,-8.63147 -9.191908,-10.18645 -0.443447,-0.87313 -1.132737,-2.00422 -1.531752,-2.51355 -0.399016,-0.50932 -1.092952,-1.64041 -1.542079,-2.51354 -0.791501,-1.53871 -1.80743,-3.07194 -3.263112,-4.92464 -0.765093,-0.97376 -3.926059,-6.95873 -3.926059,-7.4336 0,-0.1605 -0.299543,-0.68453 -0.665649,-1.16452 -1.065038,-1.39634 -1.619544,-2.97589 -2.083639,-5.93539 -0.238636,-1.52177 -0.567021,-3.42169 -0.729745,-4.22205 -0.532135,-2.61733 -0.05817,-10.1284 0.798105,-12.64782 1.232247,-3.62564 1.464125,-4.87204 1.456323,-7.82805 -0.0088,-3.33753 -0.523698,-11.92699 -0.763374,-12.7347 -0.08723,-0.29398 -0.02611,-1.4846 0.135808,-2.64583 0.161928,-1.16122 0.405376,-3.36147 0.540997,-4.88944 0.13562,-1.52796 0.438173,-3.54632 0.672343,-4.48522 0.234167,-0.93891 0.456874,-2.68586 0.494903,-3.88212 0.05295,-1.66568 0.211413,-2.44314 0.676669,-3.31998 0.33414,-0.62973 0.761886,-2.010128 0.95055,-3.067549 0.188664,-1.057418 0.633619,-2.60523 0.98879,-3.439583 0.355172,-0.83435 0.901592,-2.16961 1.214271,-2.967241 0.312677,-0.797634 1.218504,-2.539529 2.01295,-3.870881 0.794446,-1.331351 1.444448,-2.549834 1.444448,-2.70774 0,-0.157906 0.364209,-0.701913 0.809352,-1.208903 0.445143,-0.506992 1.409298,-2.267307 2.142564,-3.911811 1.403483,-3.147603 1.555856,-3.332406 6.26118,-7.593727 0.706985,-0.640273 1.63146,-1.711095 2.054391,-2.379602 0.845889,-1.337061 2.345103,-2.905093 3.947965,-4.12918 0.571648,-0.436562 1.936168,-1.614016 3.032268,-2.616568 1.096097,-1.002548 2.647748,-2.25557 3.448112,-2.78449 1.42614,-0.942465 3.57706,-2.449539 4.10104,-2.873449 1.75586,-1.42053 6.58676,-4.028618 7.4621,-4.028618 0.2986,0 0.69112,-0.178593 0.87228,-0.396875 0.18116,-0.218281 0.49386,-0.396875 0.69491,-0.396875 0.20104,0 1.16873,-0.40232 2.15041,-0.894044 2.16638,-1.085131 4.46246,-2.028753 5.35676,-2.201465 0.3638,-0.07026 1.01865,-0.284542 1.45521,-0.476183 1.36455,-0.599007 5.83619,-1.547939 9.26042,-1.965166 1.16416,-0.141849 3.00963,-0.447399 4.10104,-0.679001 1.0914,-0.231602 2.40109,-0.35662 2.91041,-0.277818 0.50933,0.0788 3.42636,0.203128 6.4823,0.27628 3.05593,0.07315 6.92546,0.248397 8.59895,0.389435 8.32484,0.701594 11.42421,1.039194 11.71724,1.276297 0.17672,0.142996 1.98818,0.513732 4.02547,0.823857 7.00426,1.066218 8.73398,1.399735 9.86282,1.901709 0.62235,0.27675 1.41327,0.503183 1.75763,0.503183 0.34433,0 0.69458,0.178593 0.77835,0.396875 0.0838,0.218281 0.33359,0.396875 0.55515,0.396875 0.22153,0 1.69296,0.521795 3.2698,1.159545 1.57684,0.63775 3.27454,1.238701 3.77264,1.335449 1.37665,0.267369 4.60036,1.662877 7.37735,3.193547 3.72097,2.051 5.85465,3.60657 7.94599,5.793092 2.26219,2.365092 6.0184,6.123982 9.89137,9.898398 1.1462,1.117042 2.56601,2.746397 3.15513,3.620789 0.58912,0.874392 1.1429,1.649336 1.2306,1.722096 0.0877,0.07276 0.30869,0.429948 0.49107,0.79375 0.18238,0.363802 0.27213,0.453099 0.19942,0.198438 -0.15193,-0.532268 -0.0423,-0.566278 0.64296,-0.19952 0.27078,0.144928 0.73922,0.9233 1.04093,1.729719 0.62523,1.671089 0.64928,1.80441 0.28479,1.579149 -0.27059,-0.167243 -0.0196,0.668396 0.49115,1.635525 0.13962,0.264356 0.87336,1.730804 1.63055,3.258772 1.40459,2.834508 1.84626,3.542467 1.84626,2.95946 0,-0.176755 -0.53557,-1.361427 -1.19015,-2.632604 -0.65458,-1.271177 -1.19036,-2.460059 -1.19062,-2.64196 0,-0.728834 0.45759,-0.247663 1.261,1.322917 0.46522,0.909505 1.14562,2.187585 1.51199,2.840177 0.36637,0.652595 0.66611,1.408121 0.66611,1.678948 0,0.270831 0.21699,0.808453 0.48218,1.194718 0.72316,1.053288 1.33384,2.475638 2.31939,5.402107 0.48924,1.452814 1.17999,3.022256 1.53495,3.487646 0.36177,0.4743 0.7061,1.36112 0.78349,2.0179 0.076,0.64445 0.44931,1.94564 0.82973,2.89152 0.61857,1.53816 0.70255,2.15292 0.79502,5.82084 0.0569,2.25557 0.23731,6.60135 0.4009,9.65729 0.42129,7.86875 0.35938,9.3252 -0.52308,12.30312 -1.70675,5.75957 -2.54363,8.27064 -3.16267,9.4894 -0.26864,0.52891 -0.79148,1.92358 -1.16184,3.09928 -0.83132,2.63897 -3.94827,9.09694 -4.87947,10.10974 -0.18286,0.19888 -0.468,0.6202 -0.6336,0.93628 -0.16563,0.31607 -0.6513,1.02139 -1.07924,1.56736 -0.8391,1.07052 -2.37619,3.7918 -3.69853,6.54794 -0.45381,0.94589 -1.43071,2.4553 -2.17085,3.35425 -0.74017,0.89894 -1.94106,2.44448 -2.66867,3.43452 -1.64579,2.23939 -3.46493,4.08343 -4.94842,5.01616 -1.24828,0.78485 -4.98232,3.78968 -6.77212,5.44962 -0.62547,0.58009 -1.8161,1.52155 -2.64583,2.09214 -5.09955,3.5068 -8.6459,5.84177 -9.63451,6.34354 -0.624,0.31671 -1.49003,0.87315 -1.9245,1.23653 -0.83344,0.69705 -6.05385,3.3604 -8.72974,4.45374 -0.87024,0.35556 -2.01231,0.94452 -2.53797,1.3088 -1.03788,0.71926 -2.60769,1.59723 -4.47878,2.50494 -1.77432,0.86076 -5.96537,2.95506 -7.26729,3.63151 -0.6282,0.32641 -1.87599,0.78146 -2.77287,1.01123 -0.89688,0.22977 -2.48733,0.75521 -3.53433,1.16764 -3.35743,1.32256 -5.52818,1.83286 -9.04739,2.12686 -1.89177,0.15805 -4.63021,0.41277 -6.08541,0.56605 -3.29385,0.34695 -6.36718,0.47361 -7.40834,0.30531 z m 4.93448,-2.59555 c 0,-0.13824 -0.12799,-0.29402 -0.28443,-0.34616 -0.15643,-0.0522 -0.28442,0.10363 -0.28442,0.34616 0,0.24254 0.12799,0.39831 0.28442,0.34617 0.15644,-0.0521 0.28443,-0.20792 0.28443,-0.34617 z m -7.7126,-0.77813 c 0,-0.27926 -0.50777,-0.39659 -0.65879,-0.15222 -0.0914,0.14789 0.0194,0.26889 0.2463,0.26889 0.22687,0 0.41249,-0.0525 0.41249,-0.11667 z m 10.31875,-0.53717 c 0.94588,-0.19531 2.93032,-0.35676 4.40986,-0.35877 1.47953,-0.002 2.93022,-0.13217 3.22374,-0.28927 0.29353,-0.15709 0.95114,-0.28562 1.46136,-0.28562 0.51022,0 1.75284,-0.29765 2.76138,-0.66145 1.00855,-0.36381 2.0025,-0.66146 2.20879,-0.66146 0.20628,0 0.84213,-0.23813 1.41299,-0.52917 0.57086,-0.29104 1.22439,-0.52917 1.45228,-0.52917 0.22789,0 0.66707,-0.177 0.97593,-0.39334 0.30887,-0.21634 1.20892,-0.56195 2.0001,-0.76803 0.79118,-0.20608 2.31806,-0.92204 3.39305,-1.59103 1.075,-0.66899 2.2187,-1.21635 2.54157,-1.21635 0.32287,0 1.04032,-0.25708 1.59434,-0.57128 1.12227,-0.63649 4.63756,-2.91947 4.84377,-3.14576 0.24294,-0.26659 2.30005,-0.78087 3.12346,-0.78087 0.56891,0 1.18166,-0.31898 2.04031,-1.06213 1.30037,-1.12548 2.51447,-1.84829 3.10454,-1.84829 0.19638,0 1.09456,-0.53663 1.99594,-1.19251 0.90136,-0.65588 2.41141,-1.66537 3.35566,-2.24332 0.94424,-0.57794 2.53947,-1.73795 3.54494,-2.5778 1.00544,-0.83984 2.28743,-1.76512 2.84882,-2.05616 1.31387,-0.68114 2.77106,-1.68606 4.59258,-3.16717 0.80037,-0.65078 1.99099,-1.56747 2.64584,-2.03709 2.12841,-1.52641 5.82078,-4.48908 5.82242,-4.67179 0,-0.098 1.0628,-1.3407 2.35987,-2.76163 2.44488,-2.67839 4.1784,-5.10103 5.44036,-7.60295 0.40368,-0.80036 1.05352,-1.87192 1.44404,-2.38125 0.87435,-1.14026 3.31619,-5.09414 4.57523,-7.40833 0.51462,-0.94588 1.43267,-3.19729 2.0401,-5.00313 0.60746,-1.80583 1.32244,-3.71083 1.58887,-4.23333 1.01042,-1.98138 3.65319,-10.28693 3.96658,-12.46589 0.55809,-3.88019 -0.0175,-18.65823 -0.91175,-23.4091 -0.83032,-4.41129 -2.03041,-7.54214 -5.3752,-14.022921 -0.30043,-0.582083 -0.72419,-1.475052 -0.94173,-1.984374 -1.17782,-2.757702 -3.20392,-6.7319 -3.81214,-7.47743 -0.14706,-0.180279 -0.71967,-1.220747 -1.27246,-2.312154 -0.55277,-1.091406 -1.30913,-2.364078 -1.68077,-2.828157 -0.37166,-0.464082 -1.12088,-1.433632 -1.66494,-2.154558 -0.97356,-1.290016 -1.00999,-1.30965 -2.30026,-1.240033 -1.10646,0.0597 -1.40626,-0.03166 -1.92119,-0.585494 -0.82336,-0.885523 -1.70276,-1.200341 -2.36419,-0.846352 -0.38497,0.206036 -0.63206,0.197236 -0.90871,-0.03236 -0.55311,-0.459042 -0.46799,-1.507739 0.1492,-1.838048 0.75295,-0.402965 0.66043,-1.002789 -0.39688,-2.572781 -0.50932,-0.756301 -0.92604,-1.495634 -0.92604,-1.642962 0,-0.425379 -4.73416,-5.044673 -5.17011,-5.044673 -0.44953,0 -1.33321,-0.460656 -2.10593,-1.097775 -0.77938,-0.642625 -5.40033,-3.400142 -5.69785,-3.400142 -0.14039,0 -0.25527,-0.119062 -0.25527,-0.264583 0,-0.145521 -0.12404,-0.264583 -0.27562,-0.264583 -0.15158,0 -1.01478,-0.341686 -1.91823,-0.759302 -0.90345,-0.417615 -2.11886,-0.908248 -2.70095,-1.090295 -0.58208,-0.182046 -1.17144,-0.435673 -1.30968,-0.563615 -0.13825,-0.127942 -0.64651,-0.232622 -1.12946,-0.232622 -0.48294,0 -1.71992,-0.294116 -2.74881,-0.653589 -1.02888,-0.359476 -1.94939,-0.633484 -2.04554,-0.608907 -0.0961,0.02458 -0.93851,-0.347726 -1.87188,-0.827335 -2.2604,-1.161494 -3.70211,-1.573191 -6.24046,-1.782037 -2.05976,-0.169469 -2.10516,-0.160664 -1.68879,0.327504 0.7185,0.842385 0.5208,1.356446 -0.58997,1.534066 -0.54997,0.08794 -1.2909,0.02733 -1.64652,-0.134704 -0.61951,-0.28227 -0.6269,-0.314277 -0.17644,-0.764736 0.25858,-0.258574 0.68683,-0.591402 0.95167,-0.739617 0.41186,-0.230489 0.31793,-0.313538 -0.64915,-0.573947 -1.34026,-0.360894 -2.99706,-0.270271 -3.14219,0.17187 -0.0567,0.172806 0.12309,0.540424 0.3996,0.816928 0.49392,0.493926 0.47914,0.500577 -0.84336,0.379516 -0.74036,-0.06777 -1.54663,-0.227029 -1.79173,-0.353907 -0.24509,-0.126878 -0.87017,-0.230688 -1.38906,-0.230688 -0.51889,0 -0.94343,-0.107804 -0.94343,-0.239564 0,-0.135156 0.92249,-0.176335 2.11666,-0.09449 1.84579,0.126513 2.11667,0.08945 2.11667,-0.289602 0,-0.283296 -0.22273,-0.434682 -0.63952,-0.434682 -0.35174,0 -1.16662,-0.225938 -1.81084,-0.502083 -1.37367,-0.588823 -5.54533,-1.076254 -10.38193,-1.21306 -1.89177,-0.05351 -4.61564,-0.195509 -6.05305,-0.315553 -1.92689,-0.160924 -2.64467,-0.136867 -2.73227,0.09157 -0.0821,0.214152 -0.40399,0.141568 -1.0423,-0.235039 -0.83592,-0.493206 -1.17897,-0.527346 -3.61773,-0.360026 -1.48183,0.101666 -4.00392,0.370178 -5.60465,0.596694 -10.86023,1.536808 -12.8238,2.066291 -19.59413,5.283595 -1.02688,0.487979 -1.9606,0.887233 -2.07493,0.887233 -0.11434,0 -0.51062,0.238125 -0.88062,0.529167 -0.7898,0.62126 -0.4364,0.697497 0.63397,0.136763 1.99452,-1.044877 5.399,-2.518013 5.81923,-2.518013 0.80681,0 -0.50135,0.755523 -3.03894,1.755132 -2.19677,0.865349 -3.73217,1.602954 -4.01562,1.929109 -0.0728,0.08372 -0.66808,0.437284 -1.32292,0.785701 -2.40476,1.279475 -6.87917,5.177041 -6.87917,5.992302 0,0.518258 -0.43207,0.491167 -0.63584,-0.03986 -0.14781,-0.385191 -0.23203,-0.380598 -0.88821,0.04843 -0.93111,0.608803 -2.763931,2.649214 -3.106154,3.457971 -0.145521,0.343903 -0.800365,0.908249 -1.455208,1.254104 -0.654844,0.345858 -1.326198,0.892289 -1.491898,1.214295 -0.165704,0.322003 -0.701485,0.822886 -1.190625,1.11307 -1.540508,0.913903 -7.380174,6.864591 -8.002194,8.154329 -0.315822,0.654843 -1.09425,2.07428 -1.729843,3.154304 -0.635592,1.080024 -1.564888,2.849486 -2.065104,3.932137 -0.500216,1.082651 -1.316456,2.534933 -1.813867,3.227295 -0.497412,0.692359 -0.908122,1.363681 -0.912688,1.491821 -0.0046,0.12814 -0.361755,0.944327 -0.79375,1.813748 -0.431996,0.869421 -0.785448,1.749192 -0.785448,1.955048 0,0.396 -1.233945,4.643919 -2.124035,7.312101 -0.297103,0.89062 -0.509016,2.16824 -0.482735,2.91042 0.02577,0.7276 -0.338577,3.40651 -0.809649,5.95312 -0.831064,4.49274 -0.851836,4.77946 -0.699566,9.65729 0.08631,2.7649 0.34286,6.93209 0.570108,9.26042 l 0.413182,4.23333 -0.974236,3.94496 c -0.675539,2.73545 -0.925838,4.24764 -0.81638,4.93216 0.177387,1.10931 -0.262974,2.39846 -1.170299,3.42601 -0.556062,0.62975 -0.577377,0.82703 -0.444564,4.11524 0.123201,3.05031 0.233156,3.68394 0.941218,5.42396 0.440947,1.08359 1.249352,3.22033 1.796455,4.7483 0.547103,1.52797 1.371565,3.43297 1.832142,4.23333 0.460573,0.80037 1.142536,1.99706 1.515472,2.65933 0.372935,0.66226 1.171837,1.79336 1.775336,2.51354 0.603498,0.72018 1.636971,2.38099 2.296604,3.69067 0.659635,1.30969 1.415354,2.61938 1.679377,2.91042 0.264022,0.29104 0.961191,1.42214 1.549262,2.51354 0.893186,1.65767 2.043792,2.97538 6.98868,8.00365 3.255701,3.3106 6.074191,6.01927 6.263309,6.01927 0.519192,0 3.983068,1.79955 5.035738,2.61616 0.93198,0.723 2.93406,1.66807 4.89479,2.31059 3.60634,1.18176 5.2537,1.90512 5.31673,2.33459 0.10267,0.69954 0.34248,0.81536 0.70527,0.34059 0.34618,-0.45301 0.14989,-0.46965 4.29675,0.36424 3.33397,0.67043 4.63021,1.10634 4.63021,1.55709 0,0.59699 0.81234,1.30635 1.46275,1.2773 0.28689,-0.0128 0.72998,0.0649 0.98464,0.17263 0.33017,0.1397 0.46302,0.0739 0.46302,-0.22926 0,-0.26775 -0.22619,-0.42518 -0.61088,-0.42518 -0.64313,0 -1.73679,-0.65094 -1.49683,-0.8909 0.0772,-0.0772 0.65194,-0.0106 1.27715,0.14812 0.78846,0.20013 1.20754,0.47478 1.36786,0.89644 0.23805,0.62613 1.24221,1.33002 1.51221,1.06002 0.0837,-0.0837 -0.0456,-0.37057 -0.28724,-0.63758 -0.68847,-0.76075 -0.54723,-0.80877 1.13347,-0.3854 1.38678,0.34933 1.59261,0.4863 1.74014,1.15804 0.2389,1.08768 0.75881,1.3252 0.60487,0.27634 -0.0671,-0.45723 -0.0253,-0.83133 0.0928,-0.83133 0.11814,0 1.43698,0.40546 2.93074,0.90103 1.49376,0.49557 2.95406,0.96132 3.2451,1.035 0.82552,0.209 5.10699,-0.08 7.01146,-0.47321 z m -1.62145,-7.82309 c -0.67352,-0.11068 -1.46974,-0.33244 -1.76938,-0.49281 -0.67507,-0.36128 -4.78997,-0.80912 -7.49092,-0.81525 -1.18519,-0.003 -2.41027,-0.1684 -2.96807,-0.40146 -0.52242,-0.21829 -1.25086,-0.39688 -1.61876,-0.39688 -0.8621,0 -3.54124,-0.92191 -5.5658,-1.91524 -2.66619,-1.30813 -5.50984,-2.48843 -6.4285,-2.66824 -0.80196,-0.15697 -3.56132,-1.24632 -5.47775,-2.16252 -0.43656,-0.20871 -1.15093,-0.45842 -1.5875,-0.55489 -0.43656,-0.0965 -1.15093,-0.38719 -1.5875,-0.64603 -0.43656,-0.25883 -1.51808,-0.76293 -2.40338,-1.12021 -1.75709,-0.70912 -5.858182,-3.36133 -7.121617,-4.60561 -3.049678,-3.00344 -5.750732,-5.99082 -6.536449,-7.22934 -1.03137,-1.62575 -2.248271,-3.13192 -4.27536,-5.29167 -1.949784,-2.07739 -2.593234,-3.00847 -3.934151,-5.69281 -0.910256,-1.82221 -1.262139,-2.90187 -1.50768,-4.62594 -0.176165,-1.23693 -0.449966,-2.96333 -0.608449,-3.83646 -0.470821,-2.59389 -0.492697,-16.56701 -0.02941,-18.78541 0.212733,-1.01865 0.47715,-2.46516 0.587592,-3.21448 0.110443,-0.74931 0.400955,-1.66786 0.645584,-2.04121 0.244628,-0.37335 0.44478,-0.97626 0.44478,-1.33979 0,-0.36354 0.244618,-1.28157 0.543595,-2.04008 0.492752,-1.25013 0.517567,-1.59129 0.265326,-3.64782 -0.343177,-2.79795 -0.362566,-5.84058 -0.03722,-5.84058 0.133393,0 0.295688,0.14883 0.360651,0.33073 0.06652,0.18624 0.220636,0.2314 0.35278,0.10337 0.134464,-0.13029 -0.01953,-0.39825 -0.360654,-0.62759 -0.420049,-0.28239 -0.595312,-0.66223 -0.595312,-1.29019 0,-0.48949 -0.141359,-1.4185 -0.314129,-2.06447 -0.257887,-0.96421 -0.233368,-1.63995 0.136937,-3.77411 0.288333,-1.66171 0.42553,-3.64965 0.380278,-5.51003 -0.05475,-2.25094 0.02705,-3.12025 0.361011,-3.83646 0.237492,-0.50932 0.57617,-1.62279 0.752615,-2.474364 0.517443,-2.497341 0.983443,-3.36492 5.270574,-9.812549 2.265095,-3.406584 6.798262,-8.389718 9.02313,-9.918771 1.087508,-0.747395 3.438018,-3.047037 3.443108,-3.368593 0.006,-0.360751 2.7172,-3.03467 4.39687,-4.335949 1.72156,-1.33373 2.72494,-1.839773 3.6479,-1.839773 0.33828,0 1.55307,-0.617884 2.69953,-1.373076 1.14646,-0.755192 2.63958,-1.677927 3.31805,-2.050521 0.67848,-0.372594 2.10723,-1.261276 3.175,-1.974847 2.15999,-1.443469 2.98798,-1.699956 5.97435,-1.850673 1.12886,-0.05697 2.48343,-0.289804 3.01014,-0.517401 0.60364,-0.260834 2.02637,-0.452609 3.8486,-0.518766 1.68292,-0.0611 3.16226,-0.25033 3.54025,-0.45286 0.38407,-0.205783 1.79491,-0.380948 3.4536,-0.428787 2.58995,-0.0747 4.34103,-0.304771 9.01404,-1.184357 1.53183,-0.288332 1.89769,-0.275849 2.77813,0.09479 0.55769,0.234765 1.39217,0.490665 1.8544,0.568664 0.46223,0.078 1.3552,0.375258 1.98437,0.660572 0.62918,0.285316 1.56067,0.573251 2.07,0.63986 0.50932,0.06661 1.93228,0.269515 3.16213,0.450903 1.97382,0.291118 2.38155,0.277498 3.47623,-0.116147 1.16343,-0.418364 1.33608,-0.41828 2.791,0.0013 0.85296,0.246028 2.01188,0.699699 2.57536,1.008153 0.62068,0.339759 1.06558,0.451559 1.12869,0.283622 0.0637,-0.16965 1.00734,-0.258053 2.43197,-0.227843 1.92293,0.04077 2.56494,0.169521 3.69117,0.740222 0.74984,0.379976 1.72686,0.690867 2.17115,0.690867 0.44429,0 1.53329,0.294788 2.41999,0.655084 0.88669,0.360297 2.01541,0.730735 2.50827,0.823196 0.49287,0.09246 0.89612,0.258344 0.89612,0.368631 0,0.110286 0.39743,0.265012 0.88318,0.343839 0.87873,0.142597 4.27569,2.029904 5.19475,2.886138 0.26503,0.246923 1.11929,0.876827 1.89833,1.399786 7.02853,4.718124 7.22278,4.866622 8.04437,6.149576 0.82817,1.293212 3.97018,4.571666 4.38142,4.571666 0.55276,0 2.66533,1.968492 3.16619,2.950255 0.28165,0.55208 0.89831,1.439463 1.37035,1.971961 1.98845,2.243056 4.512,5.978353 5.79094,8.571534 1.20078,2.434701 1.39406,3.056136 1.56355,5.027088 0.19402,2.25575 1.59073,8.12595 2.58123,10.84848 0.29106,0.80005 1.02211,2.7408 1.62451,4.31276 1.4473,3.77666 1.78292,5.47166 1.38099,6.97444 -0.16994,0.63538 -0.30898,2.03153 -0.30898,3.10255 0,2.34425 -0.46905,3.78299 -1.81536,5.56839 -2.10798,2.79554 -3.09332,5.25966 -3.30768,8.27208 -0.0746,1.04761 -0.27769,2.17026 -0.45136,2.49479 -0.17367,0.32451 -0.42296,1.54818 -0.55398,2.71925 -0.19669,1.75798 -0.53893,2.79919 -1.96289,5.97188 -1.547,3.44671 -1.90736,4.02877 -3.49745,5.64881 -1.74379,1.77666 -2.94275,2.58533 -4.32456,2.91686 -0.41849,0.1004 -2.22639,1.70358 -4.49792,3.98859 -5.32961,5.36121 -10.63736,10.91803 -11.76851,12.32073 -0.52715,0.65371 -1.21168,1.36342 -1.52114,1.57712 -0.30948,0.21371 -1.30844,1.0183 -2.21991,1.78799 -0.91146,0.76969 -1.76249,1.39944 -1.89116,1.39944 -0.12869,0 -1.05074,0.62508 -2.04901,1.38906 -2.14511,1.64169 -2.79308,2.0409 -5.25052,3.23486 -1.01865,0.49492 -2.16343,1.19473 -2.54397,1.55513 -0.66104,0.62608 -5.97371,3.9078 -8.63126,5.33168 -0.69311,0.37135 -1.73644,0.95314 -2.31852,1.29286 -2.49781,1.45778 -4.21542,2.32757 -6.3022,3.19139 -2.11273,0.87457 -2.3688,0.91853 -5.10481,0.87634 -2.03046,-0.0313 -3.27089,0.0814 -4.20341,0.38199 -1.64176,0.52917 -4.10757,0.7289 -5.72249,0.46351 z m -0.80959,-2.56638 c -0.0487,-0.25299 -0.30545,-0.50175 -0.57052,-0.5528 -0.41274,-0.0795 -0.43946,-0.0134 -0.18609,0.45999 0.35815,0.6692 0.87994,0.73321 0.75661,0.0928 z m 6.61657,-1.27769 c 0.39009,-0.0831 0.98275,-0.26186 1.31702,-0.39731 0.87213,-0.35339 1.11019,-0.30756 1.12591,0.21675 0.0116,0.38871 0.0805,0.36748 0.42914,-0.13229 0.42604,-0.61075 1.25475,-0.79446 1.53539,-0.34038 0.0867,0.14021 0.89735,0.20759 1.80155,0.14972 1.39976,-0.0896 2.14504,-0.36439 5.0165,-1.84976 1.85487,-0.95951 3.80625,-2.03892 4.3364,-2.39869 0.53014,-0.35976 1.15655,-0.65412 1.39202,-0.65412 0.41937,0 5.01693,-2.94167 6.4329,-4.11599 0.39444,-0.32712 1.28741,-0.80677 1.98438,-1.06589 0.69697,-0.25912 1.68393,-0.78465 2.19326,-1.16785 0.50932,-0.38321 1.52135,-1.03321 2.24896,-1.44446 0.7276,-0.41125 1.84848,-1.17728 2.49084,-1.70229 1.16517,-0.95231 1.50667,-1.19255 4.97382,-3.49928 1.39557,-0.92848 2.09402,-1.6272 2.9093,-2.91042 0.63357,-0.99723 1.74697,-2.23026 2.71931,-3.01153 2.24086,-1.80053 2.66883,-2.21328 3.56645,-3.43958 1.01211,-1.38275 2.91629,-3.46257 4.2367,-4.62751 0.57898,-0.51081 2.36492,-2.20881 3.96875,-3.77334 1.60385,-1.56453 3.64876,-3.44049 4.54427,-4.16882 1.39509,-1.13464 1.79583,-1.67439 2.79908,-3.76999 0.64397,-1.34516 1.38594,-3.21966 1.64883,-4.16555 0.26289,-0.94588 0.69995,-2.47647 0.97126,-3.40131 0.2713,-0.92483 0.49749,-2.17499 0.50268,-2.77812 0.0161,-1.86812 1.1752,-5.82456 2.34045,-7.9885 0.30967,-0.57509 1.08119,-1.77823 1.7145,-2.67365 1.25272,-1.7712 1.39615,-2.3218 1.64846,-6.3284 0.16396,-2.60394 0.15489,-2.65869 -1.03942,-6.26565 -0.66264,-2.00131 -1.51021,-4.32303 -1.88346,-5.15937 -1.05995,-2.37503 -2.34235,-8.06121 -2.37178,-10.51645 -0.0295,-2.461227 -0.45841,-3.580459 -2.63625,-6.879171 -0.76859,-1.164166 -1.62573,-2.492234 -1.90479,-2.951263 -1.67828,-2.760802 -14.41159,-15.437278 -15.50649,-15.437278 -0.41447,0 -3.8186,-2.341343 -5.27608,-3.628856 -1.97861,-1.747877 -2.9019,-2.292733 -5.26145,-3.104909 -3.23268,-1.112713 -3.56746,-1.203735 -4.42728,-1.203735 -0.4522,0 -0.98199,-0.15979 -1.17729,-0.355087 -0.64934,-0.649337 -1.53569,-0.993497 -3.55244,-1.379365 -1.09871,-0.210219 -2.04429,-0.382214 -2.10129,-0.382214 -0.057,0 -0.3466,0.47625 -0.64356,1.058333 -0.62765,1.230299 -0.87357,1.280202 -2.12345,0.43089 -1.29075,-0.877094 -6.02408,-1.638874 -7.30504,-1.175674 -0.70244,0.254006 -1.23734,0.251339 -2.54353,-0.01267 -2.03671,-0.411676 -6.84023,-1.859132 -7.23697,-2.180733 -0.62015,-0.502706 -2.62135,-0.541814 -4.20663,-0.08221 -0.89239,0.25872 -3.09359,0.539324 -5.02709,0.640842 -1.89177,0.09933 -3.61817,0.257111 -3.83646,0.350628 -0.54314,0.232701 -4.31473,0.712364 -7.67291,0.975828 -6.1144,0.479698 -6.71139,0.577898 -8.3291,1.370087 -0.87022,0.426148 -1.64413,0.868317 -1.71979,0.982602 -0.0757,0.114284 -0.73288,0.535315 -1.46049,0.935622 -0.7276,0.400309 -1.50151,0.877728 -1.71979,1.060934 -0.21828,0.183203 -0.78909,0.464661 -1.26847,0.625462 -0.47938,0.160803 -1.19375,0.516149 -1.5875,0.789659 -0.39375,0.273513 -1.10286,0.664123 -1.5758,0.868024 -0.47294,0.203899 -0.8599,0.460724 -0.8599,0.570722 0,0.109998 -0.33387,0.199996 -0.74195,0.199996 -0.87184,0 -2.89798,1.218311 -3.68043,2.213031 -0.30171,0.383561 -0.66656,0.697386 -0.81079,0.697386 -0.14422,0 -0.43998,0.271306 -0.65725,0.6029 -0.21727,0.331595 -1.19017,1.425909 -2.16201,2.431807 -0.97183,1.005901 -1.96452,2.163344 -2.20598,2.572102 -0.24146,0.408755 -0.56217,0.748017 -0.7127,0.753914 -0.15052,0.0059 -0.92852,0.541473 -1.728886,1.190165 -0.800364,0.648692 -1.991479,1.586502 -2.646923,2.084022 -0.655442,0.497523 -1.50958,1.301401 -1.898086,1.786398 -0.388507,0.485 -1.066324,1.283158 -1.506265,1.773685 -0.439942,0.490527 -0.872472,1.222322 -0.961181,1.626211 -0.181536,0.826529 -0.770438,1.432943 -1.652649,1.701789 -0.327422,0.09978 -0.595312,0.283951 -0.595312,0.409271 0,0.12532 -0.156422,0.385188 -0.347607,0.577482 -0.782085,0.786635 -2.470732,4.993135 -3.326762,8.287123 -0.68947,2.65307 -0.961023,7.89355 -0.514679,9.9324 0.173951,0.79458 0.335722,2.67072 0.359492,4.1692 0.03558,2.24304 -0.02246,2.69932 -0.328451,2.5819 -0.30055,-0.11533 -0.337423,0.0858 -0.192698,1.05084 0.09843,0.65641 0.183292,2.88783 0.188579,4.95873 0.0093,3.65339 -0.02633,3.89891 -1.200013,8.26318 -0.665294,2.47385 -1.295143,5.27182 -1.399667,6.21771 -0.277619,2.51232 -0.184314,12.59086 0.132271,14.2875 0.149344,0.80036 0.400905,2.51418 0.559025,3.80848 0.301424,2.46735 0.709631,3.73033 2.071989,6.4107 0.452937,0.89113 0.823521,1.77023 0.823521,1.95356 0,0.18333 0.922734,1.25559 2.050521,2.38281 3.00573,3.00421 3.855365,3.95292 4.81753,5.37927 0.475523,0.70493 2.131071,2.51892 3.678997,4.03109 2.263744,2.21145 2.737194,2.79975 2.419744,3.00676 -0.314312,0.20498 -0.327779,0.32426 -0.0661,0.58589 0.26163,0.26163 0.32851,0.23694 0.32851,-0.12128 0,-0.60832 0.44679,-0.56893 0.78848,0.0695 0.17058,0.31873 0.43687,0.45833 0.68943,0.36141 0.25569,-0.0981 0.78015,0.18956 1.38503,0.75971 0.53544,0.50469 1.30723,1.16782 1.7151,1.47361 0.85907,0.64406 4.81846,2.0237 5.17514,1.80325 0.13257,-0.0819 0.38816,0.0283 0.56799,0.245 0.17983,0.21668 0.41702,0.39396 0.52709,0.39396 0.11007,0 0.8805,0.4097 1.71206,0.91044 0.83156,0.50074 1.88106,0.99151 2.33221,1.0906 0.76855,0.1688 0.78907,0.20297 0.32537,0.54204 -0.58684,0.42911 -0.5225,0.52545 0.52535,0.78659 0.72292,0.18017 0.76056,0.15806 0.42478,-0.24947 -0.53077,-0.64418 -0.20127,-0.80191 0.70075,-0.33546 0.42811,0.22138 1.3619,0.54247 2.07511,0.71353 0.71321,0.17105 1.65393,0.50968 2.09049,0.7525 0.43656,0.24282 1.36882,0.65838 2.07168,0.92345 1.13415,0.42774 1.2601,0.55301 1.11944,1.11345 -0.1775,0.7072 0.23151,0.87289 0.49025,0.19861 0.15014,-0.39126 0.2202,-0.3849 0.72843,0.0661 0.40744,0.3616 0.59431,0.4075 0.67854,0.16666 0.0639,-0.18281 0.25489,-0.24372 0.42436,-0.13537 0.16947,0.10835 1.02251,0.20603 1.89563,0.21706 0.87313,0.011 2.63942,0.22316 3.92509,0.47138 1.28567,0.24823 3.2502,0.52484 4.36562,0.6147 1.11543,0.0899 2.23414,0.26907 2.48605,0.39823 0.43583,0.22347 3.71021,0.77928 4.83366,0.82049 0.29104,0.0107 0.86388,-0.0749 1.27298,-0.1902 0.64331,-0.1813 0.76769,-0.12476 0.92061,0.41844 l 0.17681,0.62807 0.0899,-0.59488 c 0.0599,-0.39613 0.32688,-0.64534 0.79918,-0.74592 z m 1.6353,0.64811 c 0,-0.14552 -0.11906,-0.191 -0.26458,-0.10106 -0.14552,0.0899 -0.26459,0.28258 -0.26459,0.4281 0,0.14552 0.11907,0.191 0.26459,0.10106 0.14552,-0.0899 0.26458,-0.28258 0.26458,-0.4281 z m 6.04215,-0.0489 c 0.22524,-0.27139 0.0914,-0.35026 -0.62906,-0.37068 -0.87386,-0.0248 -1.12174,0.15609 -0.73878,0.53904 0.2932,0.2932 1.06347,0.1984 1.36784,-0.16836 z m -19.00673,-0.17515 c 0,-0.1404 -0.2309,-0.37884 -0.51311,-0.52988 -0.6602,-0.35332 -0.99696,0.12099 -0.35235,0.49627 0.59527,0.34655 0.86546,0.35705 0.86546,0.0336 z m 16.29943,-0.46681 c -0.26895,-0.26896 -0.49086,0.13596 -0.27019,0.49301 0.16669,0.26973 0.22901,0.26993 0.31863,0.001 0.0613,-0.18383 0.0395,-0.40617 -0.0484,-0.49409 z m -18.68068,0.15956 c 0,-0.54306 -1.06053,-0.7623 -2.10722,-0.43564 -0.58728,0.18329 -1.06778,0.41086 -1.06778,0.5057 0,0.0949 0.71437,0.16572 1.5875,0.15749 0.87312,-0.008 1.5875,-0.11062 1.5875,-0.22755 z m -5.60604,-0.69121 c -0.0487,-0.25298 -0.30545,-0.50174 -0.57052,-0.55279 -0.41274,-0.0795 -0.43946,-0.0134 -0.18609,0.45998 0.35815,0.66921 0.87994,0.73321 0.75661,0.0928 z m -17.29756,-7.24065 c -0.0805,-0.13027 -0.45977,-0.23686 -0.8428,-0.23686 -0.65907,0 -0.66947,0.0197 -0.1939,0.36744 0.52188,0.38161 1.29321,0.28445 1.0367,-0.13058 z M 61.86441,63.540602 c 0.24694,-0.246944 0.38805,-0.246944 0.635,0 0.24694,0.246943 0.17639,0.3175 -0.3175,0.3175 -0.49389,0 -0.56445,-0.07056 -0.3175,-0.3175 z M 143.0331,56.96428 c -0.61278,-0.617808 -0.40847,-0.934284 0.34337,-0.531913 0.32253,0.172603 0.48094,0.44913 0.39124,0.682895 -0.0829,0.216061 -0.16777,0.385765 -0.18859,0.377115 -0.0209,-0.0087 -0.26652,-0.246292 -0.54602,-0.528097 z m -3.85744,-1.541616 c 0,-0.145521 0.11906,-0.338167 0.26458,-0.428104 0.14552,-0.08994 0.26458,-0.04446 0.26458,0.101063 0,0.145521 -0.11906,0.338166 -0.26458,0.428104 -0.14552,0.08994 -0.26458,0.04446 -0.26458,-0.101063 z m -8.06979,-1.883312 c -0.0899,-0.145521 -0.0374,-0.264584 0.11667,-0.264584 0.15411,0 0.2802,0.119063 0.2802,0.264584 0,0.145521 -0.0525,0.264583 -0.11668,0.264583 -0.0642,0 -0.19026,-0.119062 -0.28019,-0.264583 z m -38.2323,-2.447396 c 0,-0.312394 -0.49492,-0.426947 -2.18281,-0.505224 -0.40018,-0.01856 -0.7276,-0.119133 -0.7276,-0.223499 0,-0.262377 2.72119,-0.562414 2.93913,-0.324068 0.35313,0.38617 0.53601,1.38352 0.2537,1.38352 -0.15533,0 -0.28242,-0.148828 -0.28242,-0.330729 z m 15.64637,-0.217855 c -0.46245,-0.185164 -0.55363,-0.337074 -0.34978,-0.582705 0.60288,-0.726424 4.81175,-0.144074 4.81175,0.665767 0,0.286191 -3.71237,0.217084 -4.46197,-0.08306 z m -3.21095,155.329829 c 0,-0.14552 -0.11906,-0.26458 -0.26458,-0.26458 -0.14552,0 -0.26459,0.11906 -0.26459,0.26458 0,0.14552 0.11907,0.26458 0.26459,0.26458 0.14552,0 0.26458,-0.11906 0.26458,-0.26458 z m 2.84978,-0.0496 c -0.16353,-0.49059 -0.73311,-0.57196 -0.73311,-0.10473 0,0.23041 0.18851,0.41892 0.41892,0.41892 0.23041,0 0.37179,-0.14138 0.31419,-0.31419 z m -28.07019,-3.24808 c -0.12535,-0.37605 -0.7729,-0.34635 -0.90214,0.0414 -0.0614,0.18417 0.12357,0.29834 0.44417,0.27418 0.30215,-0.0228 0.50824,-0.16476 0.45797,-0.31556 z m -2.09231,-0.1915 c -0.0576,-0.17281 -0.24619,-0.36135 -0.4191,-0.41899 -0.19334,-0.0644 -0.25248,0.0565 -0.15359,0.3142 0.18455,0.48093 0.73143,0.581 0.57269,0.10479 z m -1.18386,-0.77156 c -0.20927,-0.20927 -0.43041,-0.21155 -0.78052,-0.008 -0.42827,0.24893 -0.39224,0.28494 0.292,0.292 0.5692,0.006 0.70146,-0.071 0.48852,-0.28396 z M 180.27738,81.970648 c -0.0862,-0.224557 -0.21341,-0.351541 -0.28279,-0.282186 -0.0693,0.06936 -0.0476,0.253085 0.0483,0.408287 0.26088,0.422132 0.41338,0.340124 0.23447,-0.126101 z m -0.85222,-1.24977 c -0.2613,-0.25936 -0.29171,-0.22897 -0.14812,0.148114 0.0993,0.260937 0.24731,0.407781 0.32878,0.326319 0.0815,-0.08146 1.5e-4,-0.294955 -0.18066,-0.474433 z M 166.75847,65.986352 c -0.47294,-0.551077 -0.85482,-1.166077 -0.84863,-1.366666 0.0114,-0.363648 2.10334,1.838063 2.10469,2.214978 0.003,0.409276 -0.42254,0.122899 -1.25606,-0.848312 z"
         style="display:inline;fill:#000000;stroke-width:0.264583"
         id="path1"
         sodipodi:insensitive="true" />
    </g>
  </g>
</svg>
