<?xml version="1.0" encoding="UTF-8" standalone="no"?>
<!-- Created with Inkscape (http://www.inkscape.org/) -->

<svg
   width="210mm"
   height="297mm"
   viewBox="0 0 210 297"
   version="1.1"
   id="svg1"
   inkscape:version="1.3.2 (091e20e, 2023-11-25, custom)"
   sodipodi:docname="back-3.svg"
   inkscape:export-filename="back-2-example.png"
   inkscape:export-xdpi="96"
   inkscape:export-ydpi="96"
   xml:space="preserve"
   xmlns:inkscape="http://www.inkscape.org/namespaces/inkscape"
   xmlns:sodipodi="http://sodipodi.sourceforge.net/DTD/sodipodi-0.dtd"
   xmlns:xlink="http://www.w3.org/1999/xlink"
   xmlns="http://www.w3.org/2000/svg"
   xmlns:svg="http://www.w3.org/2000/svg"><sodipodi:namedview
     id="namedview1"
     pagecolor="#ffffff"
     bordercolor="#000000"
     borderopacity="0.25"
     inkscape:showpageshadow="2"
     inkscape:pageopacity="0.0"
     inkscape:pagecheckerboard="0"
     inkscape:deskcolor="#d1d1d1"
     inkscape:document-units="mm"
     inkscape:zoom="0.55685651"
     inkscape:cx="205.6185"
     inkscape:cy="495.63935"
     inkscape:window-width="1920"
     inkscape:window-height="1122"
     inkscape:window-x="-8"
     inkscape:window-y="-8"
     inkscape:window-maximized="1"
     inkscape:current-layer="layer1"
     showgrid="false" /><defs
     id="defs1"><rect
       x="-421.78784"
       y="723.4152"
       width="372.74274"
       height="255.03451"
       id="rect19" /><rect
       x="-956.37941"
       y="963.73618"
       width="354.35082"
       height="154.49205"
       id="rect18" /><rect
       x="-636.36015"
       y="924.5001"
       width="388.6824"
       height="225.60745"
       id="rect17" /><rect
       x="-627.77725"
       y="897.52529"
       width="242.77324"
       height="163.07495"
       id="rect15" /><rect
       x="-622.87274"
       y="230.51196"
       width="158.17044"
       height="114.02985"
       id="rect13" /><rect
       x="-616.74211"
       y="593.44569"
       width="188.82363"
       height="164.30108"
       id="rect6" /><rect
       x="1225.0753"
       y="845.32796"
       width="283.50999"
       height="93.636328"
       id="rect11" /><linearGradient
       id="SVGID_1_"
       gradientUnits="userSpaceOnUse"
       x1="-277.375"
       y1="406.60181"
       x2="-277.375"
       y2="407.5726"
       gradientTransform="matrix(40,0,0,-39.7778,11115.001,16212.334)"><stop
         offset="0"
         style="stop-color:#0062E0"
         id="stop1-1" /><stop
         offset="1"
         style="stop-color:#19AFFF"
         id="stop2-4" /></linearGradient><radialGradient
       id="c"
       cx="158.429"
       cy="578.08801"
       r="65"
       xlink:href="#a"
       gradientUnits="userSpaceOnUse"
       gradientTransform="matrix(0,-1.98198,1.8439,0,-1031.402,454.004)"
       fx="158.429"
       fy="578.08801" /><linearGradient
       id="a"><stop
         offset="0"
         stop-color="#fd5"
         id="stop4" /><stop
         offset=".1"
         stop-color="#fd5"
         id="stop5" /><stop
         offset=".5"
         stop-color="#ff543e"
         id="stop6" /><stop
         offset="1"
         stop-color="#c837ab"
         id="stop7" /></linearGradient><radialGradient
       id="d"
       cx="147.694"
       cy="473.45499"
       r="65"
       xlink:href="#b"
       gradientUnits="userSpaceOnUse"
       gradientTransform="matrix(0.17394,0.86872,-3.5818,0.71718,1648.348,-458.493)"
       fx="147.694"
       fy="473.45499" /><linearGradient
       id="b"><stop
         offset="0"
         stop-color="#3771c8"
         id="stop1" /><stop
         stop-color="#3771c8"
         offset=".128"
         id="stop2" /><stop
         offset="1"
         stop-color="#60f"
         stop-opacity="0"
         id="stop3" /></linearGradient><clipPath
       clipPathUnits="userSpaceOnUse"
       id="clipPath2"><path
         d="M 0,700 H 700 V 0 H 0 Z"
         transform="translate(-600.00002,-350.00001)"
         id="path2-5" /></clipPath><style
       id="style1">.cls-1{fill:#fff;}</style></defs><g
     inkscape:label="Layer 1"
     inkscape:groupmode="layer"
     id="layer1"><rect
       id="rect2"
       width="210"
       height="297"
       x="0"
       y="1.4210855e-14"
       fill="#0a9869"
       style="stroke-width:0.70637" /><path
       style="fill:#a80c0b;stroke-width:0.0834584"
       d="m 98.55059,130.89419 c -9.535704,-0.57217 -19.268654,-2.731 -26.576445,-5.89483 -4.069793,-1.7619 -8.180615,-4.22792 -9.969535,-5.98056 -0.525957,-0.51527 -0.667112,-0.73469 -0.782272,-1.21592 -0.254558,-1.06458 0.167488,-2.12333 1.075878,-2.69945 1.12508,-0.71357 1.910107,-0.56326 3.537616,0.67753 1.503936,1.14644 3.02824,2.13962 4.587741,2.98899 11.562168,6.29694 30.381997,8.85101 47.534327,6.4511 9.8508,-1.37833 18.09222,-4.11878 23.90338,-7.94853 2.15798,-1.42214 2.14773,-1.41753 3.04882,-1.36664 0.98523,0.0558 1.57827,0.44019 2.01869,1.30863 0.39918,0.7871 0.40396,1.43617 0.0161,2.21406 -0.24228,0.48609 -0.46589,0.70641 -1.36323,1.3427 -5.17202,3.6681 -12.53199,6.58772 -21.20392,8.41147 -3.76932,0.79259 -8.97253,1.46911 -13.25289,1.72306 -2.21232,0.1312 -10.31882,0.12367 -12.57445,-0.0121 z m 0.779017,-9.56377 c -1.601569,-0.27884 -2.778822,-0.8389 -3.098794,-1.47411 -0.183885,-0.36548 -0.1962,-0.48626 -0.08522,-0.85644 0.264973,-0.88433 1.086555,-1.12513 2.088607,-0.61217 1.497079,0.76632 6.16585,0.93671 8.71783,0.31821 0.39786,-0.0965 0.8016,-0.24383 0.89744,-0.32764 0.39826,-0.34836 0.8411,-0.40662 1.35688,-0.17852 1.27016,0.56181 0.83685,2.08996 -0.76225,2.68827 -0.34969,0.1309 -1.20904,0.33581 -1.9096,0.45559 -1.76464,0.30187 -5.43465,0.29492 -7.204992,-0.0126 z m 58.180023,-2.71564 c -2.30138,-0.41753 -4.35622,-1.50291 -6.10487,-3.22468 -1.96868,-1.93825 -3.13785,-4.43288 -3.38706,-7.2265 -0.15647,-1.75508 0.11736,-3.73079 0.72226,-5.20932 0.18893,-0.4617 0.26528,-0.81357 0.22491,-1.03498 -0.20692,-1.13369 -0.27508,-2.757896 -0.16278,-3.881505 0.11131,-1.116573 0.10515,-1.232244 -0.0835,-1.462101 -1.34678,-1.644802 -1.81156,-2.257629 -2.3517,-3.100819 -0.34902,-0.54474 -0.99577,-1.370956 -1.43719,-1.836068 -1.11174,-1.171521 -1.63861,-1.905227 -2.20545,-3.071281 -1.18603,-2.439919 -1.51994,-4.982825 -0.9925,-7.559353 0.0869,-0.424281 0.14004,-0.789272 0.11857,-0.810983 -0.0221,-0.02206 -0.48419,-0.158965 -1.02758,-0.304706 -2.0888,-0.560745 -3.5793,-1.449666 -5.21665,-3.111159 -1.49934,-1.521529 -2.40044,-3.051982 -2.95358,-5.016696 -0.21545,-0.764806 -0.0839,-0.727571 -1.77567,-0.502983 -2.05393,0.272525 -4.43361,-0.07663 -6.25457,-0.917892 -1.71718,-0.793374 -3.6225,-2.347452 -4.53389,-3.697898 -0.20662,-0.305967 -0.3854,-0.570357 -0.39761,-0.587297 -0.0134,-0.01588 -0.46727,0.117027 -1.01124,0.298089 -1.34445,0.447083 -2.61267,0.614835 -3.98573,0.5272 -2.36715,-0.151087 -4.20273,-0.865948 -6.09893,-2.374964 l -0.74962,-0.596574 -0.86394,0.602478 c -2.31492,1.614209 -4.63729,2.346705 -7.429338,2.343367 -2.248266,0 -4.230435,-0.455939 -6.08552,-1.391578 -0.620688,-0.312909 -0.634367,-0.314806 -0.705396,-0.09113 -0.141021,0.443975 -1.380001,2.170002 -2.048411,2.853352 -2.115526,2.162846 -4.87582,3.403448 -7.907961,3.554157 -1.740852,0.08642 -3.363122,-0.205339 -5.035399,-0.906427 -0.129567,-0.05432 -0.195255,-0.03158 -0.196205,0.06942 0,0.08264 -0.168131,0.533053 -0.372152,1.000079 -1.545722,3.540315 -5.25229,6.378332 -8.918201,6.828581 -1.100905,0.134996 -1.000184,-0.0284 -1.012513,1.637147 -0.01291,1.640374 -0.223325,2.742848 -0.823914,4.300178 -0.472357,1.224864 -1.690536,3.027215 -2.671607,3.952608 -0.691929,0.652825 -2.662389,2.072868 -2.876369,2.073031 -0.03916,0 -0.07607,0.788688 -0.08106,1.752621 -0.0096,1.954262 -0.169694,2.7585 -0.855774,4.341858 -1.197291,2.762817 -4.111834,5.553828 -7.351184,7.039818 -1.009043,0.46277 -1.062952,0.50476 -0.992419,0.77148 0.139736,0.52849 0.06089,3.15175 -0.119541,3.96463 -0.980115,4.42198 -4.178586,7.79495 -8.50426,8.9682 -1.29227,0.35055 -3.841924,0.40622 -5.257561,0.11482 -1.82898,-0.37656 -3.462614,-1.15089 -4.922288,-2.33316 -1.498404,-1.21373 -2.410451,-2.38333 -3.2584,-4.17878 -0.744772,-1.57702 -0.960182,-2.51944 -1.025384,-4.4858 -0.05835,-1.77007 0.0634,-2.7438 0.507785,-4.05108 l 0.206613,-0.60799 -0.900535,-0.6085 c -1.19704,-0.80897 -3.537466,-3.153754 -4.28167,-4.289601 -0.764393,-1.166837 -1.381161,-2.464198 -1.752144,-3.685706 -0.263072,-0.865965 -0.305655,-1.221585 -0.344579,-2.879732 -0.04101,-1.733681 -0.02208,-1.981139 0.230582,-2.962106 0.669666,-2.605011 2.273081,-4.956127 4.590641,-6.731198 0.450659,-0.345185 0.798929,-0.658987 0.773728,-0.697209 -0.02524,-0.03844 -0.327391,-0.495233 -0.671749,-1.015448 -1.268583,-1.916357 -2.48723,-4.79094 -3.042805,-7.177412 -0.578474,-2.484492 -0.752816,-6.21627 -0.402369,-8.609874 0.978794,-6.684616 4.592311,-12.431388 10.166505,-16.168333 2.849032,-1.909955 6.417823,-3.275496 9.654082,-3.693985 0.634275,-0.0817 1.167517,-0.169074 1.184865,-0.193359 0.01892,-0.02523 0.14478,-0.570022 0.28326,-1.212627 0.325969,-1.514963 1.311449,-4.453204 2.025274,-6.038828 4.160262,-9.241802 12.408294,-17.308119 22.415218,-21.921404 4.605017,-2.122941 8.375337,-3.222007 13.520301,-3.941262 1.982395,-0.2772622 7.1671,-0.2766357 9.124864,8.49e-4 5.605828,0.794644 9.95786,2.53701 13.73401,5.498653 1.18428,0.928826 3.24219,3.068106 4.17543,4.340563 l 0.82834,1.129411 0.84085,-0.802368 c 5.86938,-5.600627 14.76583,-8.633841 23.7549,-8.099278 13.07088,0.777361 24.62331,7.925793 30.11614,18.635343 1.96853,3.838173 2.92131,7.448917 3.07235,11.64331 0.0877,2.433473 -0.089,4.002921 -0.82076,7.300627 -0.0476,0.215749 0.0316,0.2495 0.98726,0.422796 2.09138,0.379159 5.11467,1.549315 6.99256,2.706659 5.5652,3.42939 9.71276,9.229187 11.52073,16.109747 3.2317,12.298649 -1.3235,25.322698 -11.03393,31.548272 l -1.11346,0.71392 -0.17412,0.83882 c -0.40927,1.97214 -1.34157,3.86439 -2.77932,5.64073 -0.50435,0.623 -0.87098,1.18034 -0.87098,1.32391 0,0.42822 -0.54239,2.14144 -0.94233,2.97671 -1.63186,3.4077 -4.70606,5.76806 -8.4329,6.47504 -1.06404,0.20188 -3.06109,0.20345 -4.16352,0 z m 4.13567,-5.12861 c 2.03722,-0.65591 3.70918,-2.38108 4.31864,-4.45619 0.0922,-0.31324 0.20348,-0.91397 0.24761,-1.33534 0.0963,-0.91746 0.43524,-1.64053 1.01688,-2.16867 1.65465,-1.50274 2.45715,-3.07655 2.76513,-5.42296 0.19019,-1.448664 0.50236,-2.025629 1.36447,-2.521969 0.31891,-0.183577 0.99313,-0.572759 1.49825,-0.864781 4.47597,-2.588045 7.91006,-7.401383 9.37817,-13.144834 0.64862,-2.537697 0.77641,-3.607492 0.77181,-6.465521 -0.01,-2.911861 -0.16752,-4.315985 -0.77508,-6.686702 -1.00827,-3.93384 -2.88416,-7.381345 -5.49023,-10.089498 -1.70708,-1.773903 -3.19681,-2.87121 -5.17638,-3.812874 -2.30418,-1.096062 -3.8682,-1.481907 -6.35836,-1.56852 -1.82791,-0.06342 -2.34102,-0.17255 -2.87139,-0.609832 -0.90928,-0.749471 -1.0964,-1.935915 -0.52405,-3.323828 0.50052,-1.213733 0.96273,-2.725667 1.24655,-4.077366 0.22113,-1.053739 0.25424,-1.531148 0.25203,-3.659917 0,-1.857213 -0.0493,-2.697373 -0.19714,-3.480467 -0.7858,-4.161174 -2.45362,-7.760495 -5.17238,-11.162012 -0.96118,-1.20256 -3.0438,-3.288781 -4.25078,-4.258137 -3.73438,-2.999179 -8.52139,-5.290911 -13.25574,-6.345971 -2.55665,-0.569773 -4.23209,-0.744931 -7.10815,-0.743163 -3.30805,0.0026 -5.79136,0.364768 -8.86626,1.294983 -4.88663,1.478346 -9.10825,4.291133 -12.03048,8.015651 -0.86302,1.099985 -1.46792,1.489639 -2.31253,1.489639 -1.19795,0 -1.85995,-0.512834 -2.55669,-1.980547 -2.97453,-6.266257 -8.605217,-9.972891 -16.692335,-10.988433 -1.57204,-0.197462 -5.054523,-0.224906 -6.787802,-0.05363 -6.888982,0.681024 -13.850874,3.403225 -20.022803,7.829114 -8.207223,5.885424 -13.884153,14.499931 -14.863546,22.554612 -0.143524,1.17908 -0.367795,1.716243 -0.907031,2.170903 -0.591154,0.498417 -1.005667,0.609162 -2.678856,0.715342 -2.828748,0.179492 -4.905284,0.729158 -7.368825,1.950263 -6.512514,3.227998 -10.541144,10.349201 -9.961438,17.608508 0.347197,4.348209 1.785103,7.729345 4.716496,11.09058 0.992166,1.137512 1.190447,1.943483 0.728843,2.961763 -0.329819,0.72733 -0.597653,0.965863 -1.715489,1.527613 -4.623444,2.323346 -6.262156,5.951262 -4.404942,9.752156 1.076514,2.203239 2.665986,3.675088 6.125762,5.672825 0.876749,0.506269 1.283752,1.198305 1.283438,2.182295 0,0.66785 -0.04353,0.80648 -0.475299,1.52112 -1.353366,2.23993 -1.455348,4.61641 -0.293036,6.82965 1.514682,2.88417 5.056155,4.24997 8.083471,3.11733 0.791928,-0.2965 1.817975,-0.91869 2.35276,-1.42726 0.655,-0.62279 1.44759,-1.90012 1.747789,-2.81668 0.396786,-1.21123 0.371582,-2.90059 -0.06245,-4.21473 -0.344928,-1.04338 -0.381835,-1.7451 -0.12302,-2.33682 0.376406,-0.86064 0.822083,-1.16743 2.506594,-1.72519 2.404051,-0.796107 3.904035,-1.703462 5.316834,-3.216254 1.674324,-1.792868 2.200277,-3.930244 1.533545,-6.23127 -0.357609,-1.233857 -0.354707,-1.760876 0.0125,-2.500075 0.354043,-0.710416 0.788865,-1.018211 1.989412,-1.408269 1.543226,-0.50142 2.702631,-1.344696 3.546237,-2.579308 1.350872,-1.977046 1.532557,-4.392078 0.506329,-6.730159 -0.697456,-1.58898 -0.291139,-2.980892 1.053173,-3.606831 0.660731,-0.307555 1.129447,-0.331274 1.904772,-0.09616 1.517876,0.460589 3.453026,0.279784 4.919236,-0.459946 1.565899,-0.789933 2.703805,-2.105993 3.28918,-3.804233 0.273801,-0.79467 0.325304,-1.130003 0.35046,-2.286102 0.02529,-1.113484 0.0701,-1.434065 0.259587,-1.799872 0.461706,-0.892739 1.262254,-1.392984 2.222181,-1.388574 0.723259,0 1.309648,0.293988 2.175609,1.078883 3.958692,3.587557 10.105592,1.554996 11.058926,-3.656732 0.23184,-1.267755 0.425302,-1.773346 0.840856,-2.198322 0.466528,-0.477221 0.873466,-0.676931 1.540124,-0.755881 0.837424,-0.09905 1.396178,0.172232 2.557177,1.242215 1.579875,1.456017 3.126778,2.136123 5.122919,2.252454 1.277262,0.0744 2.274752,-0.0811 3.462792,-0.53899 1.35511,-0.522515 2.30849,-1.22791 3.45401,-2.555581 0.99248,-1.150299 1.77984,-1.470708 2.84051,-1.155713 0.73494,0.21828 1.16828,0.588437 1.75032,1.495311 1.16798,1.819806 2.84992,2.78869 4.83558,2.785601 1.37298,0 2.5145,-0.393001 3.54901,-1.215244 0.74517,-0.592222 1.20745,-0.786448 1.87245,-0.786448 1.09949,0 2.02068,0.761811 2.47407,2.04617 0.93832,2.657813 3.4257,4.407971 6.2649,4.407971 1.41109,0 2.41503,-0.31865 4.04115,-1.282772 0.62344,-0.369728 0.72065,-0.39361 1.46737,-0.361558 1.03347,0.04411 1.61382,0.412121 2.0695,1.311074 0.30344,0.598375 0.3085,0.639446 0.23846,1.946727 -0.0558,1.045569 -0.0316,1.503765 0.11172,2.111271 0.83791,3.554251 4.08192,5.69923 7.73095,5.11183 0.79674,-0.128363 1.11991,-0.136584 1.48693,-0.03759 1.15257,0.310387 1.87792,1.226597 1.87785,2.372064 -1e-4,0.683607 -0.1331,1.061694 -0.60976,1.732111 -0.91251,1.283691 -1.28081,2.271823 -1.37073,3.677269 -0.1308,2.045501 0.51922,3.678023 2.09466,5.260969 0.54399,0.546483 1.0697,1.151234 1.16823,1.343779 0.44878,0.876649 1.80341,2.698378 2.9718,3.996674 1.1393,1.265892 1.29343,1.4863 1.41291,2.019936 0.1183,0.527792 0.10569,0.71106 -0.10611,1.540657 -0.34588,1.356015 -0.40188,2.501834 -0.17792,3.642478 0.37291,1.90032 0.35872,2.19327 -0.16052,3.32063 -0.80921,1.75671 -0.9677,3.33334 -0.49516,4.92587 1.06885,3.60251 4.88767,5.63199 8.44342,4.48719 z m -60.64652,-0.12049 c -2.738195,-0.42792 -5.310459,-1.65583 -7.07421,-3.377 -1.092279,-1.06611 -1.661382,-1.88374 -1.660713,-2.38642 8.24e-4,-0.50441 0.363292,-1.0191 0.825564,-1.17168 0.613504,-0.20251 1.094981,0.01 1.610836,0.70256 1.270072,1.71124 3.24928,2.94701 5.683673,3.54883 1.45184,0.35896 3.98932,0.33351 5.53099,-0.0558 1.20747,-0.3047 2.68108,-0.94025 3.56023,-1.53538 0.29557,-0.19997 0.99608,-0.83092 1.55711,-1.40219 0.96494,-0.98255 1.04506,-1.03854 1.48559,-1.03854 0.38102,0 0.5342,0.0684 0.84389,0.37831 0.30377,0.30376 0.37834,0.46579 0.37834,0.82239 0,1.22209 -2.71933,3.57721 -5.29179,4.58298 -1.96655,0.76889 -2.72744,0.91179 -5.05712,0.94999 -1.13218,0.0189 -2.20878,0.01 -2.39239,-0.019 z m -21.087231,-4.09951 c -2.152242,-0.36962 -3.907093,-0.99472 -5.619528,-2.00158 -1.365537,-0.80295 -2.171661,-1.42756 -3.25629,-2.52313 -2.253204,-2.27581 -3.707987,-4.976875 -4.384849,-8.140871 -0.198396,-0.92789 -0.243196,-1.507437 -0.246032,-3.192384 0,-1.838068 0.02836,-2.190847 0.287352,-3.293509 1.12002,-4.753808 4.068133,-8.56192 8.34488,-10.779172 1.371952,-0.711335 3.171249,-1.304793 4.750023,-1.566693 1.654906,-0.27443 4.496337,-0.17727 6.148923,0.210385 2.402442,0.563775 5.03887,1.903116 6.69978,3.403542 l 0.428331,0.386909 0.517503,-0.308173 c 1.586576,-0.9441 3.805554,-1.784862 5.803282,-2.198896 1.132106,-0.23468 1.568516,-0.264647 3.783526,-0.261498 2.16876,0 2.66006,0.0375 3.67217,0.254564 1.7418,0.373976 3.24613,0.891161 4.64564,1.597475 l 1.25172,0.631723 0.58437,-0.471892 c 1.79144,-1.446328 3.79061,-2.414362 6.29104,-3.046334 1.10282,-0.278524 1.36439,-0.301556 3.47378,-0.302818 1.78733,0 2.48601,0.04265 3.22713,0.200302 3.79425,0.810572 7.1049,2.857952 9.38972,5.806981 0.88524,1.142532 1.16309,1.581118 1.76941,2.792861 1.08981,2.17794 1.51687,3.927618 1.6,6.554494 0.0922,2.914805 -0.3088,4.865214 -1.50952,7.344374 -2.38574,4.92563 -6.98038,8.23818 -12.43817,8.96734 -1.44983,0.19368 -3.92407,0.0684 -5.38925,-0.27253 -3.1525,-0.73382 -6.24682,-2.52269 -8.25399,-4.77182 -2.67494,-2.99748 -4.0131,-6.264811 -4.163,-10.164925 -0.0843,-2.187947 0.17413,-3.968441 0.85789,-5.917391 l 0.20565,-0.586292 -0.52076,-0.263076 c -2.69023,-1.359363 -6.53324,-1.373454 -9.380763,-0.03407 -1.298502,0.610595 -1.256006,0.539488 -0.930602,1.558944 0.847575,2.655641 0.907586,5.677364 0.170327,8.581133 -1.562583,6.154907 -6.778988,10.844687 -13.136287,11.810227 -1.276846,0.19399 -3.531631,0.19178 -4.673697,-0.01 z m 5.5006,-2.71908 c 4.675587,-1.11041 8.435753,-4.71039 9.784672,-9.367872 0.868995,-3.000346 0.625433,-6.407698 -0.657391,-9.198053 l -0.371899,-0.809061 0.550181,-0.434888 c 1.429045,-1.129694 3.190908,-2.009682 5.056995,-2.525958 0.787933,-0.217971 1.371623,-0.29052 2.737333,-0.340267 2.59817,-0.09466 4.14248,0.199358 6.31014,1.200801 0.96863,0.447511 2.69238,1.526445 2.69238,1.685204 0,0.05072 -0.14407,0.378713 -0.31997,0.728841 -1.6701,3.32357 -1.84151,7.496321 -0.45071,10.973947 0.73028,1.826076 1.62421,3.170426 3.04226,4.575216 1.50777,1.49364 3.12644,2.49249 5.15307,3.1795 2.65357,0.89979 5.85026,0.90236 8.49383,0.01 5.04534,-1.70879 8.53498,-6.02878 9.12813,-11.299784 0.25803,-2.292445 -0.21103,-5.018627 -1.23178,-7.159907 -0.71917,-1.50875 -1.4743,-2.57912 -2.65005,-3.756373 -3.63811,-3.642882 -8.86816,-4.861567 -13.82859,-3.222256 -1.77477,0.586455 -3.72408,1.799519 -5.11584,3.183519 l -0.74437,0.740299 -0.82039,-0.557938 C 106.60477,80.367242 98.8226,80.549943 93.465731,84.590649 l -0.633671,0.478079 -1.035486,-1.03425 c -1.778615,-1.776563 -3.820323,-2.946059 -6.192644,-3.547214 -7.17419,-1.81791 -14.387254,2.446071 -16.347627,9.66392 -0.272847,1.004747 -0.296183,1.259302 -0.296812,3.259784 -8.54e-4,1.853806 0.03432,2.308827 0.238458,3.123371 0.470473,1.872377 1.252408,3.539141 2.345787,4.999911 2.446073,3.26808 6.049342,5.15451 10.25947,5.37123 0.889771,0.0457 2.648314,-0.12744 3.60884,-0.35562 z m -5.111107,-1.96744 c -1.199937,-0.21451 -1.808629,-0.42313 -3.071689,-1.05368 -5.837746,-2.91436 -7.953163,-10.194193 -4.594558,-15.811383 0.671593,-1.123095 2.259392,-2.814452 3.277674,-3.491409 0.986648,-0.65588 2.387848,-1.308139 3.500341,-1.629287 0.780736,-0.225532 1.130529,-0.256442 2.891245,-0.256125 2.158081,0 2.56961,0.072 4.216506,0.735183 3.461699,1.39362 6.148818,4.660346 6.791457,8.256158 0.365858,2.047303 0.323465,3.359287 -0.167504,5.183186 -0.587056,2.180884 -1.983585,4.283027 -3.822648,5.754457 -2.531552,2.02557 -5.856375,2.87799 -9.020733,2.31283 z m 4.721933,-2.78976 c 1.37172,-0.47296 2.405781,-1.11067 3.395673,-2.094481 3.535638,-3.513343 3.470118,-9.133305 -0.146007,-12.544751 -2.398366,-2.262486 -5.716999,-2.968362 -8.860895,-1.884657 -1.369548,0.472055 -2.089052,0.938823 -3.287922,2.13293 -0.868087,0.86473 -1.156827,1.242714 -1.584304,2.073949 -2.482218,4.826838 -0.06332,10.6893 5.094071,12.3458 1.6564,0.53204 3.795928,0.52063 5.389564,-0.0284 z m 36.450955,2.8541 c -3.91003,-0.60374 -7.39192,-3.458 -8.80387,-7.216902 -1.16802,-3.109675 -0.88826,-6.656993 0.74795,-9.484824 1.50884,-2.607593 3.81313,-4.406958 6.77626,-5.291374 1.29475,-0.386393 3.74754,-0.488068 5.11091,-0.211656 4.42823,0.897289 7.74938,4.088986 8.86663,8.521037 0.31557,1.251741 0.28863,4.164118 -0.0501,5.397022 -1.07521,3.916037 -4.26264,7.046767 -8.2256,8.079047 -0.99566,0.2593 -3.36671,0.37083 -4.42238,0.20788 z m 4.20956,-2.78083 c 3.35521,-1.01362 5.71734,-3.781582 6.20557,-7.271729 0.22615,-1.617041 -0.14955,-3.624466 -0.97413,-5.203396 -1.07986,-2.068054 -3.16658,-3.72802 -5.45877,-4.342357 -1.1543,-0.309451 -3.20032,-0.332604 -4.31605,-0.04926 -1.02262,0.259918 -2.40687,0.927212 -3.27059,1.576442 -1.45602,1.094449 -2.73093,3.046737 -3.19188,4.88768 -0.22837,0.911602 -0.25203,2.790106 -0.0476,3.794449 0.50667,2.493468 2.21907,4.775981 4.45168,5.933871 2.08922,1.08365 4.44886,1.32452 6.60207,0.67397 z"
       id="path2" /><path
       style="fill:#ededed;stroke-width:0.034052"
       d="m 64.887431,162.42862 v -18.57131 l 5.959114,0.0153 c 5.889991,0.015 5.963582,0.0163 6.345025,0.11142 1.932828,0.48115 2.947106,1.66654 3.176966,3.71296 0.06242,0.55586 0.06242,13.97302 0,14.52889 -0.2321,2.06664 -1.279955,3.28701 -3.180299,3.70394 -0.665176,0.14592 -1.495812,0.1754 -4.9796,0.17673 H 68.97368 v 7.44607 7.44606 h -2.043124 -2.043125 z m 10.744827,-0.0116 c 0.294866,-0.0992 0.486438,-0.31124 0.593297,-0.65683 0.07567,-0.24484 0.0807,-0.66301 0.0807,-6.79888 0,-6.13584 -0.0052,-6.55403 -0.0807,-6.79883 -0.106821,-0.3456 -0.298431,-0.5577 -0.593297,-0.65683 -0.211559,-0.0712 -0.54313,-0.0801 -3.446336,-0.0933 l -3.212242,-0.0146 v 7.56354 7.56355 l 3.212242,-0.0146 c 2.903206,-0.0134 3.234777,-0.0222 3.446336,-0.0933 z m 10.412856,4.09931 v -14.4835 h 2.088517 2.088543 v 14.4835 14.48348 h -2.088543 -2.088517 z m 8.898938,12.74523 v -1.73823 l 4.988454,-10.9632 4.988454,-10.96317 -4.67061,-0.0115 -4.670661,-0.0116 v -1.7705 -1.7705 h 6.742311 6.74231 v 1.7833 1.78328 l -4.96799,10.91816 -4.968027,10.91811 4.968027,0.0116 4.96799,0.0116 v 1.77049 1.7705 h -7.06011 -7.060148 z m 17.117228,-0.0437 v -1.78207 l 4.96888,-10.91934 4.9689,-10.91938 -4.67415,-0.0116 -4.67416,-0.0116 v -1.77053 -1.77051 h 6.76503 6.76501 v 1.74115 1.74111 l -4.98686,10.96031 -4.98685,10.96028 4.97552,0.0228 4.9755,0.0228 0.0116,1.75934 0.0116,1.75936 H 119.12067 112.06 Z m 22.31507,1.7325 c -0.51749,-0.0674 -1.20027,-0.26005 -1.59262,-0.44945 -1.06181,-0.51265 -1.69051,-1.35537 -2.03048,-2.72171 l -0.0968,-0.3888 -0.0153,-10.57887 c -0.0103,-7.07615 0,-10.71413 0.0317,-10.98744 0.13441,-1.17211 0.60515,-2.1805 1.29171,-2.767 0.48401,-0.41353 1.11274,-0.71271 1.88664,-0.89775 0.35159,-0.084 0.57487,-0.0949 2.3308,-0.1138 2.1337,-0.0228 2.49623,0 3.10306,0.20942 0.43465,0.14888 0.95134,0.47864 1.18797,0.75814 0.0928,0.10965 0.24507,0.33749 0.33835,0.50632 l 0.16955,0.30694 v -0.89669 -0.89673 h 2.06584 2.0658 v 14.4835 14.48347 h -2.0658 -2.06584 v -0.9194 -0.91941 l -0.1067,0.22703 c -0.34017,0.72394 -0.99483,1.24079 -1.88363,1.48716 -0.32591,0.0904 -0.46723,0.0968 -2.32207,0.10631 -1.08626,0.006 -2.11805,-0.009 -2.29284,-0.0313 z m 5.17591,-3.53865 c 0.40802,-0.0578 0.83442,-0.26516 1.04078,-0.50626 0.0875,-0.10232 0.20591,-0.32106 0.26297,-0.48615 l 0.10373,-0.30017 v -9.62541 -9.62539 l -0.10386,-0.25686 c -0.14798,-0.36609 -0.27667,-0.53989 -0.52168,-0.70453 -0.42513,-0.28573 -0.51871,-0.29844 -2.36392,-0.3204 -1.78773,-0.0214 -2.23344,0.009 -2.62004,0.17472 -0.26846,0.11552 -0.36837,0.24177 -0.48156,0.60865 -0.0803,0.26026 -0.0838,0.67856 -0.0838,10.16921 0,9.35486 0.004,9.91212 0.0807,10.15868 0.14142,0.45733 0.40211,0.65456 0.9636,0.72903 0.29902,0.0397 3.42578,0.0269 3.72301,-0.0149 z M 85.984574,145.82784 c -0.01673,-0.0166 -0.03037,-1.10973 -0.03037,-2.42904 V 141 h 2.179328 2.179341 v 2.42907 2.42904 h -2.149071 c -1.181974,0 -2.162674,-0.0136 -2.179328,-0.0303 z"
       id="path1" /><text
       xml:space="preserve"
       style="font-size:12.1063px;line-height:0.9;letter-spacing:0px;fill:#ffffff;stroke-width:0.252213"
       x="104.71689"
       y="203.96176"
       id="text4"
       transform="scale(1.0018027,0.99820054)"><tspan
         sodipodi:role="line"
         style="font-style:normal;font-variant:normal;font-weight:normal;font-stretch:normal;font-size:18.832px;line-height:0.9;font-family:Teko;-inkscape-font-specification:Teko;text-align:center;letter-spacing:0px;writing-mode:lr-tb;text-anchor:middle;fill:#ffffff;stroke-width:0.252213"
         x="104.71689"
         y="203.96176"
         id="tspan6">For wood-fired catering</tspan><tspan
         sodipodi:role="line"
         style="font-style:normal;font-variant:normal;font-weight:normal;font-stretch:normal;font-size:18.832px;line-height:0.9;font-family:Teko;-inkscape-font-specification:Teko;text-align:center;letter-spacing:0px;writing-mode:lr-tb;text-anchor:middle;fill:#ffffff;stroke-width:0.252213"
         x="104.71689"
         y="220.91055"
         id="tspan23">07465 214 423</tspan><tspan
         sodipodi:role="line"
         style="font-style:normal;font-variant:normal;font-weight:normal;font-stretch:normal;font-size:18.832px;line-height:0.9;font-family:Teko;-inkscape-font-specification:Teko;text-align:center;letter-spacing:0px;writing-mode:lr-tb;text-anchor:middle;fill:#ffffff;stroke-width:0.252213"
         x="104.71689"
         y="237.85938"
         id="tspan24">07508 320 314</tspan><tspan
         sodipodi:role="line"
         style="font-style:normal;font-variant:normal;font-weight:normal;font-stretch:normal;font-size:18.832px;line-height:0.9;font-family:Teko;-inkscape-font-specification:Teko;text-align:center;letter-spacing:0px;writing-mode:lr-tb;text-anchor:middle;fill:#ffffff;stroke-width:0.252213"
         x="104.71689"
         y="254.80817"
         id="tspan26">littlenunnas.pizza</tspan></text><text
       xml:space="preserve"
       style="font-style:normal;font-variant:normal;font-weight:normal;font-stretch:normal;font-size:7.7611px;line-height:0.9;font-family:Teko;-inkscape-font-specification:Teko;text-align:center;letter-spacing:0px;text-anchor:middle;fill:none;stroke:#ffffff;stroke-width:1;stroke-dasharray:none;stroke-opacity:1"
       x="44.961334"
       y="175.94562"
       id="text10"><tspan
         sodipodi:role="line"
         id="tspan10"
         style="stroke-width:1" /></text><text
       xml:space="preserve"
       transform="scale(0.26458333)"
       id="text11"
       style="font-style:normal;font-variant:normal;font-weight:normal;font-stretch:normal;font-size:29.3333px;line-height:0.9;font-family:Teko;-inkscape-font-specification:Teko;text-align:center;letter-spacing:0px;white-space:pre;shape-inside:url(#rect11);display:inline;fill:none;stroke:#ffffff;stroke-width:3.77953;stroke-dasharray:none;stroke-opacity:1" /><path
       id="path1-9"
       d="m 0,0 c 0,138.071 -111.929,250 -250,250 -138.071,0 -250,-111.929 -250,-250 0,-117.245 80.715,-215.622 189.606,-242.638 v 166.242 h -51.552 V 0 h 51.552 v 32.919 c 0,85.092 38.508,124.532 122.048,124.532 15.838,0 43.167,-3.105 54.347,-6.211 V 81.986 c -5.901,0.621 -16.149,0.932 -28.882,0.932 -40.993,0 -56.832,-15.528 -56.832,-55.9 V 0 h 81.659 l -14.028,-76.396 h -67.631 V -248.169 C -95.927,-233.218 0,-127.818 0,0"
       style="fill:#ffffff icc-color(sRGB-IEC61966-2, 0.1, 1, 1, 1);fill-opacity:1;fill-rule:nonzero;stroke:none"
       transform="matrix(0.03999983,0,0,-0.04014702,29.999914,277.03676)"
       clip-path="url(#clipPath2)" /><path
       class="cls-1"
       d="m 45.858416,267.0699 c -1.064011,0.0502 -1.790617,0.22 -2.425822,0.4696 -0.657398,0.2562 -1.214603,0.60001 -1.769009,1.15641 -0.554398,0.5564 -0.895805,1.11401 -1.150203,1.77241 -0.246207,0.63661 -0.413006,1.36381 -0.460006,2.42841 -0.04696,1.06461 -0.05736,1.40681 -0.05216,4.12242 0.0056,2.71563 0.0172,3.05603 0.0688,4.12283 0.0508,1.06381 0.219999,1.79022 0.469606,2.42562 0.256599,0.6574 0.600006,1.21441 1.156603,1.76901 0.556606,0.5546 1.113812,0.8952 1.773817,1.15 0.635998,0.2458 1.363403,0.41341 2.427815,0.46001 1.064403,0.0465 1.407002,0.0575 4.121823,0.0521 2.714813,-0.005 3.056619,-0.0172 4.123223,-0.0678 1.066604,-0.0506 1.789208,-0.221 2.424814,-0.4694 0.657406,-0.2572 1.214811,-0.60001 1.769009,-1.1568 0.554206,-0.55681 0.895404,-1.11482 1.149611,-1.77362 0.246399,-0.636 0.413799,-1.3634 0.459999,-2.42701 0.04656,-1.06741 0.0576,-1.4082 0.0524,-4.12343 -0.0056,-2.71521 -0.01744,-3.05562 -0.068,-4.12202 -0.05064,-1.06641 -0.219999,-1.79061 -0.469399,-2.42641 -0.257007,-0.65741 -0.600005,-1.21401 -1.156411,-1.76901 -0.556398,-0.55501 -1.114803,-0.89601 -1.773409,-1.14961 -0.636406,-0.2462 -1.36341,-0.414 -2.427814,-0.46 -1.064404,-0.046 -1.40701,-0.0578 -4.122823,-0.0525 -2.715821,0.005 -3.05582,0.0168 -4.122423,0.0688 m 0.116799,18.0777 c -0.975012,-0.0424 -1.504409,-0.2044 -1.857216,-0.34 -0.467198,-0.18 -0.800005,-0.3976 -1.151604,-0.7458 -0.351606,-0.3482 -0.567605,-0.68221 -0.750004,-1.14841 -0.137,-0.3528 -0.301999,-0.8816 -0.347607,-1.85661 -0.0496,-1.05381 -0.06,-1.3702 -0.06584,-4.04003 -0.0056,-2.66981 0.004,-2.98582 0.05056,-4.04002 0.0416,-0.97421 0.204607,-1.50421 0.340007,-1.85681 0.179999,-0.4678 0.396798,-0.8 0.745804,-1.15141 0.348999,-0.3514 0.682006,-0.5678 1.148604,-0.7502 0.352407,-0.1376 0.881204,-0.3012 1.855816,-0.3476 1.054604,-0.05 1.370603,-0.06 4.040024,-0.0658 2.669413,-0.005 2.986219,0.004 4.041223,0.0505 0.974205,0.0424 1.50441,0.2038 1.856609,0.34 0.467406,0.18 0.800005,0.3962 1.151412,0.7458 0.351398,0.34961 0.567997,0.6814 0.750404,1.14901 0.137799,0.3514 0.301399,0.88 0.347398,1.85521 0.05024,1.0546 0.0616,1.37081 0.0664,4.04002 0.0048,2.66923 -0.0048,2.98622 -0.0508,4.04003 -0.04264,0.97501 -0.204199,1.50461 -0.340006,1.85781 -0.179999,0.467 -0.396998,0.80001 -0.746197,1.15121 -0.349207,0.3512 -0.681805,0.5676 -1.148612,0.75 -0.351998,0.1374 -0.881404,0.3014 -1.855208,0.3478 -1.054604,0.0496 -1.37061,0.06 -4.041023,0.0658 -2.670421,0.005 -2.985421,-0.005 -4.040024,-0.0506 m 8.152045,-13.49226 a 1.2000073,1.2000073 0 1 0 1.197611,-1.202 1.2000073,1.2000073 0 0 0 -1.197611,1.202 m -9.262058,5.35463 c 0.0056,2.83603 2.308815,5.12984 5.144235,5.12444 2.835413,-0.005 5.130827,-2.30841 5.125427,-5.14444 -0.0056,-2.83601 -2.309214,-5.13042 -5.145027,-5.12482 -2.835821,0.005 -5.130035,2.30921 -5.124635,5.14482 m 1.801217,-0.004 a 3.3334202,3.3334202 0 1 1 3.340018,3.32682 3.3330202,3.3330202 0 0 1 -3.340018,-3.32682"
       id="path1-2"
       style="stroke-width:0.0200001" /><text
       xml:space="preserve"
       style="font-style:normal;font-variant:normal;font-weight:300;font-stretch:normal;font-size:26.2447px;line-height:0.9;font-family:Teko;-inkscape-font-specification:'Teko Light';text-align:center;letter-spacing:0px;text-anchor:middle;fill:none;stroke:#ffffff;stroke-width:3.38157"
       x="84.689751"
       y="225.10693"
       id="text5"><tspan
         sodipodi:role="line"
         id="tspan4"
         style="font-style:normal;font-variant:normal;font-weight:300;font-stretch:normal;font-family:Teko;-inkscape-font-specification:'Teko Light';stroke-width:3.38157"
         x="84.689751"
         y="225.10693" /></text><text
       xml:space="preserve"
       transform="scale(0.26458333)"
       id="text6"
       style="font-style:normal;font-variant:normal;font-weight:300;font-stretch:normal;font-size:29.3333px;line-height:0.9;font-family:Teko;-inkscape-font-specification:'Teko Light';text-align:center;letter-spacing:0px;white-space:pre;shape-inside:url(#rect6);display:inline;fill:none;stroke:#ffffff;stroke-width:3.77953" /><text
       xml:space="preserve"
       transform="scale(0.26458333)"
       id="text13"
       style="font-style:normal;font-variant:normal;font-weight:300;font-stretch:normal;font-size:29.3333px;line-height:0.9;font-family:Teko;-inkscape-font-specification:'Teko Light';text-align:justify;letter-spacing:0px;white-space:pre;shape-inside:url(#rect13);display:inline;fill:none;stroke:#ffffff;stroke-width:3.77953" /><text
       xml:space="preserve"
       transform="scale(0.26458333)"
       id="text15"
       style="font-style:normal;font-variant:normal;font-weight:300;font-stretch:normal;font-size:29.3333px;line-height:0.9;font-family:Teko;-inkscape-font-specification:'Teko Light';text-align:justify;letter-spacing:0px;white-space:pre;shape-inside:url(#rect15);display:inline;fill:none;stroke:#ffffff;stroke-width:3.77953" /><text
       xml:space="preserve"
       transform="matrix(0.94384359,0,0,0.94384359,432.74028,-625.6868)"
       id="text17"
       style="font-style:normal;font-variant:normal;font-weight:300;font-stretch:normal;font-size:29.3333px;line-height:0.9;font-family:Teko;-inkscape-font-specification:'Teko Light';text-align:justify;letter-spacing:0px;white-space:pre;shape-inside:url(#rect17);display:inline;fill:none;stroke:#ffffff;stroke-width:3.77953" /><text
       xml:space="preserve"
       transform="scale(0.26458333)"
       id="text19"
       style="font-style:normal;font-variant:normal;font-weight:normal;font-stretch:normal;font-size:85.3333px;line-height:0.9;font-family:Teko;-inkscape-font-specification:'Teko, Normal';font-variant-ligatures:normal;font-variant-caps:normal;font-variant-numeric:normal;font-variant-east-asian:normal;text-align:justify;letter-spacing:0px;white-space:pre;shape-inside:url(#rect19);display:inline;fill:#ffffff;fill-opacity:1;stroke:#ffffff;stroke-width:3.77953;stroke-dasharray:none" /><g
       id="g27"
       transform="matrix(1.0016254,0,0,0.83101383,-2.8288376,46.421851)"><text
         xml:space="preserve"
         style="font-style:normal;font-variant:normal;font-weight:normal;font-stretch:normal;font-size:10.306px;line-height:0.9;font-family:Teko;-inkscape-font-specification:Teko;text-align:center;letter-spacing:0px;writing-mode:lr-tb;text-anchor:middle;fill:#ffffff;stroke-width:0.351337"
         x="178.97395"
         y="268.10953"
         id="text12"
         transform="scale(0.99885192,1.0011494)"><tspan
           sodipodi:role="line"
           id="tspan12"
           style="font-style:normal;font-variant:normal;font-weight:normal;font-stretch:normal;font-family:Teko;-inkscape-font-specification:Teko;stroke-width:0.351337"
           x="178.97395"
           y="268.10953">NO DOUGH KEPT</tspan><tspan
           sodipodi:role="line"
           style="font-style:normal;font-variant:normal;font-weight:normal;font-stretch:normal;font-family:Teko;-inkscape-font-specification:Teko;stroke-width:0.351337"
           x="178.97395"
           y="277.38492"
           id="tspan20">IN THIS VEHICLE</tspan><tspan
           sodipodi:role="line"
           style="font-style:normal;font-variant:normal;font-weight:normal;font-stretch:normal;font-family:Teko;-inkscape-font-specification:Teko;stroke-width:0.351337"
           x="178.97395"
           y="286.66034"
           id="tspan22">OVERNIGHT</tspan></text><rect
         style="fill:none;fill-opacity:1;stroke:#ffffff;stroke-width:0.855629;stroke-dasharray:none"
         id="rect27"
         width="46.144371"
         height="29.144371"
         x="155.9279"
         y="259.92789" /></g></g></svg>
