<?xml version="1.0" encoding="UTF-8" standalone="no"?>
<!-- Created with Inkscape (http://www.inkscape.org/) -->

<svg
   width="210mm"
   height="297mm"
   viewBox="0 0 210 297"
   version="1.1"
   id="svg1"
   xml:space="preserve"
   inkscape:version="1.3.2 (091e20e, 2023-11-25, custom)"
   sodipodi:docname="back.svg"
   xmlns:inkscape="http://www.inkscape.org/namespaces/inkscape"
   xmlns:sodipodi="http://sodipodi.sourceforge.net/DTD/sodipodi-0.dtd"
   xmlns:xlink="http://www.w3.org/1999/xlink"
   xmlns="http://www.w3.org/2000/svg"
   xmlns:svg="http://www.w3.org/2000/svg"><sodipodi:namedview
   id="namedview1"
   pagecolor="#ffffff"
   bordercolor="#000000"
   borderopacity="0.25"
   inkscape:showpageshadow="2"
   inkscape:pageopacity="0.0"
   inkscape:pagecheckerboard="0"
   inkscape:deskcolor="#d1d1d1"
   inkscape:document-units="mm"
   inkscape:zoom="0.91846942"
   inkscape:cx="396.31151"
   inkscape:cy="474.15841"
   inkscape:window-width="3840"
   inkscape:window-height="2066"
   inkscape:window-x="3829"
   inkscape:window-y="-11"
   inkscape:window-maximized="1"
   inkscape:current-layer="svg1"><inkscape:page
     x="0"
     y="0"
     width="210"
     height="297"
     id="page2"
     margin="0"
     bleed="0" /><inkscape:page
     x="220"
     y="0"
     width="132.29166"
     height="66.145836"
     id="page3"
     margin="0"
     bleed="0" /><inkscape:page
     x="362.29166"
     y="0"
     width="10.583333"
     height="10.583334"
     id="page7"
     margin="0"
     bleed="0" /></sodipodi:namedview><defs
   id="defs1"><rect
     x="577.04697"
     y="939.60668"
     width="210.1322"
     height="151.33873"
     id="rect10" /><rect
     x="540.02887"
     y="947.22805"
     width="428.97454"
     height="314.65392"
     id="rect9" /><rect
     x="76.213752"
     y="698.98898"
     width="604.26617"
     height="356.0271"
     id="rect3" /><linearGradient
     id="b"><stop
       offset="0"
       stop-color="#3771c8"
       id="stop1" /><stop
       stop-color="#3771c8"
       offset=".128"
       id="stop2" /><stop
       offset="1"
       stop-color="#60f"
       stop-opacity="0"
       id="stop3" /></linearGradient><linearGradient
     id="a"><stop
       offset="0"
       stop-color="#fd5"
       id="stop4" /><stop
       offset=".1"
       stop-color="#fd5"
       id="stop5" /><stop
       offset=".5"
       stop-color="#ff543e"
       id="stop6" /><stop
       offset="1"
       stop-color="#c837ab"
       id="stop7" /></linearGradient><radialGradient
     id="c"
     cx="158.429"
     cy="578.088"
     r="65"
     xlink:href="#a"
     gradientUnits="userSpaceOnUse"
     gradientTransform="matrix(0,-1.98198,1.8439,0,-1031.402,454.004)"
     fx="158.429"
     fy="578.088" /><radialGradient
     id="d"
     cx="147.694"
     cy="473.455"
     r="65"
     xlink:href="#b"
     gradientUnits="userSpaceOnUse"
     gradientTransform="matrix(0.17394,0.86872,-3.5818,0.71718,1648.348,-458.493)"
     fx="147.694"
     fy="473.455" /><linearGradient
     inkscape:collect="always"
     xlink:href="#SVGID_1_"
     id="linearGradient7"
     gradientUnits="userSpaceOnUse"
     gradientTransform="matrix(10.583333,0,0,-10.524543,3303.1356,4289.5135)"
     x1="-277.375"
     y1="406.6018"
     x2="-277.375"
     y2="407.5726" /><linearGradient
     inkscape:collect="always"
     xlink:href="#SVGID_1_"
     id="linearGradient8"
     gradientUnits="userSpaceOnUse"
     gradientTransform="matrix(40,0,0,-39.7778,11115.001,16212.334)"
     x1="-277.375"
     y1="406.6018"
     x2="-277.375"
     y2="407.5726" /></defs><g
   inkscape:label="Layer 1"
   inkscape:groupmode="layer"
   id="layer1" /><rect
   id="rect2"
   width="210"
   height="297"
   x="0"
   y="-4.4408921e-16"
   fill="#0a9869"
   style="stroke-width:0.70637" /><path
   style="fill:#a80c0b;stroke-width:0.0517881"
   d="m 100.99803,82.99621 c -5.917152,-0.355044 -11.956692,-1.694653 -16.491362,-3.657893 -2.52541,-1.093297 -5.07628,-2.623533 -6.18635,-3.711094 -0.32637,-0.319733 -0.41396,-0.455886 -0.48542,-0.7545 -0.15796,-0.660605 0.10393,-1.317589 0.66761,-1.675079 0.69814,-0.442792 1.18527,-0.349524 2.19518,0.420419 0.93323,0.711398 1.8791,1.327689 2.84681,1.854744 7.17462,3.907416 18.852802,5.492282 29.496262,4.003072 6.11266,-0.855283 11.22668,-2.555808 14.83265,-4.932264 1.33908,-0.882471 1.33272,-0.879613 1.89187,-0.848041 0.61136,0.03464 0.97936,0.273148 1.25265,0.812045 0.2477,0.488417 0.25066,0.891181 0.01,1.373883 -0.15033,0.301627 -0.28909,0.438348 -0.84591,0.833184 -3.20937,2.276143 -7.77641,4.087845 -13.15757,5.219525 -2.33896,0.491823 -5.56768,0.911616 -8.22375,1.069202 -1.3728,0.08143 -6.40309,0.07673 -7.80277,-0.0078 z m 0.48339,-5.934564 c -0.99381,-0.17303 -1.724322,-0.520557 -1.922872,-0.914728 -0.11411,-0.226778 -0.12175,-0.301725 -0.0529,-0.531439 0.16442,-0.548743 0.674232,-0.698167 1.296032,-0.379863 0.92898,0.475518 3.82607,0.581254 5.40964,0.197457 0.24688,-0.05989 0.49742,-0.151303 0.55689,-0.20331 0.24713,-0.216169 0.52192,-0.252321 0.84197,-0.110786 0.78817,0.348624 0.51929,1.296881 -0.47299,1.668151 -0.21699,0.08123 -0.75025,0.208379 -1.18496,0.2827 -1.095,0.187318 -3.37234,0.183012 -4.47088,-0.0078 z m 36.10218,-1.685121 c -1.42806,-0.259094 -2.70314,-0.932598 -3.78821,-2.000997 -1.22162,-1.202732 -1.94713,-2.750721 -2.10176,-4.484227 -0.0971,-1.089069 0.0728,-2.315055 0.44817,-3.232523 0.11724,-0.286497 0.16461,-0.504839 0.13956,-0.642225 -0.1284,-0.703491 -0.17068,-1.71135 -0.101,-2.408577 0.0691,-0.692862 0.0652,-0.764638 -0.0519,-0.90727 -0.83571,-1.02064 -1.12411,-1.400914 -1.45928,-1.924133 -0.21658,-0.338034 -0.6179,-0.850722 -0.89181,-1.139333 -0.68987,-0.726959 -1.0168,-1.182239 -1.36854,-1.905812 -0.73596,-1.514029 -0.94317,-3.091965 -0.61588,-4.690767 0.054,-0.263282 0.0869,-0.489767 0.0736,-0.503234 -0.0137,-0.0137 -0.30044,-0.09865 -0.63763,-0.18908 -1.29615,-0.347958 -2.22104,-0.899558 -3.23706,-1.930552 -0.93039,-0.944147 -1.48954,-1.893833 -1.83278,-3.112987 -0.13369,-0.474579 -0.0521,-0.451482 -1.10185,-0.312119 -1.27451,0.169115 -2.75116,-0.04756 -3.88111,-0.569569 -1.06555,-0.492312 -2.24786,-1.456659 -2.8134,-2.294639 -0.12821,-0.189863 -0.23915,-0.353928 -0.24672,-0.364439 -0.008,-0.0098 -0.28996,0.07262 -0.62751,0.18497 -0.83426,0.277434 -1.62123,0.381526 -2.47325,0.327151 -1.46887,-0.09376 -2.60789,-0.537351 -3.78453,-1.473727 l -0.46516,-0.370194 -0.5361,0.373854 c -1.43646,1.001654 -2.87756,1.456189 -4.61009,1.454114 -1.39511,0 -2.625092,-0.282915 -3.776222,-0.863504 -0.38515,-0.194169 -0.39364,-0.195343 -0.43772,-0.05657 -0.0875,0.275497 -0.85632,1.346539 -1.27109,1.770579 -1.31273,1.342095 -3.02557,2.11192 -4.90709,2.205442 -1.08024,0.05363 -2.0869,-0.127423 -3.12459,-0.562463 -0.0804,-0.03367 -0.12116,-0.01957 -0.12175,0.04306 0,0.05128 -0.10433,0.330773 -0.23093,0.620578 -0.95916,2.19685 -3.25918,3.957915 -5.53397,4.237307 -0.68314,0.08377 -0.62064,-0.01762 -0.62829,1.015884 -0.008,1.017899 -0.13858,1.702012 -0.51126,2.668375 -0.29311,0.760058 -1.04902,1.878468 -1.6578,2.452695 -0.42936,0.405093 -1.65208,1.286272 -1.78486,1.28637 -0.0243,0 -0.0472,0.489396 -0.0503,1.087542 -0.006,1.212675 -0.1053,1.711721 -0.53103,2.694232 -0.74295,1.714402 -2.551498,3.446303 -4.561597,4.368391 -0.626136,0.287163 -0.659588,0.313215 -0.615821,0.478728 0.08671,0.327934 0.03778,1.955744 -0.07418,2.460153 -0.608187,2.743948 -2.592919,4.836961 -5.27711,5.564997 -0.801886,0.21752 -2.384011,0.252067 -3.26245,0.07125 -1.134929,-0.233668 -2.14864,-0.714158 -3.054404,-1.447792 -0.929799,-0.753149 -1.495747,-1.478914 -2.021921,-2.593037 -0.46215,-0.978576 -0.595817,-1.563374 -0.636276,-2.783546 -0.03621,-1.098385 0.03934,-1.702599 0.315094,-2.513803 L 57.992,65.087799 57.433196,64.710207 c -0.742794,-0.501982 -2.195088,-1.956977 -2.656885,-2.661799 -0.474325,-0.724062 -0.857045,-1.5291 -1.087249,-2.287083 -0.163243,-0.537351 -0.189667,-0.758023 -0.213821,-1.786942 -0.02544,-1.075798 -0.0137,-1.229352 0.143083,-1.838068 0.415545,-1.616477 1.410504,-3.075406 2.848608,-4.176884 0.279646,-0.214193 0.495757,-0.40891 0.480118,-0.432633 -0.01566,-0.02388 -0.203154,-0.307304 -0.416837,-0.63011 -0.787187,-1.189148 -1.543389,-2.9729 -1.888137,-4.453771 -0.358958,-1.541686 -0.467141,-3.857347 -0.24968,-5.342642 0.607366,-4.147974 2.849646,-7.71399 6.308574,-10.032861 1.767897,-1.185174 3.982422,-2.03253 5.990603,-2.292212 0.393584,-0.0507 0.724474,-0.104913 0.735239,-0.119985 0.01174,-0.01566 0.08984,-0.353713 0.17577,-0.752464 0.202272,-0.940074 0.813787,-2.763325 1.256735,-3.747245 2.581548,-5.734777 7.699661,-10.74013 13.909211,-13.602793 2.85753,-1.3173352 5.19711,-1.9993343 8.38969,-2.445649 1.23013,-0.1720509 4.44737,-0.1716594 5.66221,5.285e-4 3.478562,0.4930953 6.179112,1.5742761 8.522312,3.4120505 0.73487,0.576362 2.01186,1.903837 2.59096,2.693431 l 0.514,0.700829 0.52177,-0.497891 c 3.6421,-3.475333 9.16257,-5.3575198 14.74052,-5.025808 8.1108,0.4823691 15.27938,4.918154 18.68783,11.563706 1.22152,2.381682 1.81274,4.62224 1.90647,7.224965 0.0544,1.510035 -0.0552,2.483914 -0.5093,4.530224 -0.0296,0.133883 0.0196,0.154827 0.61261,0.262364 1.29776,0.235273 3.17379,0.96139 4.33907,1.679542 3.45335,2.128029 6.02701,5.726948 7.14891,9.996512 2.00534,7.631625 -0.82127,15.713381 -6.84683,19.576502 l -0.69094,0.443007 -0.10805,0.520518 c -0.25396,1.223754 -0.83248,2.397947 -1.72464,3.500209 -0.31296,0.386596 -0.54046,0.73244 -0.54046,0.821519 0,0.265729 -0.33657,1.328824 -0.58474,1.84713 -1.01261,2.114563 -2.92023,3.579228 -5.23283,4.017928 -0.66026,0.12527 -1.89949,0.126249 -2.58357,0 z m 2.5663,-3.182433 c 1.26415,-0.407011 2.30163,-1.477525 2.67983,-2.765186 0.0572,-0.194365 0.12625,-0.567142 0.15365,-0.828604 0.0597,-0.569315 0.27007,-1.017998 0.63099,-1.345717 1.02675,-0.9325 1.52473,-1.90908 1.71583,-3.365093 0.11803,-0.898932 0.31173,-1.256951 0.84669,-1.56494 0.19789,-0.113918 0.61627,-0.355415 0.9297,-0.536627 2.77746,-1.605945 4.90839,-4.592742 5.8194,-8.156702 0.40248,-1.574707 0.48178,-2.238542 0.47892,-4.012017 -0.006,-1.806888 -0.10394,-2.678182 -0.48096,-4.149266 -0.62565,-2.441049 -1.78968,-4.580314 -3.40682,-6.260796 -1.05928,-1.100754 -1.9837,-1.781657 -3.21207,-2.365984 -1.42981,-0.68014 -2.40032,-0.919562 -3.94553,-0.973311 -1.13426,-0.03934 -1.45266,-0.107067 -1.78177,-0.378414 -0.56423,-0.465066 -0.68034,-1.201284 -0.32518,-2.062518 0.31058,-0.753148 0.59739,-1.691345 0.77351,-2.530108 0.13721,-0.653872 0.15776,-0.950116 0.15639,-2.271072 0,-1.152447 -0.0305,-1.673787 -0.12233,-2.159718 -0.4876,-2.582115 -1.52253,-4.815587 -3.20959,-6.926314 -0.59644,-0.746219 -1.88876,-2.040771 -2.63772,-2.642284 -2.31727,-1.861066 -5.28774,-3.28314 -8.22552,-3.937834 -1.58647,-0.353556 -2.62612,-0.462248 -4.41079,-0.461152 -2.05273,0.0016 -3.59369,0.226348 -5.50174,0.803571 -3.03228,0.917351 -5.6519,2.662758 -7.46521,4.973917 -0.53553,0.682567 -0.91089,0.924358 -1.43499,0.924358 -0.74336,0 -1.15415,-0.318225 -1.58649,-1.22898 -1.84578,-3.888371 -5.33976,-6.188433 -10.358022,-6.818602 -0.97549,-0.122531 -3.13646,-0.139559 -4.212,-0.03327 -4.27479,0.422591 -8.59482,2.111785 -12.42466,4.858161 -5.09279,3.65206 -8.61547,8.99758 -9.223207,13.995708 -0.08906,0.731657 -0.228227,1.064974 -0.562836,1.347106 -0.366826,0.309281 -0.624042,0.378003 -1.662298,0.443888 -1.755311,0.111373 -3.043853,0.45246 -4.572543,1.210189 -4.041181,2.003053 -6.541048,6.421944 -6.181326,10.926528 0.215445,2.698166 1.107702,4.796248 2.926706,6.881979 0.615664,0.705859 0.738703,1.205981 0.452265,1.837853 -0.204661,0.451325 -0.370859,0.59934 -1.064504,0.947924 -2.868965,1.441685 -3.885827,3.69291 -2.733379,6.051457 0.668004,1.367169 1.654312,2.280487 3.801191,3.520135 0.544045,0.314154 0.796601,0.743577 0.796406,1.354172 0,0.41441 -0.02701,0.500436 -0.294934,0.943892 -0.8398,1.389933 -0.903081,2.8646 -0.181837,4.237974 0.939899,1.789701 3.137473,2.637214 5.015999,1.934389 0.491412,-0.183991 1.128099,-0.570078 1.459948,-0.885661 0.406443,-0.386459 0.898266,-1.179068 1.084547,-1.747815 0.246215,-0.751602 0.230576,-1.7999 -0.03875,-2.615351 -0.214037,-0.647452 -0.236938,-1.082883 -0.07634,-1.450062 0.23357,-0.534043 0.510124,-0.724415 1.555407,-1.070514 1.491774,-0.494015 2.422552,-1.057046 3.299229,-1.995771 1.038961,-1.112518 1.365329,-2.438817 0.951604,-3.866664 -0.221905,-0.765637 -0.220104,-1.09267 0.0078,-1.551356 0.219693,-0.440834 0.489512,-0.631832 1.234482,-0.873878 0.95761,-0.31114 1.67705,-0.834417 2.20053,-1.600524 0.83825,-1.226807 0.95099,-2.725392 0.31419,-4.176238 -0.43279,-0.985995 -0.18066,-1.849714 0.65352,-2.23813 0.41,-0.190842 0.70085,-0.205561 1.18196,-0.0597 0.94188,0.285813 2.14269,0.173617 3.05251,-0.285401 0.97168,-0.490178 1.67778,-1.306823 2.04102,-2.360621 0.1699,-0.493115 0.20186,-0.7012 0.21747,-1.418588 0.0157,-0.690944 0.0435,-0.88987 0.16108,-1.116863 0.2865,-0.553969 0.78326,-0.864385 1.37892,-0.861645 0.4488,0 0.81267,0.182425 1.35002,0.669472 2.45647,2.226171 6.27078,0.964914 6.86235,-2.269096 0.14386,-0.786678 0.26391,-1.100402 0.52177,-1.364115 0.28949,-0.296127 0.54201,-0.420047 0.95569,-0.46904 0.51964,-0.06146 0.86636,0.106872 1.58679,0.770824 0.98035,0.903492 1.940242,1.325516 3.178902,1.397703 0.79257,0.04619 1.41154,-0.0503 2.14876,-0.334452 0.84087,-0.324235 1.43246,-0.761956 2.14329,-1.585804 0.61586,-0.713787 1.10444,-0.912614 1.76261,-0.717153 0.45605,0.135448 0.72495,0.365143 1.08612,0.927881 0.72476,1.129233 1.76844,1.730453 3.00059,1.728534 0.85198,0 1.56032,-0.243866 2.20226,-0.754088 0.4624,-0.367492 0.74925,-0.488006 1.1619,-0.488006 0.68227,0 1.25389,0.472719 1.53522,1.269693 0.58226,1.649242 2.12574,2.735258 3.88753,2.735258 0.87562,0 1.49859,-0.197732 2.50764,-0.795995 0.38685,-0.229421 0.44718,-0.244238 0.91054,-0.224352 0.64129,0.0274 1.00142,0.255728 1.28418,0.813553 0.18829,0.371309 0.19143,0.396794 0.14797,1.207997 -0.0346,0.648803 -0.0196,0.933127 0.0693,1.310093 0.51995,2.205501 2.53295,3.536518 4.79725,3.172021 0.49441,-0.07966 0.69494,-0.08475 0.92269,-0.02329 0.7152,0.192603 1.16529,0.761135 1.16525,1.471926 -6e-5,0.424197 -0.0826,0.658805 -0.37837,1.07482 -0.56624,0.796562 -0.79478,1.409721 -0.85057,2.281838 -0.0812,1.269282 0.32218,2.282307 1.29978,3.264564 0.33756,0.33911 0.66378,0.714373 0.72492,0.83385 0.27848,0.543986 1.11906,1.674414 1.84408,2.480039 0.70697,0.785523 0.80261,0.922283 0.87674,1.253427 0.0734,0.327504 0.0656,0.441226 -0.0658,0.956009 -0.21462,0.841444 -0.24937,1.552451 -0.1104,2.260248 0.2314,1.179205 0.22259,1.360984 -0.0996,2.06054 -0.50214,1.090087 -0.60048,2.068429 -0.30727,3.056635 0.66325,2.235449 3.03293,3.494788 5.23937,2.784407 z m -37.63271,-0.07477 c -1.69912,-0.265534 -3.295272,-1.027491 -4.389722,-2.095518 -0.67779,-0.661545 -1.03093,-1.168909 -1.03052,-1.480832 5.1e-4,-0.313 0.22543,-0.63238 0.51228,-0.727057 0.3807,-0.125662 0.67947,0.0059 0.99957,0.43596 0.78811,1.061862 2.016262,1.828692 3.526862,2.202135 0.90091,0.222746 2.47548,0.20695 3.43212,-0.03465 0.74927,-0.18908 1.66368,-0.583447 2.20922,-0.95274 0.1834,-0.124096 0.61809,-0.515605 0.96622,-0.8701 0.59877,-0.609695 0.64849,-0.644438 0.92184,-0.644438 0.23644,0 0.33149,0.04248 0.52366,0.234745 0.1885,0.188493 0.23477,0.289042 0.23477,0.51032 0,0.758336 -1.68741,2.219751 -3.28369,2.843852 -1.22029,0.477123 -1.69244,0.565791 -3.13806,0.589494 -0.70255,0.01174 -1.37061,0.0059 -1.48455,-0.01174 z M 89.432028,69.575473 c -1.33552,-0.229362 -2.42445,-0.61725 -3.48706,-1.242035 -0.84735,-0.498244 -1.34757,-0.885838 -2.02061,-1.565664 -1.39817,-1.412208 -2.3009,-3.088285 -2.72091,-5.051624 -0.12311,-0.575773 -0.15091,-0.935397 -0.15267,-1.980954 0,-1.140567 0.0176,-1.359476 0.17831,-2.043707 0.695,-2.949861 2.52438,-5.31289 5.17821,-6.68875 0.85133,-0.441402 1.96784,-0.809657 2.94751,-0.972176 1.02691,-0.170289 2.79009,-0.110003 3.81556,0.130555 1.49078,0.349837 3.12675,1.180928 4.15739,2.11198 l 0.26579,0.240088 0.32112,-0.191233 c 0.98451,-0.585834 2.361442,-1.107546 3.601082,-1.364468 0.70251,-0.145626 0.97331,-0.164221 2.34778,-0.162264 1.34576,0 1.65063,0.02329 2.27867,0.157958 1.08083,0.232063 2.01431,0.55299 2.88274,0.99128 l 0.77672,0.391998 0.36262,-0.292819 c 1.11163,-0.897484 2.35216,-1.498175 3.90375,-1.890329 0.68433,-0.172834 0.84663,-0.187123 2.15557,-0.187906 1.10909,0 1.54263,0.02642 2.00251,0.124292 2.35443,0.50298 4.40877,1.773436 5.82657,3.603381 0.54931,0.708971 0.72172,0.981121 1.09796,1.733036 0.67626,1.351471 0.94125,2.437193 0.99284,4.067234 0.0572,1.808708 -0.19162,3.018995 -0.9367,4.557373 -1.48041,3.056479 -4.3315,5.112008 -7.7182,5.564469 -0.89966,0.120181 -2.43498,0.04247 -3.34417,-0.169115 -1.9562,-0.455358 -3.8763,-1.56539 -5.1218,-2.961038 -1.65987,-1.86001 -2.49023,-3.887471 -2.58325,-6.307596 -0.0523,-1.357675 0.10805,-2.46252 0.53234,-3.671888 l 0.12762,-0.363812 -0.32315,-0.163243 c -1.66935,-0.84352 -4.05405,-0.852269 -5.821,-0.02114 -0.80576,0.378884 -0.77939,0.334766 -0.57747,0.967361 0.52595,1.647892 0.56318,3.522954 0.10569,5.324811 -0.969622,3.819277 -4.206532,6.729404 -8.151392,7.328549 -0.79232,0.120376 -2.19147,0.119006 -2.90015,-0.0059 z m 3.41326,-1.687254 c 2.90132,-0.689045 5.2346,-2.922928 6.07164,-5.813013 0.53923,-1.86179 0.3881,-3.976138 -0.40793,-5.707628 l -0.23077,-0.502041 0.3414,-0.269859 c 0.88676,-0.701005 1.980042,-1.247066 3.137992,-1.567426 0.48893,-0.135253 0.85113,-0.180272 1.69859,-0.211139 1.61223,-0.05872 2.57051,0.123704 3.9156,0.745124 0.60106,0.277689 1.67069,0.9472 1.67069,1.045713 0,0.03151 -0.0894,0.234999 -0.19855,0.452265 -1.03634,2.062361 -1.1427,4.651659 -0.27967,6.809616 0.45315,1.133129 1.00786,1.967332 1.88779,2.839037 0.93561,0.926844 1.94004,1.546658 3.19762,1.972968 1.6466,0.558334 3.63023,0.559939 5.27063,0.0059 3.13076,-1.060354 5.29617,-3.741022 5.66423,-7.01181 0.16012,-1.422523 -0.13094,-3.114181 -0.76434,-4.442908 -0.44626,-0.936219 -0.91485,-1.600406 -1.64443,-2.330928 -2.25754,-2.260503 -5.50291,-3.016725 -8.58099,-1.99949 -1.10129,0.36391 -2.31089,1.116647 -3.17451,1.975454 l -0.4619,0.45937 -0.50908,-0.346216 c -3.45345,-2.348329 -8.28249,-2.234959 -11.606562,0.272404 l -0.39321,0.296656 -0.64254,-0.641775 c -1.10367,-1.102399 -2.37061,-1.828105 -3.84269,-2.201137 -4.45177,-1.128059 -8.92766,1.517846 -10.14412,5.99671 -0.16931,0.623474 -0.18379,0.781432 -0.18418,2.022783 -5.3e-4,1.150334 0.0213,1.432681 0.14797,1.938127 0.29194,1.161863 0.77715,2.196126 1.45562,3.102574 1.51785,2.027931 3.75377,3.198504 6.36626,3.332993 0.55213,0.02838 1.64335,-0.07908 2.23938,-0.220671 z m -3.17157,-1.220857 c -0.74459,-0.1331 -1.1223,-0.262559 -1.90606,-0.653833 -3.62247,-1.808433 -4.93514,-6.325759 -2.85104,-9.811367 0.41674,-0.696914 1.40201,-1.746444 2.03388,-2.166511 0.61224,-0.406991 1.48172,-0.811732 2.17205,-1.01101 0.48447,-0.13995 0.70152,-0.159132 1.79409,-0.158936 1.33914,0 1.59451,0.04463 2.61645,0.456199 2.14807,0.864776 3.8155,2.891865 4.21427,5.123164 0.22703,1.270398 0.20072,2.084518 -0.10394,3.216296 -0.36428,1.353292 -1.23086,2.657728 -2.37205,3.570792 -1.57089,1.256911 -3.63403,1.785865 -5.59759,1.435167 z m 2.93008,-1.731118 c 0.85119,-0.293485 1.49285,-0.689202 2.1071,-1.29968 2.19395,-2.180115 2.1533,-5.667445 -0.0906,-7.784337 -1.48825,-1.403928 -3.54754,-1.841943 -5.49841,-1.169476 -0.84984,0.292917 -1.29631,0.582565 -2.04024,1.323539 -0.53867,0.536588 -0.71784,0.771137 -0.9831,1.286937 -1.54028,2.995175 -0.0393,6.632985 3.161,7.660887 1.02784,0.330146 2.35547,0.323061 3.34436,-0.01762 z m 22.618742,1.771048 c -2.42627,-0.374637 -4.58687,-2.145783 -5.46302,-4.478277 -0.72479,-1.929633 -0.55119,-4.130828 0.46412,-5.885572 0.93628,-1.618081 2.36614,-2.734631 4.20484,-3.283432 0.80343,-0.239776 2.32545,-0.302861 3.17145,-0.131339 2.74783,0.556788 4.80868,2.537312 5.50197,5.287524 0.19582,0.776734 0.1791,2.583935 -0.0311,3.348984 -0.6672,2.430009 -2.64508,4.372698 -5.1042,5.01326 -0.61783,0.160894 -2.08913,0.230105 -2.7442,0.128989 z m 2.61214,-1.725579 c 2.08199,-0.628975 3.54775,-2.346568 3.85071,-4.512296 0.14034,-1.003415 -0.0928,-2.249072 -0.60447,-3.228842 -0.67008,-1.283277 -1.96494,-2.313332 -3.38731,-2.694545 -0.71627,-0.192016 -1.98587,-0.206383 -2.67822,-0.03054 -0.63455,0.161286 -1.49352,0.575363 -2.02948,0.978224 -0.90349,0.679142 -1.69461,1.890584 -1.98064,3.032932 -0.14171,0.565673 -0.15639,1.731333 -0.0296,2.354553 0.3144,1.547265 1.37699,2.963622 2.76238,3.682125 1.29641,0.672428 2.76063,0.821891 4.09675,0.418208 z"
   id="path2" /><path
   style="fill:#ededed;stroke-width:0.0588606"
   d="M 35.663473,123.4089 V 91.307466 l 10.300629,0.0265 c 10.181144,0.0259 10.308349,0.02825 10.967693,0.192589 3.34099,0.831701 5.09422,2.880701 5.491544,6.418037 0.107896,0.960837 0.107896,24.153068 0,25.113918 -0.401195,3.57231 -2.212466,5.68176 -5.497306,6.40245 -1.149791,0.25222 -2.585585,0.30319 -8.607487,0.30549 h -5.591787 v 12.8709 12.8709 h -3.531643 -3.531643 z m 18.572972,-0.02 c 0.509691,-0.17141 0.840832,-0.53799 1.025545,-1.13537 0.13081,-0.42321 0.139486,-1.14602 0.139486,-11.75219 0,-10.606107 -0.0089,-11.328974 -0.139486,-11.752121 -0.184647,-0.597377 -0.515854,-0.964014 -1.025545,-1.135364 -0.365689,-0.12295 -0.938827,-0.1385 -5.957164,-0.16128 l -5.552522,-0.0253 v 13.073945 13.07397 l 5.552522,-0.0253 c 5.018337,-0.023 5.591475,-0.0383 5.957164,-0.16122 z m 17.999144,7.08588 v -25.03547 h 3.610107 3.610151 v 25.03546 25.03542 h -3.610151 -3.610107 z m 15.382262,22.03076 v -3.00462 l 8.622793,-18.95044 8.622786,-18.95039 -8.073386,-0.02 -8.073463,-0.02 v -3.0604 -3.0604 H 100.371 112.02543 v 3.08253 3.08248 l -8.58742,18.87257 -8.587489,18.87252 8.587489,0.02 8.58742,0.02 v 3.06039 3.06039 H 99.821674 87.617851 Z m 29.587979,-0.0756 v -3.08041 l 8.58896,-18.87463 8.589,-18.87469 -8.07951,-0.02 -8.07951,-0.02 v -3.06046 -3.06041 h 11.69368 11.69367 v 3.00967 3.00961 l -8.62003,18.94543 -8.62004,18.94539 8.60044,0.0394 8.60039,0.0394 0.02,3.04111 0.02,3.04115 h -12.20467 -12.20472 z m 38.57272,2.9947 c -0.89451,-0.11635 -2.07473,-0.44951 -2.75292,-0.77689 -1.83539,-0.88615 -2.92213,-2.34283 -3.5098,-4.70462 l -0.16729,-0.67207 -0.0265,-18.28609 c -0.0178,-12.23149 0,-18.51993 0.0547,-18.99235 0.23234,-2.02604 1.04604,-3.76909 2.23278,-4.7829 0.83665,-0.71481 1.92344,-1.23196 3.26117,-1.55181 0.60773,-0.14527 0.99369,-0.16411 4.0289,-0.1967 3.68821,-0.0394 4.31485,0 5.3638,0.36199 0.75131,0.25734 1.64444,0.82735 2.05347,1.31048 0.1604,0.18954 0.42362,0.58337 0.58484,0.8752 l 0.29308,0.53057 v -1.54998 -1.55004 h 3.5709 3.57085 v 25.03546 25.0354 h -3.57085 -3.5709 v -1.58923 -1.58923 l -0.18443,0.39241 c -0.58802,1.25139 -1.71961,2.14477 -3.25594,2.57064 -0.56337,0.15617 -0.80764,0.16729 -4.01384,0.18375 -1.87765,0.009 -3.66114,-0.0156 -3.96327,-0.0541 z m 8.94682,-6.11674 c 0.70528,-0.0999 1.44233,-0.45834 1.79903,-0.87509 0.15128,-0.17686 0.35593,-0.55498 0.45457,-0.84034 l 0.17931,-0.51886 v -16.63799 -16.63798 l -0.17953,-0.44398 c -0.2558,-0.63281 -0.47824,-0.93324 -0.90175,-1.21783 -0.73487,-0.4939 -0.89662,-0.51586 -4.08616,-0.55382 -3.09018,-0.0371 -3.86062,0.0147 -4.52887,0.30201 -0.46406,0.19967 -0.63674,0.41791 -0.8324,1.05208 -0.13881,0.44987 -0.14482,1.17292 -0.14482,17.57799 0,16.17034 0.007,17.1336 0.13948,17.55979 0.24445,0.79051 0.69508,1.13142 1.66563,1.26016 0.51687,0.0685 5.92163,0.0465 6.43542,-0.0258 z M 72.130942,94.713619 c -0.02892,-0.02885 -0.0525,-1.918213 -0.0525,-4.198713 v -4.146443 h 3.767078 3.767101 v 4.198771 4.198711 h -3.714777 c -2.043103,0 -3.738291,-0.02354 -3.767078,-0.05239 z"
   id="path1" /><text
   xml:space="preserve"
   transform="scale(0.26458333)"
   id="text3"
   style="font-size:48px;white-space:pre;shape-inside:url(#rect3);display:inline;fill:#000000" /><text
   xml:space="preserve"
   style="font-size:12.7px;line-height:0.9;letter-spacing:0px;fill:#ffffff;stroke-width:0.264583"
   x="104.90121"
   y="180.04366"
   id="text4"><tspan
     sodipodi:role="line"
     style="font-style:normal;font-variant:normal;font-weight:normal;font-stretch:normal;font-size:19.7556px;line-height:0.9;font-family:Teko;-inkscape-font-specification:Teko;text-align:center;letter-spacing:0px;writing-mode:lr-tb;text-anchor:middle;fill:#ffffff;stroke-width:0.264583"
     x="104.90121"
     y="180.04366"
     id="tspan1"
     dy="0">For wood-fired catering</tspan><tspan
     sodipodi:role="line"
     style="font-style:normal;font-variant:normal;font-weight:normal;font-stretch:normal;font-size:19.7556px;line-height:0.9;font-family:Teko;-inkscape-font-specification:Teko;text-align:center;letter-spacing:0px;writing-mode:lr-tb;text-anchor:middle;fill:#ffffff;stroke-width:0.264583"
     x="104.90121"
     y="197.8237"
     id="tspan8">07508320314</tspan><tspan
     sodipodi:role="line"
     style="font-style:normal;font-variant:normal;font-weight:normal;font-stretch:normal;font-size:19.7556px;line-height:0.9;font-family:Teko;-inkscape-font-specification:Teko;text-align:center;letter-spacing:0px;writing-mode:lr-tb;text-anchor:middle;fill:#ffffff;stroke-width:0.264583"
     x="104.90121"
     y="215.60373"
     id="tspan9">07465214423</tspan><tspan
     sodipodi:role="line"
     style="font-style:normal;font-variant:normal;font-weight:normal;font-stretch:normal;font-size:19.7556px;line-height:0.9;font-family:Teko;-inkscape-font-specification:Teko;text-align:center;letter-spacing:0px;writing-mode:lr-tb;text-anchor:middle;fill:#ffffff;stroke-width:0.264583"
     x="104.90121"
     y="233.38377"
     id="tspan6">littlenunnas.pizza</tspan></text><text
   xml:space="preserve"
   style="font-style:normal;font-variant:normal;font-weight:300;font-stretch:normal;font-size:19.7556px;font-family:Teko;-inkscape-font-specification:'Teko Light';fill:#ffffff;stroke-width:0.264583"
   x="127.0388"
   y="227.28709"
   id="text5"><tspan
     sodipodi:role="line"
     id="tspan3"
     style="stroke-width:0.264583"></tspan></text><style
   type="text/css"
   id="style1">
	.st0{fill:url(#SVGID_1_);}
	.st1{fill:#FFFFFF;}
</style><g
   id="g10"
   transform="translate(68.67907,-23.283342)"><g
     id="g5"
     transform="matrix(0.875,0,0,0.875,0,261.99999)"><path
       class="st0"
       d="M 16.7,39.8 C 7.2,38.1 0,29.9 0,20 0,9 9,0 20,0 31,0 40,9 40,20 40,29.9 32.8,38.1 23.3,39.8 l -1.1,-0.9 h -4.4 z"
       id="path2-0"
       style="fill:url(#linearGradient8)" /><path
       class="st1"
       d="M 27.8,25.6 28.7,20 h -5.3 v -3.9 c 0,-1.6 0.6,-2.8 3,-2.8 H 29 V 8.2 C 27.6,8 26,7.8 24.6,7.8 20,7.8 16.8,10.6 16.8,15.6 V 20 h -5 v 5.6 h 5 v 14.1 c 1.1,0.2 2.2,0.3 3.3,0.3 1.1,0 2.2,-0.1 3.3,-0.3 V 25.6 Z"
       id="path3" /></g><g
     id="g6"
     transform="matrix(0.26918015,0,0,0.26925355,37.372535,261.73074)"><path
       fill="url(#c)"
       d="M 65.03,0 C 37.888,0 29.95,0.028 28.407,0.156 22.837,0.619 19.371,1.496 15.595,3.376 12.685,4.821 10.39,6.496 8.125,8.844 4,13.126 1.5,18.394 0.595,24.656 c -0.44,3.04 -0.568,3.66 -0.594,19.188 -0.01,5.176 0,11.988 0,21.125 0,27.12 0.03,35.05 0.16,36.59 0.45,5.42 1.3,8.83 3.1,12.56 3.44,7.14 10.01,12.5 17.75,14.5 2.68,0.69 5.64,1.07 9.44,1.25 1.61,0.07 18.02,0.12 34.44,0.12 16.42,0 32.84,-0.02 34.41,-0.1 4.4,-0.207 6.955,-0.55 9.78,-1.28 7.79,-2.01 14.24,-7.29 17.75,-14.53 1.765,-3.64 2.66,-7.18 3.065,-12.317 0.088,-1.12 0.125,-18.977 0.125,-36.81 0,-17.836 -0.04,-35.66 -0.128,-36.78 -0.41,-5.22 -1.305,-8.73 -3.127,-12.44 -1.495,-3.037 -3.155,-5.305 -5.565,-7.624 C 116.9,4 111.64,1.5 105.372,0.596 102.335,0.157 101.73,0.027 86.19,0 Z"
       transform="translate(1.004,1)"
       id="path7"
       style="fill:url(#c)" /><path
       fill="url(#d)"
       d="M 65.03,0 C 37.888,0 29.95,0.028 28.407,0.156 22.837,0.619 19.371,1.496 15.595,3.376 12.685,4.821 10.39,6.496 8.125,8.844 4,13.126 1.5,18.394 0.595,24.656 c -0.44,3.04 -0.568,3.66 -0.594,19.188 -0.01,5.176 0,11.988 0,21.125 0,27.12 0.03,35.05 0.16,36.59 0.45,5.42 1.3,8.83 3.1,12.56 3.44,7.14 10.01,12.5 17.75,14.5 2.68,0.69 5.64,1.07 9.44,1.25 1.61,0.07 18.02,0.12 34.44,0.12 16.42,0 32.84,-0.02 34.41,-0.1 4.4,-0.207 6.955,-0.55 9.78,-1.28 7.79,-2.01 14.24,-7.29 17.75,-14.53 1.765,-3.64 2.66,-7.18 3.065,-12.317 0.088,-1.12 0.125,-18.977 0.125,-36.81 0,-17.836 -0.04,-35.66 -0.128,-36.78 -0.41,-5.22 -1.305,-8.73 -3.127,-12.44 -1.495,-3.037 -3.155,-5.305 -5.565,-7.624 C 116.9,4 111.64,1.5 105.372,0.596 102.335,0.157 101.73,0.027 86.19,0 Z"
       transform="translate(1.004,1)"
       id="path8"
       style="fill:url(#d)" /><path
       fill="#ffffff"
       d="m 66.004,18 c -13.036,0 -14.672,0.057 -19.792,0.29 -5.11,0.234 -8.598,1.043 -11.65,2.23 -3.157,1.226 -5.835,2.866 -8.503,5.535 -2.67,2.668 -4.31,5.346 -5.54,8.502 -1.19,3.053 -2,6.542 -2.23,11.65 C 18.06,51.327 18,52.964 18,66 c 0,13.036 0.058,14.667 0.29,19.787 0.235,5.11 1.044,8.598 2.23,11.65 1.227,3.157 2.867,5.835 5.536,8.503 2.667,2.67 5.345,4.314 8.5,5.54 3.054,1.187 6.543,1.996 11.652,2.23 5.12,0.233 6.755,0.29 19.79,0.29 13.037,0 14.668,-0.057 19.788,-0.29 5.11,-0.234 8.602,-1.043 11.656,-2.23 3.156,-1.226 5.83,-2.87 8.497,-5.54 2.67,-2.668 4.31,-5.346 5.54,-8.502 1.18,-3.053 1.99,-6.542 2.23,-11.65 0.23,-5.12 0.29,-6.752 0.29,-19.788 0,-13.036 -0.06,-14.672 -0.29,-19.792 -0.24,-5.11 -1.05,-8.598 -2.23,-11.65 -1.23,-3.157 -2.87,-5.835 -5.54,-8.503 -2.67,-2.67 -5.34,-4.31 -8.5,-5.535 -3.06,-1.187 -6.55,-1.996 -11.66,-2.23 C 80.659,18.057 79.029,18 65.989,18 Z m -4.306,8.65 c 1.278,-0.002 2.704,0 4.306,0 12.816,0 14.335,0.046 19.396,0.276 4.68,0.214 7.22,0.996 8.912,1.653 2.24,0.87 3.837,1.91 5.516,3.59 1.68,1.68 2.72,3.28 3.592,5.52 0.657,1.69 1.44,4.23 1.653,8.91 0.23,5.06 0.28,6.58 0.28,19.39 0,12.81 -0.05,14.33 -0.28,19.39 -0.214,4.68 -0.996,7.22 -1.653,8.91 -0.87,2.24 -1.912,3.835 -3.592,5.514 -1.68,1.68 -3.275,2.72 -5.516,3.59 -1.69,0.66 -4.232,1.44 -8.912,1.654 -5.06,0.23 -6.58,0.28 -19.396,0.28 -12.817,0 -14.336,-0.05 -19.396,-0.28 -4.68,-0.216 -7.22,-0.998 -8.913,-1.655 -2.24,-0.87 -3.84,-1.91 -5.52,-3.59 -1.68,-1.68 -2.72,-3.276 -3.592,-5.517 -0.657,-1.69 -1.44,-4.23 -1.653,-8.91 -0.23,-5.06 -0.276,-6.58 -0.276,-19.398 0,-12.818 0.046,-14.33 0.276,-19.39 0.214,-4.68 0.996,-7.22 1.653,-8.912 0.87,-2.24 1.912,-3.84 3.592,-5.52 1.68,-1.68 3.28,-2.72 5.52,-3.592 1.692,-0.66 4.233,-1.44 8.913,-1.655 4.428,-0.2 6.144,-0.26 15.09,-0.27 z m 29.928,7.97 c -3.18,0 -5.76,2.577 -5.76,5.758 0,3.18 2.58,5.76 5.76,5.76 3.18,0 5.76,-2.58 5.76,-5.76 0,-3.18 -2.58,-5.76 -5.76,-5.76 z m -25.622,6.73 c -13.613,0 -24.65,11.037 -24.65,24.65 0,13.613 11.037,24.645 24.65,24.645 C 79.617,90.645 90.65,79.613 90.65,66 90.65,52.387 79.616,41.35 66.003,41.35 Z m 0,8.65 c 8.836,0 16,7.163 16,16 0,8.836 -7.164,16 -16,16 -8.837,0 -16,-7.164 -16,-16 0,-8.837 7.163,-16 16,-16 z"
       id="path9" /></g></g>
<style
   type="text/css"
   id="style1-4">
	.st0{fill:url(#SVGID_1_);}
	.st1{fill:#FFFFFF;}
</style>
<linearGradient
   id="SVGID_1_"
   gradientUnits="userSpaceOnUse"
   x1="-277.375"
   y1="406.6018"
   x2="-277.375"
   y2="407.5726"
   gradientTransform="matrix(40 0 0 -39.7778 11115.001 16212.334)">
	<stop
   offset="0"
   style="stop-color:#0062E0"
   id="stop1-1" />
	<stop
   offset="1"
   style="stop-color:#19AFFF"
   id="stop2-4" />
</linearGradient>
<path
   class="st0"
   d="M 366.71021,10.530417 C 364.19666,10.080625 362.29166,7.9110419 362.29166,5.2916668 362.29166,2.3812501 364.67291,0 367.58333,0 c 2.91042,0 5.29167,2.3812501 5.29167,5.2916668 0,2.6193751 -1.905,4.7889582 -4.41854,5.2387502 l -0.29105,-0.238125 h -1.16416 z"
   id="path2-5"
   style="fill:url(#linearGradient7);stroke-width:0.264583" />
<path
   class="st1"
   d="m 369.64708,6.7733335 0.23813,-1.4816667 h -1.4023 v -1.031875 c 0,-0.4233334 0.15875,-0.7408334 0.79375,-0.7408334 h 0.68792 v -1.349375 c -0.37042,-0.052917 -0.79375,-0.1058333 -1.16417,-0.1058333 -1.21708,0 -2.06375,0.7408333 -2.06375,2.06375 v 1.1641667 h -1.32291 v 1.4816667 h 1.32291 v 3.7306255 c 0.29105,0.05292 0.58209,0.07938 0.87313,0.07938 0.29104,0 0.58208,-0.02646 0.87312,-0.07938 V 6.7733335 Z"
   id="path3-9"
   style="stroke-width:0.264583" />
<text
   xml:space="preserve"
   transform="scale(0.26458333)"
   id="text9"
   style="fill:#00ff00;font-size:74.66666667px;-inkscape-font-specification:'Teko Light';font-family:Teko;font-weight:300;font-style:normal;font-stretch:normal;font-variant:normal;letter-spacing:0px;writing-mode:lr-tb;white-space:pre;shape-inside:url(#rect9)" /><text
   xml:space="preserve"
   transform="scale(0.26458333)"
   id="text10"
   style="font-style:normal;font-variant:normal;font-weight:normal;font-stretch:normal;font-size:74.6667px;line-height:0.9;font-family:Teko;-inkscape-font-specification:Teko;text-align:center;letter-spacing:0px;writing-mode:lr-tb;white-space:pre;shape-inside:url(#rect10);fill:#ffffff" /><text
   xml:space="preserve"
   style="font-style:normal;font-variant:normal;font-weight:normal;font-stretch:normal;font-size:12.9689px;line-height:0.9;font-family:Teko;-inkscape-font-specification:Teko;text-align:center;letter-spacing:0px;writing-mode:lr-tb;text-anchor:middle;fill:#ffffff;stroke-width:0.442121"
   x="141.03705"
   y="292.13519"
   id="text12"><tspan
     sodipodi:role="line"
     id="tspan12"
     style="stroke-width:0.442121"
     x="141.03705"
     y="292.13519">No dough kept in this vehicle overnight</tspan></text></svg>
