<?xml version="1.0" encoding="UTF-8" standalone="no"?>
<!-- Created with Inkscape (http://www.inkscape.org/) -->

<svg
   version="1.1"
   id="svg1"
   width="5000"
   height="5000"
   viewBox="0 0 5000 5000"
   sodipodi:docname="logo-full-green.svg"
   inkscape:export-filename="logo-plain.svg"
   inkscape:export-xdpi="96"
   inkscape:export-ydpi="96"
   inkscape:version="1.3.1 (91b66b0783, 2023-11-16)"
   xmlns:inkscape="http://www.inkscape.org/namespaces/inkscape"
   xmlns:sodipodi="http://sodipodi.sourceforge.net/DTD/sodipodi-0.dtd"
   xmlns="http://www.w3.org/2000/svg"
   xmlns:svg="http://www.w3.org/2000/svg">
  <defs
     id="defs1" />
  <sodipodi:namedview
     id="namedview1"
     pagecolor="#0a9869"
     bordercolor="#000000"
     borderopacity="0.25"
     inkscape:showpageshadow="2"
     inkscape:pageopacity="0.0"
     inkscape:pagecheckerboard="0"
     inkscape:deskcolor="#d1d1d1"
     inkscape:zoom="0.3578"
     inkscape:cx="2498.6026"
     inkscape:cy="2136.6685"
     inkscape:window-width="3840"
     inkscape:window-height="2066"
     inkscape:window-x="3829"
     inkscape:window-y="-11"
     inkscape:window-maximized="1"
     inkscape:current-layer="g1" />
  <g
     inkscape:groupmode="layer"
     inkscape:label="Image"
     id="g1">
    <path
       style="fill:#a80c0b"
       d="m 1526.5,2763.5299 c -124.5813,-8.0352 -231.3588,-38.235 -305,-86.2631 -11.0707,-7.2202 -24.5405,-17.5037 -28.697,-21.9086 -12.9819,-13.7581 -3.0653,-36.3582 15.9534,-36.3582 5.9707,0 9.5496,1.7922 20.2961,10.1634 78.5125,61.1587 224.0848,96.6491 376.3602,91.7563 39.843,-1.2802 59.7018,-2.9483 95.5873,-8.0291 85.7177,-12.1362 160.1455,-37.2925 211.9958,-71.6537 8.5273,-5.651 17.3042,-10.7747 19.5042,-11.386 8.7518,-2.4317 19.302,2.2353 24.2884,10.7442 1.92,3.2764 2.2393,5.0616 1.9837,11.0919 -0.4389,10.3556 -2.9338,13.4723 -19.8292,24.7708 -70.5895,47.2057 -175.0021,77.7022 -296.4429,86.5842 -23.5286,1.7208 -92.3931,2.0105 -116,0.4879 z m 14.5,-84.542 c -27.3922,-3.2392 -39.9842,-9.4291 -39.9963,-19.6612 -0,-4.2771 4.1362,-9.0747 8.5475,-9.9023 2.6249,-0.4924 4.6111,-0.026 8.458,1.9852 2.7652,1.4459 8.0568,3.3198 11.7592,4.1643 9.3789,2.1392 45.8031,3.0883 57.1413,1.4888 9.7848,-1.3804 17.8366,-3.6641 20.2163,-5.7339 2.6398,-2.2961 8.1883,-2.7348 11.6896,-0.9242 3.9006,2.0171 5.1844,4.3579 5.1844,9.4529 0,12.0274 -19.9492,18.9033 -57,19.6463 -10.175,0.204 -21.875,-0.028 -26,-0.5159 z m 523,-24.6081 c -31.1536,-2.7151 -57.8504,-17.2051 -76.2396,-41.3798 -6.7592,-8.8857 -14.2213,-24.5269 -17.4246,-36.5235 -2.322,-8.6961 -2.6713,-11.9658 -2.7213,-25.4765 -0.062,-16.6541 1.573,-26.1181 6.6833,-38.6946 2.2712,-5.5896 2.3145,-6.1587 1.0882,-14.3132 -1.5949,-10.6066 -1.717,-23.9759 -0.3021,-33.0952 l 1.084,-6.9862 -3.834,-4.5102 c -7.6233,-8.968 -17.108,-21.6135 -21.4256,-28.5657 -2.4246,-3.904 -7.7524,-10.5264 -11.8397,-14.7165 -13.1856,-13.5173 -22.1836,-29.6246 -27.1971,-48.6854 -2.0115,-7.6474 -2.3424,-11.2356 -2.2996,-24.933 0.035,-11.2129 0.5322,-17.943 1.6616,-22.4941 0.8864,-3.5718 1.5339,-6.5064 1.439,-6.5213 -6.4453,-1.0131 -20.5027,-5.6143 -27.6167,-9.0393 -12.2492,-5.8974 -19.6821,-11.3058 -29.6713,-21.5901 -12.7305,-13.1065 -21.1093,-27.4777 -25.5687,-43.8552 -1.1232,-4.125 -2.1565,-7.6278 -2.2963,-7.784 -0.1398,-0.1562 -2.4135,0.2 -5.0528,0.7915 -33.0036,7.3962 -68.8845,-2.4567 -93.4964,-25.6743 -5.4056,-5.0994 -14.6592,-16.3743 -16.4445,-20.0365 -0.054,-0.1119 -3.2326,0.9392 -7.0625,2.3356 -20.0191,7.2992 -45.4555,7.2644 -64.9633,-0.089 -12.0069,-4.5259 -22.7964,-11.0548 -31.2386,-18.9029 l -3.2385,-3.0106 -2.2615,2.042 c -7.8909,7.1254 -22.6921,15.0325 -37.0899,19.8143 -13.7082,4.5527 -24.0686,5.9073 -40.0667,5.2386 -18.5226,-0.7742 -31.7222,-3.9586 -47.5626,-11.4745 -6.9345,-3.2903 -7.5309,-3.4138 -8.5,-1.7601 -9.0151,15.3842 -17.3188,25.6457 -27.4792,33.9583 -28.1047,22.9933 -66.2598,29.7582 -100.892,17.8882 -4.031,-1.3816 -7.5747,-2.2663 -7.8749,-1.9661 -0.3003,0.3002 -2.0337,4.1804 -3.852,8.6225 -13.1747,32.1851 -45.7793,57.2772 -80.6941,62.1011 l -8.75,1.2089 v 11.2174 c 0,19.2776 -3.7904,34.8738 -12.4162,51.0886 -9.5262,17.9075 -25.2304,33.5732 -42.4168,42.3128 -3.1615,1.6077 -4.1664,2.6372 -3.7171,3.8082 1.2353,3.2192 0.6113,25.0577 -0.929,32.5152 -7.0551,34.1559 -30.687,62.308 -68.3809,81.4605 -5.7308,2.9118 -10.9268,5.2942 -11.5468,5.2942 -0.793,0 -1.1261,5.1158 -1.1232,17.25 0,14.4016 -0.3529,18.6536 -2.1577,25.75 -10.2352,40.2443 -41.5204,70.114 -81.8123,78.1107 -8.6074,1.7083 -30.81345,1.714 -39,0.01 -22.09648,-4.5993 -41.45661,-15.5435 -57,-32.2216 -11.38707,-12.2184 -19.68219,-27.5457 -24.18798,-44.6932 -2.12628,-8.0919 -2.56961,-12.1169 -2.66613,-24.2058 -0.11894,-14.8978 0.7438,-21.1193 4.57117,-32.9646 l 2.0888,-6.4645 -2.82529,-2.0355 c -18.37363,-13.237 -32.23606,-26.2323 -41.38276,-38.7941 -28.50145,-39.1429 -29.34497,-88.2652 -2.14201,-124.7413 5.77241,-7.7402 17.3553,-19.3055 25.20892,-25.1708 l 6.66472,-4.9774 -4.28333,-6.1759 c -16.63439,-23.9843 -28.28912,-54.4125 -33.19889,-86.6759 -2.36505,-15.5414 -2.38641,-45.3986 -0.0433,-60.5 8.01689,-51.6684 33.9286,-97.4716 74.0952,-130.9755 28.88817,-24.0962 70.72381,-41.8682 108.35666,-46.0303 5.3251,-0.589 6.3184,-1.0119 6.6773,-2.8431 12.6372,-64.4816 47.4116,-125.3073 102.0174,-178.4438 32.651,-31.7725 65.5364,-55.0233 107.5495,-76.0403 40.3534,-20.1868 75.4781,-31.8513 116.2266,-38.5973 22.7387,-3.7644 35.0273,-4.7791 58.2734,-4.8115 65.3919,-0.091 120.8849,17.5588 164.6307,52.3622 11.3905,9.0621 28.7734,27.3007 36.8693,38.6842 3.575,5.0268 6.9041,9.1522 7.3979,9.1675 0.4938,0.015 4.8177,-3.7508 9.6085,-8.3692 8.9963,-8.6724 22.2224,-18.9396 34.598,-26.8576 33.7601,-21.6002 70.6495,-34.9848 115.3956,-41.8689 12.2804,-1.8893 18.7862,-2.2419 42.5,-2.3036 29.4176,-0.076 38.8849,0.6853 61.631,4.9589 84.8426,15.9404 157.9068,60.6535 205.0234,125.4683 43.4997,59.8393 59.7505,130.9753 44.7754,196 -3.3061,14.3555 -3.9029,13.0853 7.0702,15.0479 81.5935,14.5935 150.5108,89.0617 169.3146,182.9521 4.4613,22.2764 5.1645,30.1736 5.1639,58 -5e-4,22.6696 -0.3259,28.5236 -2.2515,40.5 -9.3009,57.8498 -33.652,106.4868 -71.8628,143.5332 -12.227,11.8543 -18.3394,16.7282 -33.1138,26.4036 -6.6718,4.3691 -10.4132,7.4716 -10.7182,8.8877 -5.4794,25.4444 -14.4557,43.7036 -29.5176,60.0439 -3.059,3.3186 -4.0695,5.4195 -4.9549,10.3021 -3.6678,20.227 -14.5973,39.9502 -30.5359,55.1045 -18.5799,17.6657 -40.7623,27.2369 -66.2508,28.5857 -4.2752,0.2262 -9.798,0.2348 -12.273,0.019 z m 18.2008,-44.4448 c 26.5664,-5.3389 45.3858,-25.9658 48.8066,-53.4945 0.5956,-4.7929 1.8012,-10.1153 2.6791,-11.8275 0.8779,-1.7121 5.579,-7.2888 10.4469,-12.3926 7.1717,-7.5191 9.691,-11.0287 13.28,-18.5 4.6532,-9.6868 7.1009,-18.7121 8.1301,-29.9777 0.9691,-10.6084 4.2297,-14.6239 18.4565,-22.7295 20.7276,-11.8094 33.4902,-21.9681 47.0658,-37.4631 49.5448,-56.5497 64.9597,-141.8702 39.442,-218.3097 -16.3028,-48.8362 -47.936,-87.8887 -87.696,-108.2647 -21.791,-11.1672 -39.3324,-15.644 -64.475,-16.4546 -11.7092,-0.3775 -15.0089,-0.8233 -18.221,-2.462 -5.1174,-2.6107 -9.5992,-8.1425 -11.1845,-13.8046 -1.5772,-5.6332 -0.7427,-9.7396 4.9995,-24.6017 4.2549,-11.0125 7.8023,-24.0803 10.2214,-37.6528 1.9163,-10.7517 1.6072,-41.7905 -0.5428,-54.4939 -6.0164,-35.5492 -19.5439,-66.2313 -43.4307,-98.5061 -8.1951,-11.0729 -37.8944,-40.2231 -49.936,-49.0128 -41.6081,-30.3714 -85.0483,-48.0411 -136.7427,-55.6213 -15.181,-2.2261 -58.1301,-2.5382 -72.5,-0.5269 -65.3203,9.1427 -118.3194,37.3031 -153.4394,81.5281 -8.8022,11.0841 -13.2136,13.8807 -22.0245,13.9624 -10.0017,0.093 -15.8316,-4.8666 -22.6326,-19.2524 -25.4954,-53.9295 -75.9716,-87.1152 -147.9035,-97.2399 -14.0784,-1.9816 -56.1082,-1.6795 -72,0.5175 -70.4994,9.7464 -136.9863,39.8369 -194,87.7999 -59.1912,49.7948 -99.4599,114.8408 -109.1718,176.3454 -2.8745,18.2038 -3.7723,21.3668 -7.16,25.2251 -5.2647,5.9962 -9.6014,7.4825 -24.5032,8.3983 -27.1165,1.6663 -47.0694,7.0699 -70.47048,19.0847 -43.36363,22.264 -76.11568,66.9006 -85.32912,116.2919 -2.55587,13.7015 -2.58087,45.9488 -0.0457,59 6.03924,31.0909 19.67652,58.9138 39.79161,81.1832 6.94923,7.6935 8.88874,11.6757 8.88874,18.25 0,10.5512 -4.2352,16.0883 -17.34399,22.6757 -23.43159,11.7747 -37.97675,26.8733 -43.72757,45.3911 -6.54222,21.0662 1.96781,47.1469 21.74124,66.6304 8.48668,8.3623 21.49454,18.0062 31.42053,23.295 10.36251,5.5214 14.35665,9.0594 16.46756,14.5867 2.75271,7.2079 1.68111,14.5864 -3.31902,22.8532 -6.99168,11.5595 -8.74318,18.1211 -8.71127,32.6347 0.0239,10.8746 0.36178,13.4235 2.59833,19.602 6.40387,17.6908 21.28398,32.3185 38.33266,37.6825 10.34436,3.2547 27.17563,3.154 37.49123,-0.2241 15.2245,-4.9857 28.4378,-16.7387 35.4818,-31.5604 4.3833,-9.2231 5.7125,-15.1579 5.7059,-25.4765 -0.01,-9.1469 -0.874,-14.1142 -4.0951,-23.4301 -2.7639,-7.9936 -2.5892,-12.318 0.7563,-18.7221 3.5567,-6.8084 6.6916,-8.8696 20.4744,-13.4623 33.6444,-11.2108 55.3256,-29.4912 63.3447,-53.409 2.9319,-8.7447 2.5367,-23.155 -0.9516,-34.6904 -3.0257,-10.0058 -2.9421,-13.7328 0.4599,-20.5017 2.5747,-5.1229 7.2114,-8.3485 16.235,-11.2941 10.3522,-3.3793 16.0638,-6.4217 22.639,-12.0593 14.0747,-12.0677 21.1959,-27.3301 21.2082,-45.4545 0.01,-11.1014 -1.1465,-16.7481 -5.4032,-26.4381 -3.9619,-9.0185 -4.5719,-14.2653 -2.3386,-20.1131 4.7938,-12.5525 14.7547,-16.8262 29.8893,-12.824 9.0425,2.3913 24.3831,2.0841 32.6443,-0.6536 14.8341,-4.916 25.2685,-12.725 33.164,-24.8199 6.8141,-10.4381 8.9124,-17.7914 9.7451,-34.1513 0.7758,-15.2413 1.6532,-17.7576 8.1232,-23.2957 6.6679,-5.7074 15.67,-6.8671 23.3014,-3.0017 1.5585,0.7894 5.3835,3.7788 8.5,6.6431 25.4161,23.3596 60.8079,23.2524 84.2293,-0.2549 10.9265,-10.9666 15.7291,-20.5781 17.9823,-35.9882 2.0897,-14.2915 9.7388,-22.1026 21.6441,-22.1026 7.6166,0 10.9714,1.7486 20.7138,10.7966 15.1995,14.1163 31.226,20.5671 51.0968,20.5671 22.829,0 39.9913,-8.1469 57.4862,-27.2888 9.5591,-10.459 13.8355,-12.7299 22.1231,-11.7484 8.0038,0.948 13.0346,4.5279 18.3521,13.0594 10.8306,17.377 25.3969,26.0025 44.0386,26.0778 13.6655,0.055 22.6106,-3.0624 33.8441,-11.7952 9.1419,-7.1069 17.0709,-7.9354 26.3003,-2.7482 4.7639,2.6775 7.3457,6.348 11.2769,16.0322 8.0236,19.7658 23.7977,33.1004 44.4748,37.5963 14.9693,3.255 29.2119,0.5102 44.7223,-8.6185 4.4866,-2.6406 9.9085,-5.0969 12.0485,-5.4585 9.3927,-1.5869 20.0826,4.3778 23.3963,13.0545 1.406,3.6815 1.5986,6.2849 1.0537,14.2394 -2.1068,30.7525 14.1862,56.3684 41.5555,65.334 7.5471,2.4722 13.1553,2.7412 36.4014,1.746 7.545,-0.3231 8.3958,-0.1469 12.9881,2.6897 8.0844,4.9935 12.0937,14.9953 9.492,23.6789 -0.6616,2.2084 -3.654,7.6559 -6.6497,12.1055 -7.4069,11.0017 -10.5644,21.0002 -10.6362,33.6802 -0.1021,18.0223 5.5443,31.4278 18.7433,44.5 4.4796,4.4366 10.2212,11.4778 12.8902,15.8078 7.389,11.9876 16.1073,23.322 25.2935,32.8836 12.6473,13.1639 14.0162,17.544 10.312,32.9953 -2.7035,11.2771 -2.6641,25.2669 0.1044,37.0592 2.5277,10.7667 2.2381,13.1341 -3.0016,24.5377 -4.9893,10.8586 -6.0584,15.4756 -6.0706,26.2164 -0.018,16.2341 4.9041,29.2805 15.3536,40.6918 14.7096,16.0635 35.6689,23.2905 55.808,19.2432 z m -534.9539,-3.9668 c -27.4797,-3.4669 -51.8295,-15.2493 -68.9984,-33.3872 -9.8705,-10.4274 -12.9062,-16.058 -11.2931,-20.9458 1.5647,-4.7411 4.2144,-6.7873 9.5711,-7.3911 4.5007,-0.5073 4.7046,-0.4067 8.7905,4.3366 17.4282,20.232 31.8925,29.1897 55.683,34.4843 12.888,2.8683 32.3108,2.6403 46.3484,-0.5439 19.3621,-4.392 40.4295,-16.6029 49.6516,-28.7787 4.1696,-5.505 6.9083,-7.1697 11.5774,-7.0374 7.3955,0.2097 11.7549,6.7281 9.3575,13.9921 -1.5027,4.5533 -15.8998,19.2892 -24.4349,25.0099 -12.9156,8.6568 -30.4821,15.877 -45.6863,18.7781 -10.2516,1.956 -30.8492,2.7091 -40.5668,1.4831 z m -183.7561,-36.058 c -27.5963,-2.3228 -56.3415,-14.3427 -78.8528,-32.9727 -23.8712,-19.7555 -40.7039,-47.7314 -47.7964,-79.4375 -2.9005,-12.9664 -3.624,-39.7176 -1.42,-52.5 10.3527,-60.0417 55.5413,-106.0077 115.5784,-117.5667 6.9334,-1.3349 13.9577,-1.8148 26,-1.776 17.8801,0.058 29.844,1.901 45.3134,6.9826 14.7858,4.8569 34.4243,16.129 47.8073,27.4404 l 3.6208,3.0602 5.3792,-3.4214 c 2.9586,-1.8817 9.4293,-5.2342 14.3793,-7.4498 46.3395,-20.7419 100.0949,-19.8267 145.1631,2.4715 l 11.1631,5.5231 8.8369,-6.6555 c 15.8828,-11.9621 36.3429,-21.1142 57.3665,-25.661 13.6424,-2.9505 38.5443,-3.2197 52.9704,-0.5728 55.9524,10.2664 101.0605,53.1143 113.8287,108.1254 10.8219,46.6259 -1.8549,94.3667 -34.3192,129.2458 -54.2622,58.2982 -145.2389,60.9961 -203.1165,6.0233 -16.117,-15.3081 -30.5307,-38.4577 -37.2143,-59.7691 -8.4848,-27.055 -8.7069,-57.4513 -0.6139,-84.0198 1.4207,-4.6641 2.8114,-9.4093 3.0903,-10.5448 0.4287,-1.7449 -0.5503,-2.5417 -6.324,-5.1471 -11.4606,-5.1716 -17.8073,-6.8345 -31.5023,-8.2535 -11.0409,-1.144 -24.7889,0.03 -35.8277,3.0586 -9.5774,2.628 -26.0011,10.4692 -26.0011,12.4138 0,0.8044 1.1481,5.4069 2.5513,10.2277 18.0821,62.1214 -9.5549,130.1347 -66.0513,162.5487 -25.6541,14.7187 -54.4866,21.1115 -84.0092,18.6266 z m 31.2105,-22.4631 c 25.5944,-3.8004 48.7131,-15.5913 67.2826,-34.3153 18.247,-18.3989 29.2452,-39.3775 34.1458,-65.1318 1.831,-9.6226 1.5881,-31.809 -0.4622,-42.2098 -1.9968,-10.1294 -5.8849,-22.2327 -9.3604,-29.1381 -2.3657,-4.7003 -2.3847,-4.909 -0.6235,-6.8594 3.4418,-3.8116 21.2482,-14.9492 29.3898,-18.3829 39.3356,-16.5897 81.3269,-12.7575 116.2647,10.6103 l 7.6262,5.1007 -3.5141,6.9781 c -14.213,28.2233 -16.3483,62.8897 -5.7493,93.3399 4.1453,11.9092 7.0052,17.7242 13.328,27.0999 15.3199,22.7166 36.5165,39.157 61.6843,47.8434 C 1782.6053,2569.2654 1865,2510.84 1865,2428.7239 c 0,-33.3912 -11.3308,-61.684 -34.1502,-85.2722 -23.5489,-24.3422 -52.586,-36.5861 -86.8498,-36.6214 -32.6251,-0.034 -60.7062,11.2863 -84.1328,33.9154 l -7.6327,7.373 -7.3673,-4.9937 c -9.1605,-6.2093 -22.8652,-13.0128 -33.3672,-16.5648 -15.3316,-5.1854 -23.9079,-6.6274 -43,-7.2296 -15.4019,-0.4859 -19.732,-0.27 -30,1.4957 -6.6,1.1349 -15.6,3.2557 -20,4.7128 -15.0785,4.9933 -33.2093,14.5779 -44.6163,23.5858 l -2.6164,2.066 -9.3836,-9.1981 c -21.2269,-20.8072 -46.1983,-32.4481 -74.99,-34.9581 -35.7283,-3.1146 -71.0165,9.8385 -96.4139,35.3904 -24.1582,24.3051 -36.7583,56.1796 -35.1895,89.0189 1.5842,33.1619 13.9255,60.9345 36.9853,83.2304 10.4475,10.1015 17.5557,15.2122 29.5215,21.2256 22.943,11.5299 47.1736,15.3678 72.9042,11.5471 z M 1366.5,2527.9196 c -38.9313,-3.9355 -72.6391,-30.5865 -85.1321,-67.3095 -5.3965,-15.863 -6.9386,-37.0902 -3.7988,-52.291 6.3362,-30.6755 26.1954,-56.5825 53.9309,-70.3548 15.2286,-7.5619 26.6976,-10.2103 44.5,-10.2758 11.5229,-0.042 16.2452,0.3792 23,2.0538 18.3645,4.5527 33.9846,13.1788 47.3429,26.145 13.3988,13.0055 22.5113,28.6537 27.4287,47.1012 2.2056,8.2743 2.538,11.5927 2.5553,25.5115 0.022,17.8525 -1.3128,24.7439 -7.6071,39.2684 -17.2059,39.7039 -59.3227,64.4875 -102.2198,60.1512 z m 32.5,-24.4217 c 36.8558,-11.588 60.1582,-46.1597 56.0353,-83.1346 -2.0938,-18.7773 -9.4209,-34.5232 -22.0353,-47.354 -16.1965,-16.4743 -33.8722,-23.9746 -56.5,-23.9746 -22.9314,0 -42.4904,8.5001 -58.1872,25.2872 -7.9328,8.4839 -13.3819,17.7499 -17.4528,29.6781 -3.0006,8.7918 -3.2428,10.4691 -3.2489,22.5 -0,8.9867 0.5279,15.161 1.725,20 2.2357,9.0378 9.3184,23.447 15.1009,30.7218 8.2897,10.4292 22.7361,20.6838 35.7541,25.3797 14.3357,5.1712 34.0607,5.5335 48.8089,0.8964 z m 339.5,24.8441 c -32.9843,-2.6576 -60.4478,-18.4195 -77.9646,-44.7456 -9.7179,-14.6052 -14.8092,-29.2915 -16.5486,-47.7363 -2.3305,-24.7134 4.2966,-47.6538 19.7563,-68.3878 15.8307,-21.2317 38.8248,-34.9777 65.2569,-39.0109 11.9472,-1.823 18.0232,-1.823 30.1182,3e-4 32.7248,4.933 60.5189,25.3125 74.8746,54.9003 5.9002,12.1607 8.5426,21.3533 10.0518,34.9689 3.5914,32.4009 -10.6744,66.6241 -36.3337,87.1634 -13.1835,10.5529 -31.4574,19.0056 -46.2109,21.3752 -7.6684,1.2316 -17.8772,1.8852 -23,1.4725 z m 25,-23.7658 c 3.3,-0.8697 10.5557,-3.8198 16.1239,-6.5556 20.8963,-10.2672 35.5973,-28.6966 41.4951,-52.0192 2.8134,-11.1254 2.2969,-29.7509 -1.1231,-40.5014 -9.1416,-28.7358 -31.5415,-49.2945 -59.9899,-55.0589 -11.9319,-2.4177 -28.6354,-1.596 -39.506,1.9435 -13.252,4.3148 -21.8462,9.7261 -32.593,20.5218 -8.1461,8.183 -10.297,11.0663 -14.2599,19.1151 -8.369,16.9975 -10.7194,34.0303 -7.1084,51.5121 6.5246,31.5877 31.5321,55.9788 63.9613,62.3849 6.8381,1.3508 25.6918,0.5839 33,-1.3423 z"
       id="path80" />
    <path
       style="fill:#ededed"
       d="M 833.24797,3080.25 833.5,2837.5 l 26.75,-0.2663 26.75,-0.2664 V 3056.9837 3277 h 56 56 v 23 23 H 915.99797 832.99594 Z M 1068,3080 v -243 h 27 27 v 243 243 h -27 -27 z m 201,23.5117 v -219.4882 l -38.75,-0.2618 -38.75,-0.2617 v -23 -23 l 104.75,-0.2546 104.75,-0.2546 V 2860.4954 2884 h -39 -39 v 219.5 219.5 h -27 -27 z m 233,-0.012 V 2884 h -39 -39 v -23.5 -23.5 h 105 105 v 23.5 23.5 h -39 -39 v 219.5 219.5 h -27 -27 z m 194,-23.5 v -243 h 26.5 26.5 v 220 220 h 56 56 v 23 23 h -82.5 -82.5 z m 227,0 v -243 h 91 91 v 23.5 23.5 h -64 -64 v 81.5 81.5 h 52.5 52.5 v 23.5 23.5 h -52.5 -52.5 v 91.5 91.5 h 67 67 v 23 23 h -94 -94 z m 378.248,0.25 0.252,-242.75 h 31.5 31.5 l 48,179.946 48,179.946 0.2527,-180.2135 0.2527,-180.2134 24.7473,0.2674 24.7473,0.2675 0.252,242.75 0.2521,242.75 h -29.8627 -29.8627 l -1.461,-5.25 c -0.8036,-2.8875 -23.2538,-86.7407 -49.8894,-186.3405 L 2351.5,2950.319 2351.2474,3136.6595 2350.9948,3323 h -24.9995 -24.9994 z m 350.252,241.1251 c -20.8006,-4.4848 -34.0633,-16.9726 -40.2256,-37.8751 -1.6647,-5.6465 -1.7847,-18.979 -2.0369,-226.2664 l -0.2681,-220.2663 26.7653,0.2663 26.7653,0.2664 0.5,214 c 0.4701,201.2074 0.6046,214.2098 2.2497,217.5093 0.9623,1.9301 2.6747,4.0869 3.8053,4.793 3.9627,2.4747 19.1554,3.4229 48.445,3.0234 33.2846,-0.4539 35.2767,-0.8792 39,-8.3257 1.9787,-3.9575 2.0028,-6.2714 2.2657,-217.7663 l 0.2658,-213.7663 26.7342,0.2663 26.7343,0.2663 0.2836,210 c 0.1854,137.2569 -0.071,214.0013 -0.739,221.5513 -1.533,17.3171 -5.3151,27.5843 -13.5248,36.7154 -5.6079,6.2374 -13.6064,11.2283 -23.0198,14.364 -6.9574,2.3176 -7.3348,2.333 -62,2.5427 -45.8626,0.176 -56.1629,-0.04 -62,-1.2983 z M 2911,3080 v -243 h 31.4613 31.4612 l 1.38,4.75 c 0.759,2.6125 22.2639,83.1843 47.7887,179.0484 l 46.4088,174.2984 0.5,-178.7984 0.5,-178.7984 24.75,-0.2675 24.75,-0.2674 v 243.0323 243.0324 l -29.6445,-0.2649 -29.6446,-0.2649 -49.6054,-185.4009 -49.6055,-185.401 -0.2526,185.651 L 2960.9947,3323 H 2935.9974 2911 Z m 310,0 v -243 h 31.453 31.453 l 0.8896,3.25 c 0.4892,1.7875 21.9979,82.4275 47.797,179.2 l 46.9074,175.9501 0.2527,-179.2001 0.2528,-179.2 H 3405.0027 3430 v 243.0149 243.0149 l -29.7059,-0.2649 -29.7059,-0.2649 -49.5441,-185.1766 -49.5441,-185.1766 -0.2526,185.4266 L 3270.9947,3323 H 3245.9974 3221 Z m 279,241.4353 c 0,-2.6958 75.0187,-482.6565 75.5827,-483.5691 0.2944,-0.4764 19.598,-0.8662 42.8969,-0.8662 h 42.3615 l 0.574,2.75 c 1.4497,6.9445 82.5849,480.0339 82.5849,481.5421 0,1.5682 -2.1999,1.7079 -26.8916,1.7079 h -26.8916 l -0.5303,-2.25 c -0.2917,-1.2375 -4.9024,-28.9125 -10.2461,-61.5 l -9.7157,-59.25 h -48.751 -48.7511 l -0.5802,3.25 c -0.3191,1.7875 -4.2082,28.45 -8.6425,59.25 -4.4342,30.8 -8.2817,57.0125 -8.5501,58.25 l -0.4879,2.25 h -26.981 C 3503.169,3323 3500,3322.8162 3500,3321.4353 Z m 162,-170.1983 c 0,-2.3778 -42.7607,-265.9737 -43.733,-269.5893 -0.5316,-1.977 -6.7723,39.2214 -20.3359,134.25 L 3578.3622,3153 h 41.8189 c 39.2783,0 41.8189,-0.1071 41.8189,-1.763 z m 308.5,170.1144 c -20.7126,-4.3957 -34.672,-17.7523 -40.1374,-38.4043 -1.4555,-5.4998 -1.7639,-13.0958 -2.0986,-51.6971 l -0.3924,-45.25 h 27.5216 27.5216 l 0.2926,40.25 c 0.2666,36.6718 0.4541,40.5459 2.109,43.5788 3.334,6.1098 5.8835,6.5767 36.1836,6.6267 14.85,0.024 29.0946,-0.3141 31.6547,-0.7525 5.7316,-0.9813 9.3594,-4.1847 10.8006,-9.5369 0.757,-2.8114 1.0082,-27.9345 0.8185,-81.8612 -0.3064,-87.0658 0.1221,-82.1443 -7.4797,-85.9193 -3.4696,-1.7229 -7.3436,-1.9333 -45.2941,-2.4596 -45.9175,-0.6369 -45.8113,-0.6231 -59.2748,-7.6592 -12.3859,-6.473 -20.5208,-18.075 -24.377,-34.7668 -1.7145,-7.4213 -1.8482,-13.7151 -1.8482,-87 0,-72.8715 0.1411,-79.6015 1.819,-86.7536 5.0705,-21.6133 17.8303,-34.8996 38.7692,-40.3689 5.367,-1.4019 13.4143,-1.7459 49.385,-2.1108 45.5583,-0.4623 56.8938,0.1753 67.8682,3.8176 11.9268,3.9584 22.5526,12.948 27.6777,23.4157 6.263,12.7918 6.3533,13.6464 6.7393,63.75 l 0.3525,45.75 H 4092.0554 4065 l -0.02,-34.25 c -0.011,-18.8375 -0.4614,-37.3041 -1.0012,-41.037 -2.0708,-14.3219 -4.0258,-14.9716 -43.7213,-14.5317 -25.5231,0.2829 -29.1321,0.523 -32.0865,2.1351 -6.8871,3.7581 -6.6712,1.163 -6.6712,80.1836 0,79.0219 -0.2158,76.4281 6.6712,80.1811 2.9978,1.6336 7.2568,1.8729 42.8288,2.406 32.7641,0.4911 40.779,0.8931 47,2.3577 21.3885,5.0355 33.93,17.2052 39.7332,38.5552 1.6278,5.9887 1.7668,13.5794 1.7668,96.5 v 90 l -2.3073,7.9699 c -3.0419,10.5075 -6.4644,16.5844 -13.0486,23.1686 -6.5492,6.5492 -16.5277,11.5795 -27.3519,13.7885 -10.9482,2.2343 -95.6919,2.174 -106.2922,-0.076 z m -172.2558,-401.1014 0.2558,-82.75 27.25,-0.2661 27.25,-0.266 v 83.016 V 3003 h -27.5058 -27.5058 z M 2399,2304.9683 v -409.0318 l 131.25,0.3309 c 129.7298,0.3271 131.3492,0.3554 139.8138,2.4475 24.0884,5.9536 39.8528,15.4375 51.5956,31.04 9.8606,13.1017 16.2388,30.8398 18.4144,51.2117 0.6605,6.1853 0.9058,64.4963 0.6984,166.0334 -0.3513,171.957 0.043,160.7824 -6.3427,179.8047 -12.0126,35.785 -40.215,54.8816 -85.9295,58.1853 -7.15,0.5167 -45.9625,0.9553 -86.25,0.9747 L 2489,2386 v 164 164 h -45 -45 z m 235.6125,-0.2437 c 6.1665,-2.0751 9.886,-4.8541 12.02,-8.9808 4.1966,-8.1155 4.2977,-11.7665 4.2977,-155.2438 0,-143.4773 -0.1011,-147.1283 -4.2977,-155.2438 -2.134,-4.1267 -5.8535,-6.9057 -12.02,-8.9808 -4.6037,-1.5492 -12.1043,-1.7524 -75.3625,-2.042 L 2489,1973.9118 V 2140.5 2307.0882 l 70.25,-0.3216 c 63.2582,-0.2896 70.7588,-0.4928 75.3625,-2.042 z M 2865,2395 v -319 h 46 46 v 319 319 h -46 -46 z m 196,280.5909 v -38.4091 l 109.8096,-241.3409 109.8096,-241.3409 -103.0596,-0.5 -103.0596,-0.5 -0.2617,-38.75 -0.2618,-38.75 H 3222.9883 3372 v 39.3899 39.3898 l -109.3579,240.3602 -109.3579,240.3601 109.3579,0.2544 109.3579,0.2544 V 2675.0044 2714 H 3216.5 3061 Z m 376.2168,-0.8409 0.2832,-39.25 109.6312,-240.5 109.6311,-240.5 -102.8811,-0.2547 L 3451,2153.9907 V 2114.9953 2076 h 149 149 l -0.056,38.75 -0.056,38.75 -109.7261,241 -109.7261,241 109.7818,0.2544 109.7818,0.2544 V 2675.0044 2714 h -156.0332 -156.0333 z m 495.2832,38.5837 c -23.4631,-2.8676 -41.1166,-9.5645 -54.6594,-20.7352 -15.8293,-13.0568 -26.2459,-34.0199 -29.7748,-59.9209 -0.7287,-5.348 -1.0658,-80.7502 -1.0658,-238.3806 0,-251.9095 -0.2605,-240.0293 5.6609,-258.2106 9.0896,-27.909 26.1649,-44.9772 54.3391,-54.3163 15.2241,-5.0465 18.1769,-5.2713 69,-5.2527 46.0606,0.017 47.7424,0.085 55.5,2.2493 18.6225,5.1953 32.0324,15.2317 39.7275,29.7333 l 3.7145,7 0.029,-19.75 L 4075,2076 h 46 46 v 319 319 h -46 -46 l -0.023,-19.75 -0.023,-19.75 -3.3409,6.1983 c -9.3884,17.4181 -24.9905,27.9158 -47.2619,31.7996 -6.8125,1.188 -17.0033,1.4708 -48.7328,1.3523 -22.0654,-0.082 -41.469,-0.3149 -43.119,-0.5165 z m 110.1776,-78.4003 c 18.1752,-2.4781 27.2452,-10.6435 30.8821,-27.8023 2.1434,-10.112 2.0949,-414.3776 -0.051,-424.5056 -2.9098,-13.7345 -9.759,-21.6516 -22.3009,-25.7782 -6.2692,-2.0627 -8.9494,-2.2338 -40.9816,-2.6167 -52.4949,-0.6276 -62.3221,1.1252 -67.668,12.0688 -1.4747,3.0191 -2.9803,8.5564 -3.5892,13.2006 -1.6478,12.5682 -0.789,432.4975 0.8972,438.7095 2.6786,9.8679 8.0038,14.442 19.1337,16.4349 8.4506,1.5131 73.0632,1.7363 83.6776,0.289 z M 2863,1886.5 V 1833 h 48 48 v 53.5 53.5 h -48 -48 z"
       id="path79" />
  </g>
</svg>
