<?xml version="1.0" encoding="UTF-8" standalone="no"?>
<!-- Created with Inkscape (http://www.inkscape.org/) -->

<svg
  version="1.1"
  id="svg1"
  width="2004"
  height="1456"
  viewBox="0 0 2004 1456"
  sodipodi:docname="logo.svg"
  inkscape:version="1.3.1 (91b66b0783, 2023-11-16)"
  xmlns:inkscape="http://www.inkscape.org/namespaces/inkscape"
  xmlns:sodipodi="http://sodipodi.sourceforge.net/DTD/sodipodi-0.dtd"
  xmlns="http://www.w3.org/2000/svg"
  xmlns:svg="http://www.w3.org/2000/svg">
  <defs
    id="defs1" />
  <sodipodi:namedview
    id="namedview1"
    pagecolor="#ffffff"
    bordercolor="#000000"
    borderopacity="0.25"
    inkscape:showpageshadow="2"
    inkscape:pageopacity="0.0"
    inkscape:pagecheckerboard="0"
    inkscape:deskcolor="#d1d1d1"
    inkscape:zoom="1.2287088"
    inkscape:cx="1002.2717"
    inkscape:cy="728"
    inkscape:window-width="3840"
    inkscape:window-height="2066"
    inkscape:window-x="3829"
    inkscape:window-y="-11"
    inkscape:window-maximized="1"
    inkscape:current-layer="g1" />
  <g
    inkscape:groupmode="layer"
    inkscape:label="Image"
    id="g1">
    <path
      style="display:inline;fill:red"
      d="m 954,1451.1194 c -43.98351,-2.6388 -57.71388,-3.7037 -84.26055,-6.5356 C 769.33054,1433.8727 674.34226,1409.5408 596,1374.4635 c -26.87797,-12.0344 -47.82615,-23.597 -73.33333,-40.4771 -25.35758,-16.7811 -38.14997,-27.4411 -42.23666,-35.1961 -7.92337,-15.0357 0.49635,-35.0505 16.7997,-39.9351 11.77648,-3.5283 19.42975,-0.9943 35.45198,11.7379 76.60764,60.8773 211.91241,105.1886 362.5484,118.7318 57.9736,5.2122 137.69481,6.0346 188.10321,1.9405 80.3343,-6.5246 141.848,-16.9993 203.5834,-34.6666 67.1903,-19.2284 119.5182,-42.6939 166.6492,-74.7307 15.5028,-10.5379 21.8219,-12.5636 31.1956,-10.0001 7.8158,2.1375 13.3639,6.0379 17.5185,12.3159 3.2566,4.9212 3.72,6.8912 3.72,15.8161 0,14.4297 -2.4611,17.6858 -24.8274,32.8475 -87.3556,59.2164 -218.4261,99.9642 -365.8393,113.7338 -48.1836,4.5007 -125.63973,6.6795 -161.3333,4.5381 z m -3.33333,-113.8636 c -17.16399,-1.5736 -31.73844,-4.9236 -41.1005,-9.4469 -10.20719,-4.9318 -14.00458,-10.0343 -13.08253,-17.5791 0.77532,-6.3441 3.81572,-9.813 10.30485,-11.7572 4.48395,-1.3434 5.63733,-1.1457 10.78293,1.848 10.20091,5.9349 22.99554,7.9942 54.0345,8.6971 36.42288,0.8247 55.31248,-1.6677 67.10018,-8.8536 5.1666,-3.1496 9.3743,-3.5612 13.7149,-1.3414 7.6586,3.9167 9.7565,12.9228 4.8752,20.9291 -8.4597,13.8756 -57.82187,21.9787 -106.62953,17.504 z M 1644,1304.0037 c -58.1945,-5.159 -106.9791,-46.4333 -122.1406,-103.337 -3.0807,-11.5622 -3.5684,-16.0786 -3.6716,-34 -0.1281,-22.2396 1.9778,-34.1038 9.2149,-51.9144 2.9647,-7.296 3.1158,-8.6296 1.7058,-15.0456 -1.8154,-8.2601 -2.2388,-38.0834 -0.7103,-50.0278 l 1.0648,-8.3212 -5.8529,-6.3455 c -7.6485,-8.2923 -20.0912,-24.8389 -29.3363,-39.0122 -4.066,-6.23333 -11.0866,-14.93333 -15.6014,-19.33333 -23.7459,-23.14213 -38.7773,-60.85972 -38.6259,-96.92207 0.041,-9.80539 1.9985,-24.63451 4.5423,-34.41443 0.8421,-3.23735 0.5161,-3.42055 -10.9703,-6.16446 -21.8106,-5.21023 -42.0492,-16.3576 -59.8596,-32.97064 -18.6814,-17.42546 -31.2802,-37.61909 -38.6576,-61.96122 l -3.768,-12.43282 -4,0.84519 c -17.9008,3.78242 -40.9043,4.60836 -55.6594,1.99845 -33.4325,-5.91355 -63.6239,-23.55208 -83.8573,-48.99145 -4.2345,-5.32406 -8.1756,-10.51482 -8.7579,-11.53503 -0.873,-1.52957 -3.0466,-1.18968 -12.392,1.93781 -14.4521,4.83645 -25.453,6.59052 -41.3334,6.59052 -30.4014,0 -56.2601,-9.24318 -80.3617,-28.72532 l -9.0285,-7.29798 -6.9715,5.15932 c -25.9731,19.22141 -53.8473,29.1258 -85.63827,30.42936 -28.02313,1.14905 -54.93364,-4.39932 -78.09457,-16.10145 l -8.76124,-4.42664 -3.76956,6.82476 c -17.36651,31.44197 -48.19705,56.86765 -81.06839,66.85644 -28.40577,8.63181 -64.88523,7.59036 -89.64343,-2.55922 L 674,729.52778 l -1.22338,2.90278 c -10.90359,25.87145 -20.19264,40.14987 -35.89406,55.17363 -21.93186,20.98529 -48.00045,33.85564 -76.44184,37.7402 l -11.77405,1.60811 0.47816,12.18293 c 2.02189,51.51528 -25.98125,101.74328 -70.20786,125.92876 l -7.02016,3.83901 -0.41884,22.5484 c -0.34517,18.5823 -0.94083,24.3073 -3.38645,32.5484 -4.05235,13.6553 -11.88635,29.9764 -20.07182,41.8171 -7.55893,10.9344 -26.04229,29.8398 -37.37303,38.2265 -10.88697,8.0582 -30.12638,19.2309 -40.26523,23.3828 l -8.93189,3.6576 0.7658,17.458 c 1.77401,40.4425 -11.082,74.2929 -39.42382,103.8043 -16.83117,17.5258 -36.83561,29.7369 -59.42121,36.2718 -47.29496,13.6844 -97.13469,1.9354 -133.30229,-31.424 -36.952499,-34.0833 -52.633734,-87.047 -40.024677,-135.1841 1.730247,-6.6055 3.523785,-13.2835 3.98564,-14.8399 0.708696,-2.3883 -0.894127,-4.0518 -10.271295,-10.66 -15.25877,-10.753 -37.713096,-32.7922 -47.717875,-46.8357 C 25.103807,1034.2957 15.505313,1014.4063 11.106961,997.96869 7.9973935,986.34754 7.5393865,982.05518 7.4824097,964 c -0.05509,-17.45739 0.4073474,-22.42659 2.9779433,-32 3.607608,-13.43544 12.309119,-32.37086 20.247383,-44.06048 7.550023,-11.1179 23.282544,-27.45109 35.329261,-36.67813 l 9.723919,-7.44792 -7.33172,-10.90673 C 57.98465,817.36933 44.051963,788.5606 37.634539,769.23237 -2.398271,648.66011 42.574775,517.67041 148,447.77897 c 33.74897,-22.37381 74.30672,-37.80346 113.80133,-43.29419 14.78556,-2.05556 16.80597,-2.96265 16.84492,-7.56277 0.0112,-1.32623 1.79155,-9.42623 3.95626,-18 C 309.93423,270.66941 389.48953,165.5662 498.02173,94.324354 551.12451,59.467047 608.98786,33.547585 668.25073,18.071525 736.0694,0.36118201 807.64785,-2.401408 872.66667,10.182035 c 34.25923,6.630375 79.70866,23.974291 106,40.450567 30.93023,19.383397 59.70733,45.668759 79.21273,72.354048 l 10.4671,14.31999 11.8551,-11.28162 c 14.3973,-13.70087 28.5876,-24.62154 48.7142,-37.48964 46.2634,-29.578847 96.4166,-47.334754 158.4175,-56.085105 23.6886,-3.343221 81.7372,-3.338506 106,0.0086 54.828,7.563644 101.2166,21.69898 148.3025,45.190129 98.0669,48.925476 170.6378,129.115776 202.1544,223.379316 18.6611,55.81368 21.5786,116.75807 8.1317,169.86049 -3.2737,12.92791 -3.263,13.11118 0.768,13.11118 6.2819,0 28.9351,5.53613 44.2215,10.80709 86.9009,29.96471 156.5333,108.40548 185.1101,208.52624 8.5448,29.9373 12.5199,56.88999 13.5861,92.12023 3.6857,121.78359 -51.131,232.35255 -145.235,292.94865 -8.8878,5.7231 -11.8252,8.3642 -12.467,11.2092 -4.211,18.6662 -7.8254,29.4907 -14.0506,42.0795 -6.0511,12.2367 -13.617,23.6351 -23.1376,34.8579 -6.2486,7.3658 -7.1862,9.3475 -9.8389,20.7964 -5.9803,25.811 -18.081,47.3485 -37.4737,66.698 -29.3878,29.3224 -68.4527,43.591 -109.4048,39.9605 z m 38.6366,-61.7757 c 18.457,-6.4887 34.368,-19.9078 43.7459,-36.8947 5.5166,-9.9925 8.1763,-18.5162 9.751,-31.2486 1.7311,-13.9982 4.565,-19.5654 15.314,-30.0847 19.0369,-18.6301 26.4828,-34.9317 31.0131,-67.8986 2.0136,-14.6532 5.1584,-18.3056 26.0037,-30.2002 35.5593,-20.2907 59.4218,-42.4948 81.5706,-75.9012 23.4523,-35.37245 38.897,-76.63537 45.4886,-121.52985 2.812,-19.15215 3.1419,-61.40672 0.6334,-81.13682 -8.2212,-64.66233 -33.6851,-120.79106 -73.8834,-162.85727 -40.5005,-42.38246 -85.9555,-63.2722 -142.1135,-65.31109 -10.5453,-0.38286 -20.7427,-1.29277 -22.6608,-2.02202 -9.6918,-3.68482 -16.811,-13.08278 -18.3353,-24.20433 -0.6544,-4.77399 0.2388,-8.35819 5.3226,-21.36013 10.9163,-27.91847 16.4551,-52.76236 17.7415,-79.57849 3.5597,-74.20426 -28.1403,-151.53687 -86.4222,-210.82818 -49.2685,-50.12191 -111.8126,-85.1669 -183.1391,-102.617476 -32.0421,-7.83934 -49.544,-9.73318 -90,-9.738689 -27.745,-0.0038 -40.1722,0.53982 -51.0736,2.234092 -88.2491,13.715443 -156.11,50.946353 -202.8825,111.308493 -7.6057,9.81561 -12.5178,13.1685 -21.8987,14.94755 -5.7478,1.09005 -8.0193,0.87169 -13.9275,-1.33883 -3.8827,-1.45272 -8.5984,-4.28958 -10.4793,-6.30414 -1.8809,-2.01455 -7.4248,-11.59093 -12.3198,-21.28085 C 994.18634,117.31773 930.58617,76.176431 835.33333,62.401979 c -18.08981,-2.615957 -76.987,-2.159983 -97.85018,0.757543 -84.63432,11.835337 -164.23816,45.439848 -236.81648,99.971348 -41.54172,31.21223 -81.40482,72.86481 -108.64529,113.52244 -32.79357,48.94586 -53.88909,102.04182 -59.88924,150.73703 -1.57373,12.77187 -2.70014,16.03655 -7.50204,21.74329 -6.564,7.80087 -12.30162,9.68587 -33.52271,11.01332 -54.33974,3.39915 -102.08363,23.28805 -138.74146,57.79619 -35.41154,33.33493 -57.017816,71.35575 -67.316197,118.45709 -2.591207,11.85132 -2.970001,17.45672 -2.946317,43.59977 0.02343,25.86109 0.432334,31.86975 2.963859,43.55248 8.465727,39.06848 24.028085,70.79335 49.508035,100.92532 6.00427,7.1005 11.78111,14.97847 12.83744,17.50661 4.06887,9.73818 1.13915,24.23954 -6.23686,30.87082 -1.74674,1.57038 -9.17485,5.97401 -16.5069,9.78585 -26.453778,13.75296 -42.097337,28.36456 -52.131197,48.69225 -9.691292,19.63369 -10.409516,39.80211 -2.171325,60.97292 11.477422,29.49515 35.242982,52.41195 80.103632,77.24295 6.63927,3.6749 11.34429,12.1864 11.94365,21.6062 0.49541,7.7862 0.16293,8.8594 -6.94086,22.4033 -9.52123,18.153 -11.94875,28.1722 -11.09056,45.7746 0.82892,17.0022 4.40193,28.2955 13.03668,41.2056 14.91247,22.2959 35.6265,33.9254 62.59765,35.1442 24.55421,1.1095 44.04866,-6.2529 60.6091,-22.8901 22.56497,-22.6696 29.35402,-52.058 19.38217,-83.9013 -5.09887,-16.2824 -4.84526,-22.495 1.29631,-31.7556 4.84819,-7.3104 8.46736,-9.4162 26.30888,-15.3075 46.92659,-15.4952 76.54376,-42.0837 85.20863,-76.4953 2.74241,-10.89114 1.8511,-26.22965 -2.28564,-39.3333 -3.72715,-11.8062 -3.69397,-20.09958 0.11185,-27.96135 3.81995,-7.89098 9.70567,-12.27732 20.95679,-15.61811 23.19749,-6.88803 41.47073,-21.78128 51.07821,-41.63031 11.17599,-23.08955 11.67275,-44.85248 1.58489,-69.43315 -6.30625,-15.36619 -6.60011,-23.80976 -1.15218,-33.10594 7.40562,-12.63674 19.24786,-16.60756 36.38277,-12.19951 12.19662,3.13765 31.91043,3.1638 42.50156,0.0564 22.57614,-6.62381 41.58663,-22.36124 51.11283,-42.31268 6.46898,-13.54847 8.21824,-21.52685 8.22794,-37.52762 0.004,-6.74724 0.63682,-14.53411 1.40607,-17.30416 1.72794,-6.22229 8.10074,-13.66122 14.46025,-16.87939 13.17552,-6.66732 22.6758,-4.38184 38.04827,9.15327 26.44019,23.27996 59.05284,28.96681 88.38865,15.41283 11.6384,-5.37727 21.52167,-12.91742 29.39508,-22.42611 9.96689,-12.03696 14.60202,-23.562 18.81679,-46.78705 1.8789,-10.3535 6.71889,-17.15502 15.22332,-21.39295 13.65625,-6.8052 24.39896,-3.91016 39.58747,10.66836 16.54713,15.88259 33.70796,24.19692 56.84818,27.54265 8.45411,1.22234 13.66942,1.22317 22.82909,0.004 27.03337,-3.59924 47.32557,-14.82899 66.44846,-36.77269 12.9939,-14.91074 21.5897,-18.1471 35.5576,-13.38774 6.6119,2.25289 13.7971,9.27117 19.65,19.19348 10.8511,18.39562 35.3301,32.08034 57.2801,32.02178 14.9126,-0.0398 31.9733,-6.04605 43.3866,-15.27436 8.2862,-6.69996 13.5494,-8.89641 21.3177,-8.89641 13.3426,0 22.1418,6.98169 28.496,22.61018 8.2716,20.34417 18.9279,33.48816 35.0565,43.24045 21.8419,13.20693 49.8937,15.09629 73.0017,4.91684 3.3705,-1.48472 10.3124,-5.22193 15.4266,-8.30491 8.1934,-4.93925 10.2534,-5.60485 17.3333,-5.6006 9.9735,0.006 18.9927,4.80219 24.398,12.97429 3.5608,5.38346 3.6381,5.93225 3.6973,26.25963 0.047,15.97014 0.6126,22.60744 2.453,28.76126 8.648,28.91802 30.7352,50.26324 59.4781,57.48006 8.4498,2.12161 24.594,2.0111 40.7653,-0.27905 7.7482,-1.09728 15.897,1.52544 22.0717,7.10386 13.0015,11.74613 13.6348,24.91194 2.0151,41.89666 -7.7835,11.37724 -10.919,17.77781 -13.3306,27.21178 -5.302,20.74131 -3.4456,38.79498 5.9556,57.92002 4.3767,8.9035 7.7832,13.50163 15.8887,21.44677 6.3958,6.26921 13.4788,15.13846 18.6342,23.33333 10.2782,16.33792 18.4233,26.8546 33.5533,43.32259 16.7389,18.2192 18.253,23.1622 13.0376,42.564 -3.7256,13.8601 -3.6952,34.4253 0.074,50.207 3.2896,13.7723 2.9053,17.2248 -3.3791,30.3586 -2.4828,5.1889 -5.436,13.0105 -6.5626,17.3812 -2.6332,10.2152 -2.6262,29.9342 0.014,40.1064 7.6239,29.37 30.7643,52.0446 59.9372,58.7308 12.5024,2.8654 32.4673,1.7222 44.6366,-2.556 z m -717.96993,-1.6644 c -28.00702,-3.9014 -41.71094,-7.6658 -58.45866,-16.0585 -14.64894,-7.341 -26.06815,-15.0129 -35.37344,-23.7653 -8.93833,-8.4074 -18.71479,-20.9728 -20.05114,-25.7712 -1.59672,-5.7333 0.76576,-12.0661 5.60119,-15.0144 7.88992,-4.8107 15.21019,-2.5302 21.63431,6.7398 5.21249,7.5216 20.03874,20.9945 29.0667,26.4134 12.01337,7.2108 27.60774,13.369 41.02581,16.201 17.40348,3.6731 44.77583,3.6882 61.18186,0.034 29.0383,-6.4681 46.2897,-16.1571 66.7854,-37.5091 9.4309,-9.825 10.4364,-10.4998 15.6456,-10.4998 8.1863,0 14.2905,5.7134 14.0944,13.1921 -0.177,6.7499 -7.0196,16.3148 -19.361,27.0637 -21.079,18.3591 -44.7525,29.9624 -72.7863,35.6753 -12.8669,2.6221 -40.50679,4.4829 -49.00473,3.2992 z m -243.33334,-48.1867 c -69.20397,-3.3535 -131.4358,-44.25 -161.87275,-106.3769 -13.21135,-26.9666 -17.96817,-46.4912 -19.00326,-78 -1.08597,-33.05721 3.74771,-57.45487 16.82006,-84.89798 39.9383,-83.84351 128.76363,-126.49781 218.6851,-105.01351 25.78189,6.15988 53.4784,20.08034 74.03752,37.21175 9.67923,8.06547 9.42802,8.01143 16.41119,3.53034 15.60485,-10.0136 43.42845,-20.84686 64.96158,-25.29313 51.46036,-10.62578 105.70933,-3.71714 149.46613,19.03462 l 13.5055,7.02233 8.4945,-6.61968 c 44.0523,-34.32975 98.4725,-47.43799 153.4093,-36.95188 37.3087,7.12131 70.0229,24.69932 97.8052,52.55272 26.8346,26.90316 44.5658,59.2298 51.8617,94.55166 18.0921,87.58946 -24.8623,173.11516 -106.219,211.49096 -25.7196,12.1319 -50.2005,17.5108 -79.6961,17.5108 -29.3856,0 -53.9859,-5.3834 -79.4169,-17.3791 -41.9537,-19.7895 -72.0877,-49.672 -91.9982,-91.2303 -12.7062,-26.521 -17.9182,-50.022 -17.9182,-80.7926 0,-22.2825 2.345,-38.67216 8.1362,-56.8649 2.1251,-6.67585 3.8638,-12.78243 3.8638,-13.57019 0,-2.04337 -14.9101,-8.81066 -26.6667,-12.10327 -23.86958,-6.68504 -49.7806,-6.49503 -74.12376,0.54359 -13.29878,3.84522 -33.41147,13.97393 -32.83155,16.53388 0.20792,0.91779 1.8359,6.69953 3.61775,12.84831 10.39769,35.88025 9.3703,77.96928 -2.77097,113.51828 -11.89809,34.837 -39.36989,71.9283 -68.55814,92.5642 -28.29478,20.0043 -64.17066,33.4458 -94,35.2187 -6.6,0.3923 -13.5,0.849 -15.33333,1.015 -1.83333,0.1659 -6.63333,0.1418 -10.66667,-0.054 z m 33.73798,-30.3629 c 22.12767,-3.3353 47.67775,-13.4045 66.60056,-26.247 12.27336,-8.3297 32.08116,-28.1897 40.71296,-40.8202 19.93304,-29.167 28.81066,-57.3448 28.86361,-91.6135 0.04,-25.88571 -4.33777,-46.88892 -14.37031,-68.94456 l -3.46216,-7.61125 5.62535,-4.51342 c 19.29277,-15.47929 43.571,-26.71536 69.9355,-32.36647 14.5746,-3.124 45.34731,-3.18295 60.77248,-0.11641 20.7696,4.12901 40.6019,12.42335 59.7268,24.97922 l 10.2809,6.7496 -5.0856,10.245 c -18.0342,36.32986 -21.048,82.85929 -7.9076,122.08089 18.1435,54.1545 63.6579,94.7629 119.9069,106.9819 15.319,3.3278 50.8873,3.4539 65.4577,0.2322 58.0341,-12.8323 103.556,-53.3263 121.7732,-108.3232 10.4913,-31.6726 10.2186,-69.43126 -0.7402,-102.49005 -10.9033,-32.89121 -35.2536,-64.51021 -64.003,-83.10808 -42.6217,-27.5718 -95.3896,-34.10093 -142.1916,-17.59376 -22.2404,7.84426 -44.2607,21.43357 -60.0272,37.0445 l -9.3869,9.29423 -11.1097,-7.48002 c -14.2292,-9.58038 -32.0166,-17.92691 -48.6429,-22.8251 -22.5555,-6.645 -29.771,-7.56852 -59.13343,-7.56852 -23.74942,0 -29.14914,0.40655 -41.18189,3.1006 -28.28456,6.33273 -53.28661,17.6887 -74.33949,33.76511 l -6.85471,5.2344 -11.14529,-11.11349 c -12.94055,-12.90363 -22.01732,-19.95976 -35.42322,-27.53742 -36.57011,-20.67121 -79.14522,-26.11402 -121.07341,-15.47806 -69.90012,17.73162 -120.86312,83.28023 -120.60749,155.12536 0.35877,100.8327 87.61104,175.903 187.03014,160.9175 z m -36.62054,-26.2278 c -21.98022,-1.6756 -44.918,-9.74 -63.94255,-22.4805 -12.51183,-8.3791 -31.35318,-28.2026 -39.03105,-41.0658 -14.15324,-23.7117 -20.24233,-48.0288 -19.0908,-76.2399 0.81852,-20.05263 3.87898,-32.62223 12.24083,-50.27427 7.81049,-16.4881 15.17226,-26.62545 28.87514,-39.76183 18.31606,-17.55882 40.58109,-29.5295 64.51714,-34.6873 14.14167,-3.04729 41.6465,-3.08574 55.58485,-0.0777 38.96844,8.40977 73.68372,35.28294 91.46221,70.80111 7.26525,14.51465 10.68104,25.23493 13.12368,41.18801 4.04072,26.39028 0.22349,51.96958 -11.36322,76.14528 -24.44768,51.0102 -75.94943,80.7546 -132.37623,76.4529 z m 38.2159,-31.0085 c 11.58365,-3.0794 30.7135,-12.926 40.29987,-20.7432 16.63287,-13.5632 30.37127,-35.2909 35.85213,-56.7012 3.39865,-13.2764 3.07631,-36.48198 -0.70379,-50.66663 -10.63548,-39.90916 -40.99654,-69.14234 -80.54408,-77.55197 -14.554,-3.09485 -39.68734,-1.81961 -53.5708,2.71813 -17.7148,5.78999 -29.14159,12.99083 -43.39605,27.34698 -10.82623,10.90346 -13.65619,14.71397 -18.9284,25.48686 -7.44413,15.21086 -10.14519,24.86234 -11.22935,40.12493 -3.80195,53.5233 32.45641,100.5063 86.31205,111.8419 8.45907,1.7804 36.49334,0.6472 45.90842,-1.8558 z m 451.62703,31.024 c -15.8753,-1.3881 -31.1187,-5.5841 -45.5603,-12.5413 -44.0344,-21.2133 -72.5897,-63.0451 -75.9491,-111.2604 -1.8191,-26.10924 1.9947,-45.93226 13.2108,-68.66667 18.2269,-36.94488 52.0062,-63.2224 92.6716,-72.09097 16.8589,-3.67672 43.0879,-3.11436 60,1.28642 26.1981,6.81715 50.7553,21.86782 67.8244,41.56832 46.2211,53.34687 44.648,130.476 -3.6784,180.3531 -29.4487,30.3935 -67.5959,44.9296 -108.519,41.3515 z m 42.373,-32.4311 c 6.2333,-1.9819 15.2333,-5.7209 20,-8.309 30.2717,-16.4361 51.1548,-47.6991 54.4116,-81.4566 4.8462,-50.23174 -24.191,-95.0624 -72.4116,-111.79671 -9.8409,-3.41516 -12.2666,-3.70585 -31.3334,-3.75501 -21.7365,-0.056 -27.0775,0.8298 -42,6.96593 -23.6017,9.70505 -45.6573,31.05542 -55.82,54.03519 -7.0456,15.93121 -8.1487,21.73812 -8.158,42.9456 -0.01,17.2567 0.4189,21.3652 3.1099,29.953 12.0373,38.4145 41.6725,65.7945 80.2015,74.0982 13.9342,3.0032 38.0303,1.761 52,-2.6806 z"
      id="path6" />
  </g>
</svg>